<svg width="670" height="78" viewBox="0 0 670 78" fill="none" xmlns="http://www.w3.org/2000/svg">
<path d="M31.4062 4.71875C33.5938 4.71875 35.5625 5.09375 37.3125 5.84375C39.125 6.53125 40.7812 7.3125 42.2812 8.1875C43.8438 9.0625 45.3125 9.875 46.6875 10.625C48.0625 11.3125 49.4688 11.6562 50.9062 11.6562C52.0312 11.5938 53.3125 11.4375 54.75 11.1875C56 10.9375 57.4375 10.5625 59.0625 10.0625C60.75 9.5 62.625 8.6875 64.6875 7.625C62.625 9.625 60.9375 11.3125 59.625 12.6875C58.375 14 57.4062 15.0938 56.7188 15.9688C55.9062 16.9688 55.3125 17.75 54.9375 18.3125C54.5625 19 54 20.0312 53.25 21.4062C52.5625 22.6562 51.625 24.3438 50.4375 26.4688C49.25 28.5312 47.75 31.25 45.9375 34.625C45.9375 30.3125 45.5 26.9688 44.625 24.5938C43.8125 22.2188 42.9062 20.4062 41.9062 19.1562C40.7188 17.7188 39.375 16.8125 37.875 16.4375C36.5 16.25 35.125 16.5 33.75 17.1875C32.375 17.8125 31 18.75 29.625 20C28.3125 21.25 27.0312 22.75 25.7812 24.5C24.5938 26.1875 23.5 27.9688 22.5 29.8438C21.5625 31.7188 20.7812 33.625 20.1562 35.5625C19.5312 37.4375 19.125 39.1875 18.9375 40.8125C18.75 42.25 18.7188 43.9375 18.8438 45.875C18.9688 47.75 19.25 49.6875 19.6875 51.6875C20.125 53.625 20.6875 55.5312 21.375 57.4062C22.0625 59.2812 22.9062 60.9688 23.9062 62.4688C24.9688 63.9062 26.1562 65.0938 27.4688 66.0312C28.7812 66.9062 30.2812 67.3125 31.9688 67.25C33.8438 67.125 35.6875 66.5625 37.5 65.5625C39.0625 64.75 40.6562 63.5 42.2812 61.8125C43.9062 60.0625 45.3125 57.5938 46.5 54.4062L60.375 56.9375C56.375 61.8125 52.4688 65.4688 48.6562 67.9062C44.9062 70.3438 41.5312 72.0625 38.5312 73.0625C35.0312 74.1875 31.7188 74.7188 28.5938 74.6562C24.6562 74.2188 20.9688 73.0312 17.5312 71.0938C14.0938 69.1562 11.125 66.8125 8.625 64.0625C6.1875 61.25 4.28125 58.1875 2.90625 54.875C1.53125 51.5625 0.9375 48.3125 1.125 45.125C1.25 43 1.6875 40.5312 2.4375 37.7188C3.1875 34.8438 4.1875 31.9062 5.4375 28.9062C6.75 25.9062 8.3125 22.9688 10.125 20.0938C11.9375 17.2188 13.9375 14.6562 16.125 12.4062C18.3125 10.0938 20.6875 8.25 23.25 6.875C25.875 5.4375 28.5938 4.71875 31.4062 4.71875ZM68.3438 36.0312C68.6562 35.6562 68.8438 34.9688 68.9062 33.9688C69.0312 32.9062 69.2812 31.7188 69.6562 30.4062C70.0938 29.0938 70.8125 27.7188 71.8125 26.2812C72.8125 24.8438 74.4375 23.5 76.6875 22.25C78.875 21 81 20.25 83.0625 20C85.125 19.75 87.0938 19.8438 88.9688 20.2812C90.8438 20.7188 92.5938 21.4062 94.2188 22.3438C95.9062 23.2812 97.4375 24.3125 98.8125 25.4375C99.75 26.1875 100.5 27.2812 101.062 28.7188C101.625 30.0938 102.062 31.6562 102.375 33.4062C102.688 35.1562 102.906 37 103.031 38.9375C103.219 40.8125 103.344 42.6562 103.406 44.4688C103.469 46.2188 103.5 47.8438 103.5 49.3438C103.562 50.7812 103.688 51.9688 103.875 52.9062C104.125 54.2812 104.562 55.4688 105.188 56.4688C105.812 57.4062 106.5 58.2188 107.25 58.9062C108 59.5312 108.75 60.0312 109.5 60.4062C110.25 60.7812 110.906 61.0625 111.469 61.25C111.844 61.4375 112.188 61.5625 112.5 61.625C113.125 61.875 113.562 61.875 113.812 61.625C113.438 62.5 113.094 63.25 112.781 63.875C112.469 64.5 112.219 65.0312 112.031 65.4688C111.781 65.9688 111.562 66.375 111.375 66.6875C111.188 67.0625 110.969 67.4062 110.719 67.7188C110.531 68.0312 110.281 68.375 109.969 68.75C109.656 69.125 109.344 69.5312 109.031 69.9688C108.219 69.6562 107.438 69.2812 106.688 68.8438C106 68.4062 105.375 68 104.812 67.625C104.125 67.1875 103.5 66.75 102.938 66.3125C102.375 65.875 101.844 65.375 101.344 64.8125C100.906 64.3125 100.438 63.7812 99.9375 63.2188C99.5 62.6562 99.125 62.0312 98.8125 61.3438C98.4375 62.1562 97.5312 63.3125 96.0938 64.8125C94.7188 66.3125 92.9062 67.6875 90.6562 68.9375C88.4062 70.125 85.7812 70.9688 82.7812 71.4688C79.8438 71.9688 76.5938 71.625 73.0312 70.4375C71.4688 69.9375 70 69.2188 68.625 68.2812C67.25 67.2812 66.0625 66.0938 65.0625 64.7188C64.125 63.3438 63.4375 61.7812 63 60.0312C62.625 58.2188 62.6562 56.2188 63.0938 54.0312C63.5312 51.8438 64.3125 50 65.4375 48.5C66.5625 47 67.9062 45.7812 69.4688 44.8438C71.0312 43.9062 72.7812 43.1875 74.7188 42.6875C76.6562 42.1875 78.6562 41.8438 80.7188 41.6562C82.3438 41.5938 83.9688 41.6875 85.5938 41.9375C86.9688 42.1875 88.4062 42.6562 89.9062 43.3438C91.4062 43.9688 92.6875 44.9375 93.75 46.25C93.6875 42.9375 93.5625 40.3125 93.375 38.375C93.25 36.375 93.125 34.8438 93 33.7812C92.75 32.5312 92.5312 31.6562 92.3438 31.1562C92.0312 30.7188 91.6875 30.2188 91.3125 29.6562C91 29.0938 90.5938 28.5938 90.0938 28.1562C89.5938 27.6562 88.9688 27.25 88.2188 26.9375C87.4688 26.625 86.5938 26.5 85.5938 26.5625C84.5312 26.625 83.6875 26.9062 83.0625 27.4062C82.4375 27.9062 81.9375 28.5 81.5625 29.1875C81.25 29.8125 81.0625 30.5 81 31.25C80.9375 32 80.9688 32.6562 81.0938 33.2188C81.2188 33.5938 81.4062 34 81.6562 34.4375C81.9062 34.8125 82.25 35.2188 82.6875 35.6562C83.125 36.0938 83.7188 36.4688 84.4688 36.7812C83.0312 36.9688 81.75 37.125 80.625 37.25C79.5 37.3125 78.5312 37.4062 77.7188 37.5312C76.7812 37.6562 75.9688 37.75 75.2812 37.8125C74.5938 37.875 73.7812 38 72.8438 38.1875C72.0312 38.3125 71.0312 38.4688 69.8438 38.6562C68.6562 38.8438 67.2812 39.0938 65.7188 39.4062C66.0938 38.9688 66.4375 38.5625 66.75 38.1875C67.0625 37.75 67.3438 37.375 67.5938 37.0625C67.8438 36.6875 68.0938 36.3438 68.3438 36.0312ZM82.4062 47.1875C81.2812 47.25 80.1562 47.5312 79.0312 48.0312C77.9062 48.4688 76.9062 49.125 76.0312 50C75.1562 50.8125 74.4062 51.7812 73.7812 52.9062C73.2188 53.9688 72.9375 55.1562 72.9375 56.4688C72.9375 57.7812 73.25 58.9375 73.875 59.9375C74.5625 60.875 75.4375 61.6562 76.5 62.2812C77.625 62.9062 78.8125 63.2812 80.0625 63.4062C81.375 63.5312 82.6562 63.4062 83.9062 63.0312C85.0938 62.5938 86.2188 61.9062 87.2812 60.9688C88.3438 59.9688 89.25 58.9062 90 57.7812C90.75 56.5938 91.2812 55.4375 91.5938 54.3125C91.9062 53.125 91.9375 52.1562 91.6875 51.4062C91.1875 49.7812 90.0625 48.6562 88.3125 48.0312C86.5625 47.3438 84.5938 47.0625 82.4062 47.1875ZM115.781 63.6875C116.219 61.625 116.531 59.8125 116.719 58.25C116.969 56.625 117.156 55.2812 117.281 54.2188C117.406 52.9688 117.469 51.9062 117.469 51.0312C117.406 49.9688 117.344 48.7188 117.281 47.2812C117.281 45.7812 117.219 44.3125 117.094 42.875C117.031 41.375 116.938 40.0625 116.812 38.9375C116.688 37.75 116.531 36.9062 116.344 36.4062C116.094 35.9062 115.75 35.375 115.312 34.8125C114.438 33.75 113.156 32.7188 111.469 31.7188C112.906 31.4062 114.125 31.1562 115.125 30.9688C116.188 30.7188 117.062 30.5 117.75 30.3125C118.5 30.0625 119.156 29.8438 119.719 29.6562C120.219 29.4688 120.812 29.2812 121.5 29.0938C122.062 28.9688 122.75 28.8125 123.562 28.625C124.375 28.4375 125.312 28.2188 126.375 27.9688L126.094 36.5C128.094 34.125 130.125 32.3438 132.188 31.1562C134.25 29.9688 136.188 29.125 138 28.625C140.062 28 142.094 27.6875 144.094 27.6875C146.594 27.8125 148.906 28.2188 151.031 28.9062C153.219 29.5938 155.094 30.4062 156.656 31.3438C158.281 32.2188 159.594 33.1562 160.594 34.1562C161.594 35.1562 162.188 36.0312 162.375 36.7812C163.125 39.2188 163.312 41.4688 162.938 43.5312C162.562 45.5312 162.062 47.5 161.438 49.4375C160.875 51.3125 160.375 53.1875 159.938 55.0625C159.562 56.9375 159.719 58.9688 160.406 61.1562C160.656 61.7188 160.906 62.2812 161.156 62.8438C161.406 63.3438 161.719 63.8438 162.094 64.3438C162.469 64.8438 162.906 65.25 163.406 65.5625C162.719 65.5 162.031 65.4688 161.344 65.4688C160.656 65.4062 160.031 65.3438 159.469 65.2812C158.781 65.2188 158.156 65.1562 157.594 65.0938C156.969 65.0312 156.125 65 155.062 65C153.25 65 150.438 65.0938 146.625 65.2812C147.188 63.9688 147.625 62.875 147.938 62C148.312 61.0625 148.625 60.3125 148.875 59.75C149.125 59.0625 149.312 58.5312 149.438 58.1562C150.188 56.3438 150.625 54.2812 150.75 51.9688C150.938 49.6562 150.781 47.3125 150.281 44.9375C150.094 44.125 149.781 43.1562 149.344 42.0312C148.906 40.9062 148.312 39.8125 147.562 38.75C146.875 37.6875 146.031 36.7812 145.031 36.0312C144.094 35.2812 143 34.8438 141.75 34.7188C140.5 34.5938 139.094 34.9062 137.531 35.6562C136.031 36.4062 134.406 37.7812 132.656 39.7812C131.344 41.4688 130.312 43.5312 129.562 45.9688C128.875 48.0312 128.406 50.625 128.156 53.75C127.906 56.8125 128.281 60.4062 129.281 64.5312C128.406 64.4062 127.594 64.3438 126.844 64.3438C126.094 64.2812 125.469 64.2188 124.969 64.1562C124.344 64.0938 123.781 64.0312 123.281 63.9688C122.719 63.9688 122.094 63.9375 121.406 63.875C120.781 63.875 120 63.875 119.062 63.875C118.125 63.8125 117.031 63.75 115.781 63.6875ZM176.156 36.0312C176.469 35.6562 176.656 34.9688 176.719 33.9688C176.844 32.9062 177.094 31.7188 177.469 30.4062C177.906 29.0938 178.625 27.7188 179.625 26.2812C180.625 24.8438 182.25 23.5 184.5 22.25C186.688 21 188.812 20.25 190.875 20C192.938 19.75 194.906 19.8438 196.781 20.2812C198.656 20.7188 200.406 21.4062 202.031 22.3438C203.719 23.2812 205.25 24.3125 206.625 25.4375C207.562 26.1875 208.312 27.2812 208.875 28.7188C209.438 30.0938 209.875 31.6562 210.188 33.4062C210.5 35.1562 210.719 37 210.844 38.9375C211.031 40.8125 211.156 42.6562 211.219 44.4688C211.281 46.2188 211.312 47.8438 211.312 49.3438C211.375 50.7812 211.5 51.9688 211.688 52.9062C211.938 54.2812 212.375 55.4688 213 56.4688C213.625 57.4062 214.312 58.2188 215.062 58.9062C215.812 59.5312 216.562 60.0312 217.312 60.4062C218.062 60.7812 218.719 61.0625 219.281 61.25C219.656 61.4375 220 61.5625 220.312 61.625C220.938 61.875 221.375 61.875 221.625 61.625C221.25 62.5 220.906 63.25 220.594 63.875C220.281 64.5 220.031 65.0312 219.844 65.4688C219.594 65.9688 219.375 66.375 219.188 66.6875C219 67.0625 218.781 67.4062 218.531 67.7188C218.344 68.0312 218.094 68.375 217.781 68.75C217.469 69.125 217.156 69.5312 216.844 69.9688C216.031 69.6562 215.25 69.2812 214.5 68.8438C213.812 68.4062 213.188 68 212.625 67.625C211.938 67.1875 211.312 66.75 210.75 66.3125C210.188 65.875 209.656 65.375 209.156 64.8125C208.719 64.3125 208.25 63.7812 207.75 63.2188C207.312 62.6562 206.938 62.0312 206.625 61.3438C206.25 62.1562 205.344 63.3125 203.906 64.8125C202.531 66.3125 200.719 67.6875 198.469 68.9375C196.219 70.125 193.594 70.9688 190.594 71.4688C187.656 71.9688 184.406 71.625 180.844 70.4375C179.281 69.9375 177.812 69.2188 176.438 68.2812C175.062 67.2812 173.875 66.0938 172.875 64.7188C171.938 63.3438 171.25 61.7812 170.812 60.0312C170.438 58.2188 170.469 56.2188 170.906 54.0312C171.344 51.8438 172.125 50 173.25 48.5C174.375 47 175.719 45.7812 177.281 44.8438C178.844 43.9062 180.594 43.1875 182.531 42.6875C184.469 42.1875 186.469 41.8438 188.531 41.6562C190.156 41.5938 191.781 41.6875 193.406 41.9375C194.781 42.1875 196.219 42.6562 197.719 43.3438C199.219 43.9688 200.5 44.9375 201.562 46.25C201.5 42.9375 201.375 40.3125 201.188 38.375C201.062 36.375 200.938 34.8438 200.812 33.7812C200.562 32.5312 200.344 31.6562 200.156 31.1562C199.844 30.7188 199.5 30.2188 199.125 29.6562C198.812 29.0938 198.406 28.5938 197.906 28.1562C197.406 27.6562 196.781 27.25 196.031 26.9375C195.281 26.625 194.406 26.5 193.406 26.5625C192.344 26.625 191.5 26.9062 190.875 27.4062C190.25 27.9062 189.75 28.5 189.375 29.1875C189.062 29.8125 188.875 30.5 188.812 31.25C188.75 32 188.781 32.6562 188.906 33.2188C189.031 33.5938 189.219 34 189.469 34.4375C189.719 34.8125 190.062 35.2188 190.5 35.6562C190.938 36.0938 191.531 36.4688 192.281 36.7812C190.844 36.9688 189.562 37.125 188.438 37.25C187.312 37.3125 186.344 37.4062 185.531 37.5312C184.594 37.6562 183.781 37.75 183.094 37.8125C182.406 37.875 181.594 38 180.656 38.1875C179.844 38.3125 178.844 38.4688 177.656 38.6562C176.469 38.8438 175.094 39.0938 173.531 39.4062C173.906 38.9688 174.25 38.5625 174.562 38.1875C174.875 37.75 175.156 37.375 175.406 37.0625C175.656 36.6875 175.906 36.3438 176.156 36.0312ZM190.219 47.1875C189.094 47.25 187.969 47.5312 186.844 48.0312C185.719 48.4688 184.719 49.125 183.844 50C182.969 50.8125 182.219 51.7812 181.594 52.9062C181.031 53.9688 180.75 55.1562 180.75 56.4688C180.75 57.7812 181.062 58.9375 181.688 59.9375C182.375 60.875 183.25 61.6562 184.312 62.2812C185.438 62.9062 186.625 63.2812 187.875 63.4062C189.188 63.5312 190.469 63.4062 191.719 63.0312C192.906 62.5938 194.031 61.9062 195.094 60.9688C196.156 59.9688 197.062 58.9062 197.812 57.7812C198.562 56.5938 199.094 55.4375 199.406 54.3125C199.719 53.125 199.75 52.1562 199.5 51.4062C199 49.7812 197.875 48.6562 196.125 48.0312C194.375 47.3438 192.406 47.0625 190.219 47.1875ZM266.719 2.1875C267.906 2.25 269.188 2.28125 270.562 2.28125C271.75 2.28125 273.094 2.3125 274.594 2.375C276.156 2.375 277.781 2.3125 279.469 2.1875C277.969 2.875 276.656 3.875 275.531 5.1875C274.406 6.5 273.5 7.8125 272.812 9.125C271.938 10.6875 271.219 12.3125 270.656 14C270.344 15 270.094 16.7812 269.906 19.3438C269.719 21.8438 269.562 24.7812 269.438 28.1562C269.375 31.5312 269.344 35.0938 269.344 38.8438C269.344 42.5938 269.375 46.1875 269.438 49.625C269.5 53 269.594 56 269.719 58.625C269.844 61.25 270 63.0938 270.188 64.1562C270.438 65.4062 270.75 66.5938 271.125 67.7188C271.438 68.7188 271.844 69.75 272.344 70.8125C272.844 71.8125 273.469 72.625 274.219 73.25L264.656 77.5625C264.156 76.875 263.75 76.1562 263.438 75.4062C263.125 74.7188 262.875 74.0938 262.688 73.5312C262.438 72.8438 262.281 72.2188 262.219 71.6562C262.094 70.9062 261.969 70.0938 261.844 69.2188C261.719 68.2812 261.562 67.4062 261.375 66.5938C261.25 65.7188 261.156 65 261.094 64.4375C261.031 63.875 261.031 63.5312 261.094 63.4062C261.156 63.2812 260.781 63.8438 259.969 65.0938C259.156 66.2812 257.938 67.6875 256.312 69.3125C254.75 70.875 252.812 72.4062 250.5 73.9062C248.188 75.3438 245.594 76.25 242.719 76.625C239.781 77 237.062 76.4375 234.562 74.9375C232.125 73.4375 230.031 71.3438 228.281 68.6562C226.531 65.9062 225.188 62.75 224.25 59.1875C223.375 55.5625 223.031 51.875 223.219 48.125C223.344 45.625 223.906 43.4062 224.906 41.4688C225.906 39.4688 227.156 37.75 228.656 36.3125C230.219 34.8125 231.906 33.5625 233.719 32.5625C235.594 31.5 237.406 30.625 239.156 29.9375C240.969 29.25 242.656 28.75 244.219 28.4375C245.781 28.125 247.031 27.9062 247.969 27.7812C249.094 27.7188 250.375 27.9062 251.812 28.3438C253.062 28.7188 254.5 29.3438 256.125 30.2188C257.812 31.0938 259.688 32.4062 261.75 34.1562C261.375 27.9062 261.031 22.9062 260.719 19.1562C260.406 15.3438 260.094 12.4375 259.781 10.4375C259.469 8.0625 259.188 6.4375 258.938 5.5625C258.625 4.9375 258.219 4.3125 257.719 3.6875C257.281 3.1875 256.719 2.6875 256.031 2.1875C255.406 1.625 254.656 1.1875 253.781 0.875C255.406 1.1875 256.969 1.40625 258.469 1.53125C259.969 1.65625 261.344 1.78125 262.594 1.90625C264.031 2.03125 265.406 2.125 266.719 2.1875ZM243.188 37.1562C242 37.5938 241.031 38.3438 240.281 39.4062C239.594 40.4688 239.031 41.75 238.594 43.25C238.156 44.6875 237.844 46.25 237.656 47.9375C237.531 49.5625 237.438 51.1562 237.375 52.7188C237.375 54.2188 237.375 55.5938 237.375 56.8438C237.375 58.0938 237.375 59.0312 237.375 59.6562C237.375 60.0312 237.438 60.7188 237.562 61.7188C237.75 62.6562 238.125 63.6562 238.688 64.7188C239.25 65.7188 240.031 66.625 241.031 67.4375C242.094 68.25 243.5 68.6562 245.25 68.6562C246.688 68.5312 248.219 68.0312 249.844 67.1562C251.281 66.4062 252.906 65.2188 254.719 63.5938C256.594 61.9062 258.594 59.5 260.719 56.375C260.594 54.375 260.5 52.7188 260.438 51.4062C260.438 50.0938 260.406 49.0312 260.344 48.2188C260.281 47.2812 260.25 46.5312 260.25 45.9688V44.5625C260.25 44.1875 260.25 43.7812 260.25 43.3438C260.25 42.9062 260.281 42.5 260.344 42.125C258.594 40.875 257.031 39.8125 255.656 38.9375C254.344 38 253.031 37.3125 251.719 36.875C250.469 36.375 249.156 36.1562 247.781 36.2188C246.469 36.2188 244.938 36.5312 243.188 37.1562ZM284.531 36.0312C284.844 35.6562 285.031 34.9688 285.094 33.9688C285.219 32.9062 285.469 31.7188 285.844 30.4062C286.281 29.0938 287 27.7188 288 26.2812C289 24.8438 290.625 23.5 292.875 22.25C295.062 21 297.188 20.25 299.25 20C301.312 19.75 303.281 19.8438 305.156 20.2812C307.031 20.7188 308.781 21.4062 310.406 22.3438C312.094 23.2812 313.625 24.3125 315 25.4375C315.938 26.1875 316.688 27.2812 317.25 28.7188C317.812 30.0938 318.25 31.6562 318.562 33.4062C318.875 35.1562 319.094 37 319.219 38.9375C319.406 40.8125 319.531 42.6562 319.594 44.4688C319.656 46.2188 319.688 47.8438 319.688 49.3438C319.75 50.7812 319.875 51.9688 320.062 52.9062C320.312 54.2812 320.75 55.4688 321.375 56.4688C322 57.4062 322.688 58.2188 323.438 58.9062C324.188 59.5312 324.938 60.0312 325.688 60.4062C326.438 60.7812 327.094 61.0625 327.656 61.25C328.031 61.4375 328.375 61.5625 328.688 61.625C329.312 61.875 329.75 61.875 330 61.625C329.625 62.5 329.281 63.25 328.969 63.875C328.656 64.5 328.406 65.0312 328.219 65.4688C327.969 65.9688 327.75 66.375 327.562 66.6875C327.375 67.0625 327.156 67.4062 326.906 67.7188C326.719 68.0312 326.469 68.375 326.156 68.75C325.844 69.125 325.531 69.5312 325.219 69.9688C324.406 69.6562 323.625 69.2812 322.875 68.8438C322.188 68.4062 321.562 68 321 67.625C320.312 67.1875 319.688 66.75 319.125 66.3125C318.562 65.875 318.031 65.375 317.531 64.8125C317.094 64.3125 316.625 63.7812 316.125 63.2188C315.688 62.6562 315.312 62.0312 315 61.3438C314.625 62.1562 313.719 63.3125 312.281 64.8125C310.906 66.3125 309.094 67.6875 306.844 68.9375C304.594 70.125 301.969 70.9688 298.969 71.4688C296.031 71.9688 292.781 71.625 289.219 70.4375C287.656 69.9375 286.188 69.2188 284.812 68.2812C283.438 67.2812 282.25 66.0938 281.25 64.7188C280.312 63.3438 279.625 61.7812 279.188 60.0312C278.812 58.2188 278.844 56.2188 279.281 54.0312C279.719 51.8438 280.5 50 281.625 48.5C282.75 47 284.094 45.7812 285.656 44.8438C287.219 43.9062 288.969 43.1875 290.906 42.6875C292.844 42.1875 294.844 41.8438 296.906 41.6562C298.531 41.5938 300.156 41.6875 301.781 41.9375C303.156 42.1875 304.594 42.6562 306.094 43.3438C307.594 43.9688 308.875 44.9375 309.938 46.25C309.875 42.9375 309.75 40.3125 309.562 38.375C309.438 36.375 309.312 34.8438 309.188 33.7812C308.938 32.5312 308.719 31.6562 308.531 31.1562C308.219 30.7188 307.875 30.2188 307.5 29.6562C307.188 29.0938 306.781 28.5938 306.281 28.1562C305.781 27.6562 305.156 27.25 304.406 26.9375C303.656 26.625 302.781 26.5 301.781 26.5625C300.719 26.625 299.875 26.9062 299.25 27.4062C298.625 27.9062 298.125 28.5 297.75 29.1875C297.438 29.8125 297.25 30.5 297.188 31.25C297.125 32 297.156 32.6562 297.281 33.2188C297.406 33.5938 297.594 34 297.844 34.4375C298.094 34.8125 298.438 35.2188 298.875 35.6562C299.312 36.0938 299.906 36.4688 300.656 36.7812C299.219 36.9688 297.938 37.125 296.812 37.25C295.688 37.3125 294.719 37.4062 293.906 37.5312C292.969 37.6562 292.156 37.75 291.469 37.8125C290.781 37.875 289.969 38 289.031 38.1875C288.219 38.3125 287.219 38.4688 286.031 38.6562C284.844 38.8438 283.469 39.0938 281.906 39.4062C282.281 38.9688 282.625 38.5625 282.938 38.1875C283.25 37.75 283.531 37.375 283.781 37.0625C284.031 36.6875 284.281 36.3438 284.531 36.0312ZM298.594 47.1875C297.469 47.25 296.344 47.5312 295.219 48.0312C294.094 48.4688 293.094 49.125 292.219 50C291.344 50.8125 290.594 51.7812 289.969 52.9062C289.406 53.9688 289.125 55.1562 289.125 56.4688C289.125 57.7812 289.438 58.9375 290.062 59.9375C290.75 60.875 291.625 61.6562 292.688 62.2812C293.812 62.9062 295 63.2812 296.25 63.4062C297.562 63.5312 298.844 63.4062 300.094 63.0312C301.281 62.5938 302.406 61.9062 303.469 60.9688C304.531 59.9688 305.438 58.9062 306.188 57.7812C306.938 56.5938 307.469 55.4375 307.781 54.3125C308.094 53.125 308.125 52.1562 307.875 51.4062C307.375 49.7812 306.25 48.6562 304.5 48.0312C302.75 47.3438 300.781 47.0625 298.594 47.1875ZM294.562 10.3438L304.5 0.6875L309.188 5.65625L297 13.9062L294.562 10.3438ZM357.938 6.78125C359.938 6.84375 361.688 6.875 363.188 6.875C364.688 6.8125 365.906 6.78125 366.844 6.78125H369.562C370.25 6.71875 371.094 6.6875 372.094 6.6875C372.969 6.6875 374.031 6.6875 375.281 6.6875C376.531 6.6875 377.969 6.71875 379.594 6.78125C380.094 8.53125 380.656 10.25 381.281 11.9375C381.969 13.5625 382.562 15.0312 383.062 16.3438C383.688 17.9062 384.312 19.375 384.938 20.75C385.562 22.125 386.312 23.7812 387.188 25.7188C387.938 27.3438 388.844 29.3438 389.906 31.7188C390.969 34.0312 392.219 36.6875 393.656 39.6875C394.344 37.75 394.969 35.9688 395.531 34.3438C396.156 32.7188 396.688 31.3125 397.125 30.125C397.625 28.75 398.031 27.5 398.344 26.375C398.656 25.25 399 23.875 399.375 22.25C399.688 20.875 400.031 19.2188 400.406 17.2812C400.844 15.3438 401.281 13.0938 401.719 10.5312C403.531 10.5312 405.156 10.5312 406.594 10.5312C408.031 10.5312 409.281 10.5 410.344 10.4375C411.531 10.4375 412.594 10.4062 413.531 10.3438C414.531 10.3438 415.875 10.2813 417.562 10.1562C419 10.0312 420.906 9.9375 423.281 9.875C425.719 9.75 428.719 9.59375 432.281 9.40625C430.969 10.3438 429.906 11.2812 429.094 12.2188C428.344 13.0938 427.75 13.875 427.312 14.5625C426.812 15.375 426.5 16.1562 426.375 16.9062C426.25 17.5312 426.125 18.9688 426 21.2188C425.938 23.4688 425.844 26.1562 425.719 29.2812C425.656 32.3438 425.594 35.625 425.531 39.125C425.531 42.625 425.562 45.9375 425.625 49.0625C425.688 52.1875 425.781 54.9062 425.906 57.2188C426.094 59.4688 426.344 60.9062 426.656 61.5312C427.094 62.2812 427.688 63.1562 428.438 64.1562C429.125 65.0312 430 66.0312 431.062 67.1562C432.188 68.2812 433.656 69.5312 435.469 70.9062C432.594 71.0312 430.188 71.125 428.25 71.1875C426.375 71.25 424.812 71.3125 423.562 71.375C422.125 71.4375 420.969 71.4688 420.094 71.4688C419.156 71.4688 417.875 71.5 416.25 71.5625C414.812 71.625 412.906 71.7188 410.531 71.8438C408.156 71.9062 405.094 72.0312 401.344 72.2188C402.219 71.2188 403.031 70.2188 403.781 69.2188C404.531 68.2188 405.156 67.3125 405.656 66.5C406.281 65.5625 406.812 64.6562 407.25 63.7812C407.688 62.5938 408.031 60.4375 408.281 57.3125C408.531 54.625 408.719 50.7812 408.844 45.7812C408.969 40.7188 408.969 33.9375 408.844 25.4375C407.656 27.375 406.594 29.3125 405.656 31.25C404.781 33.125 404 34.8438 403.312 36.4062C402.562 38.2188 401.875 39.9688 401.25 41.6562C400.625 43.4062 399.969 45.3438 399.281 47.4688C398.656 49.2812 397.906 51.4375 397.031 53.9375C396.219 56.4375 395.281 59.1875 394.219 62.1875L390.656 62.375C390.156 59.875 389.656 57.625 389.156 55.625C388.656 53.5625 388.156 51.8125 387.656 50.375C387.094 48.6875 386.531 47.1875 385.969 45.875C385.344 44.5625 384.656 43.0938 383.906 41.4688C383.219 40.0938 382.375 38.4688 381.375 36.5938C380.438 34.7188 379.344 32.625 378.094 30.3125C377.469 36.6875 377.094 41.875 376.969 45.875C376.844 49.8125 376.844 52.875 376.969 55.0625C377.094 57.6875 377.281 59.5938 377.531 60.7812C377.906 61.8438 378.5 63.0312 379.312 64.3438C380 65.4688 380.938 66.8125 382.125 68.375C383.375 69.875 384.969 71.5625 386.906 73.4375C385.531 73.4375 384.094 73.4375 382.594 73.4375C381.094 73.4375 379.719 73.4688 378.469 73.5312C376.969 73.5938 375.5 73.625 374.062 73.625C372.562 73.6875 370.812 73.7812 368.812 73.9062C367.062 74.0312 364.969 74.1562 362.531 74.2812C360.094 74.4062 357.281 74.625 354.094 74.9375C355.469 74.0625 356.594 73.2188 357.469 72.4062C358.344 71.5312 359.031 70.75 359.531 70.0625C360.156 69.25 360.625 68.4375 360.938 67.625C361.125 67.125 361.281 66.0312 361.406 64.3438C361.594 62.6562 361.75 60.5938 361.875 58.1562C362.062 55.7188 362.188 53 362.25 50C362.375 47 362.469 43.9688 362.531 40.9062C362.656 37.7812 362.75 34.75 362.812 31.8125C362.875 28.8125 362.906 26.125 362.906 23.75C362.969 21.3125 363 19.2812 363 17.6562C363 16.0312 363 15 363 14.5625C362.812 13.625 362.531 12.6875 362.156 11.75C361.844 10.9375 361.344 10.0938 360.656 9.21875C359.969 8.34375 359.062 7.53125 357.938 6.78125ZM459.656 32C461.281 32 462.969 32.3125 464.719 32.9375C466.469 33.5 468.156 34.25 469.781 35.1875C471.406 36.0625 472.875 37.0312 474.188 38.0938C475.562 39.0938 476.688 40.0625 477.562 41C479.125 42.6875 480.188 44.9688 480.75 47.8438C481.375 50.6562 481.5 53.5625 481.125 56.5625C480.75 59.5 479.875 62.2812 478.5 64.9062C477.125 67.5312 475.219 69.4688 472.781 70.7188C471.031 71.5938 469.312 72.2812 467.625 72.7812C465.938 73.2812 464.312 73.6562 462.75 73.9062C461.188 74.1562 459.719 74.2812 458.344 74.2812C456.969 74.2812 455.781 74.25 454.781 74.1875C452.906 74.0625 450.938 73.4062 448.875 72.2188C446.875 71.0312 444.969 69.5625 443.156 67.8125C441.406 66.0625 439.906 64.1562 438.656 62.0938C437.406 59.9688 436.656 57.9688 436.406 56.0938C436.031 53.5312 435.969 50.8438 436.219 48.0312C436.469 45.2188 437.375 42.625 438.938 40.25C440.562 37.875 443 35.9062 446.25 34.3438C449.562 32.7812 454.031 32 459.656 32ZM456.562 68.375C457.25 68.5 458.188 68.3438 459.375 67.9062C460.562 67.4062 461.719 66.625 462.844 65.5625C464.031 64.5 465.062 63.1562 465.938 61.5312C466.875 59.8438 467.438 57.8125 467.625 55.4375C467.812 53.125 467.812 51 467.625 49.0625C467.5 47.125 467.219 45.4375 466.781 44C466.344 42.5 465.844 41.2812 465.281 40.3438C464.719 39.4062 464.125 38.75 463.5 38.375C462.438 37.8125 461.156 37.375 459.656 37.0625C458.156 36.6875 456.875 36.75 455.812 37.25C455.312 37.5 454.688 38.0312 453.938 38.8438C453.188 39.6562 452.438 40.6875 451.688 41.9375C450.938 43.125 450.25 44.5 449.625 46.0625C449.062 47.625 448.656 49.25 448.406 50.9375C448.156 52.625 448.094 54.4375 448.219 56.375C448.406 58.3125 448.812 60.1562 449.438 61.9062C450.062 63.5938 450.938 65.0625 452.062 66.3125C453.25 67.5 454.75 68.1875 456.562 68.375ZM484.688 29.0938C485.875 29.1562 486.938 29.1875 487.875 29.1875C488.875 29.125 489.719 29.0625 490.406 29C491.219 28.9375 491.938 28.875 492.562 28.8125C493.5 28.6875 494.469 28.5312 495.469 28.3438C496.344 28.2188 497.25 28.0625 498.188 27.875C499.188 27.625 500.156 27.3438 501.094 27.0312C500.719 27.9688 500.406 28.7812 500.156 29.4688C499.906 30.1562 499.719 30.75 499.594 31.25C499.406 31.8125 499.312 32.2812 499.312 32.6562C499.25 33.0938 499.219 33.625 499.219 34.25C499.156 35.3125 499.156 37.0312 499.219 39.4062C502.469 36.5938 505.188 34.4062 507.375 32.8438C509.625 31.2812 511.406 30.0625 512.719 29.1875C514.281 28.1875 515.5 27.5312 516.375 27.2188C518.688 26.8438 520.719 27.375 522.469 28.8125C523.219 29.4375 523.938 30.2812 524.625 31.3438C525.312 32.3438 525.906 33.6875 526.406 35.375C526.906 37.0625 527.281 39.0938 527.531 41.4688C527.781 43.7812 527.812 46.5625 527.625 49.8125C526.312 49.9375 525.125 50.0625 524.062 50.1875C523.062 50.3125 522.219 50.4062 521.531 50.4688C520.719 50.5938 519.969 50.6562 519.281 50.6562L516.75 50.9375C515.875 51.0625 514.781 51.1875 513.469 51.3125C512.219 51.375 510.688 51.5 508.875 51.6875C511.5 49.5625 513.188 47.7188 513.938 46.1562C514.75 44.5312 515.094 43.1875 514.969 42.125C514.844 40.9375 514.281 39.9062 513.281 39.0312C512.094 38.3438 510.812 38.0938 509.438 38.2812C508.25 38.4062 506.875 38.9375 505.312 39.875C503.75 40.8125 502.094 42.5625 500.344 45.125C500.469 49.125 500.594 52.4375 500.719 55.0625C500.906 57.6875 501.062 59.8125 501.188 61.4375C501.375 63.3125 501.531 64.7812 501.656 65.8438C501.844 66.7812 502.219 67.7812 502.781 68.8438C503.219 69.7188 503.844 70.6875 504.656 71.75C505.469 72.8125 506.531 73.875 507.844 74.9375C505.094 74.8125 502.844 74.8125 501.094 74.9375C500.031 75 499.094 75.0625 498.281 75.125C497.406 75.25 496.469 75.375 495.469 75.5C494.594 75.625 493.562 75.75 492.375 75.875C491.25 76.0625 490 76.25 488.625 76.4375C489.125 75.75 489.531 74.9375 489.844 74C490.156 73.125 490.406 72.2812 490.594 71.4688C490.844 70.5312 491.031 69.5625 491.156 68.5625C491.219 67.6875 491.25 66.375 491.25 64.625C491.312 62.875 491.281 60.9062 491.156 58.7188C491.094 56.4688 491 54.1562 490.875 51.7812C490.75 49.3438 490.594 47.0625 490.406 44.9375C490.219 42.8125 490 40.9688 489.75 39.4062C489.562 37.7812 489.344 36.6562 489.094 36.0312C488.781 35.2812 488.406 34.5312 487.969 33.7812C487.594 33.0938 487.125 32.375 486.562 31.625C486 30.8125 485.375 29.9688 484.688 29.0938ZM555.938 58.9062C557.688 58.9062 559.312 58.7188 560.812 58.3438C562.062 58.0312 563.25 57.5312 564.375 56.8438C565.562 56.0938 566.344 55 566.719 53.5625C567.969 53.8125 569.031 54.0312 569.906 54.2188C570.781 54.3438 571.531 54.4688 572.156 54.5938C572.844 54.7812 573.438 54.9062 573.938 54.9688C574.438 55.0938 575.031 55.2188 575.719 55.3438C576.344 55.4688 577.094 55.625 577.969 55.8125C578.906 55.9375 580 56.125 581.25 56.375C580.312 56.25 579.344 56.3438 578.344 56.6562C577.406 56.9688 576.5 57.3125 575.625 57.6875C574.625 58.125 573.688 58.6562 572.812 59.2812C572.25 59.6562 571.594 60.2188 570.844 60.9688C570.156 61.7188 569.156 62.4375 567.844 63.125C566.531 63.8125 564.781 64.4062 562.594 64.9062C560.469 65.3438 557.719 65.5 554.344 65.375C550.281 65.25 546.875 64.5312 544.125 63.2188C541.375 61.8438 539.156 60.1875 537.469 58.25C535.781 56.25 534.562 54.0938 533.812 51.7812C533.062 49.4688 532.656 47.3125 532.594 45.3125C532.531 43.3125 533.125 41.2188 534.375 39.0312C535.625 36.8438 537.375 34.8438 539.625 33.0312C541.938 31.2188 544.719 29.75 547.969 28.625C551.219 27.4375 554.781 26.8438 558.656 26.8438C560.906 26.8438 562.969 27.125 564.844 27.6875C566.781 28.1875 568.531 28.875 570.094 29.75C571.719 30.625 573.125 31.625 574.312 32.75C575.5 33.8125 576.5 34.9062 577.312 36.0312C578.125 37.2188 578.812 38.4688 579.375 39.7812C579.875 40.9062 580.281 42.1875 580.594 43.625C580.906 45.0625 581 46.5312 580.875 48.0312C576.125 48.1562 572.281 48.25 569.344 48.3125C566.469 48.375 564.219 48.4062 562.594 48.4062H558.375H555.188C554.062 48.4062 552.594 48.4375 550.781 48.5C548.969 48.5625 546.75 48.6562 544.125 48.7812C544.438 51.2812 545.219 53.2188 546.469 54.5938C547.781 55.9062 549.156 56.9062 550.594 57.5938C552.219 58.3438 554 58.7812 555.938 58.9062ZM547.5 42.0312C549.5 42.1562 551.156 42.25 552.469 42.3125C553.844 42.375 554.969 42.4375 555.844 42.5C556.781 42.5625 557.531 42.5938 558.094 42.5938H560.438C562 42.5938 564.906 42.5 569.156 42.3125C568.969 39.5625 568.375 37.4688 567.375 36.0312C566.438 34.5938 565.438 33.5312 564.375 32.8438C563.125 32.0938 561.75 31.6562 560.25 31.5312C556.188 31.5938 553.156 32.4375 551.156 34.0625C549.219 35.6875 548 38.3438 547.5 42.0312ZM583.5 14.9375C585.375 15.125 586.938 15.2812 588.188 15.4062C589.5 15.5312 590.562 15.625 591.375 15.6875C592.312 15.75 593.062 15.7812 593.625 15.7812C594.188 15.8438 594.938 15.8438 595.875 15.7812C596.688 15.7188 597.75 15.6562 599.062 15.5938C600.375 15.4688 602.031 15.2812 604.031 15.0312C603.594 15.6562 603.25 16.2188 603 16.7188C602.75 17.1562 602.531 17.5625 602.344 17.9375L601.781 19.0625C601.656 19.4375 601.531 19.8125 601.406 20.1875C601.281 20.5 601.156 20.875 601.031 21.3125C600.969 21.75 600.906 22.2188 600.844 22.7188H615.281L613.969 30.3125L600.75 29.5625C600.438 32.75 600.219 35.2188 600.094 36.9688C599.969 38.7188 599.844 40 599.719 40.8125L599.531 42.5C599.344 44.875 599.156 47.4688 598.969 50.2812C598.781 53.0312 598.719 55.5938 598.781 57.9688C598.844 60.3438 599.062 62.3438 599.438 63.9688C599.812 65.5312 600.469 66.3125 601.406 66.3125C602.344 66.3125 603.219 66.0625 604.031 65.5625C604.844 65.0625 605.531 64.4688 606.094 63.7812C606.719 63.0938 607.188 62.4062 607.5 61.7188C607.812 60.9688 607.969 60.4062 607.969 60.0312C607.969 59.6562 607.875 59.2188 607.688 58.7188C607.375 57.7812 606.812 56.5938 606 55.1562C607.812 55.5938 609.406 56.0312 610.781 56.4688C611.469 56.7188 612.094 56.9688 612.656 57.2188C613.281 57.4688 614 57.75 614.812 58.0625C615.5 58.375 616.375 58.75 617.438 59.1875C618.5 59.625 619.75 60.1562 621.188 60.7812C619.812 61.0312 618.812 61.4375 618.188 62C617.812 62.25 617.531 62.5312 617.344 62.8438C616.906 63.5312 616.406 64.4688 615.844 65.6562C615.281 66.7812 614.438 67.9062 613.312 69.0312C612.188 70.1562 610.656 71.1562 608.719 72.0312C606.844 72.9062 604.312 73.4062 601.125 73.5312C597.812 73.6562 595.281 73.0938 593.531 71.8438C591.844 70.5938 590.594 69.1562 589.781 67.5312C589.031 65.8438 588.594 64.1875 588.469 62.5625C588.344 60.9375 588.25 59.8438 588.188 59.2812C588.125 58.7188 588.125 57.3125 588.188 55.0625C588.25 52.8125 588.344 50.3438 588.469 47.6562C588.594 44.9062 588.719 42.2812 588.844 39.7812C588.969 37.2188 589.031 35.3438 589.031 34.1562C589.031 33.5312 589.062 32.875 589.125 32.1875C589.125 31.625 589.125 31.0312 589.125 30.4062C589.188 29.7188 589.219 29.0625 589.219 28.4375L575.625 28.3438L575.062 23L588.75 23.375C588.625 22.6875 588.469 22.0625 588.281 21.5C588.156 20.875 588.031 20.375 587.906 20C587.719 19.5625 587.531 19.1875 587.344 18.875C587.094 18.5625 586.812 18.2188 586.5 17.8438C586.188 17.5312 585.781 17.125 585.281 16.625C584.781 16.125 584.188 15.5625 583.5 14.9375ZM616.219 14.9375C618.094 15.125 619.656 15.2812 620.906 15.4062C622.219 15.5312 623.281 15.625 624.094 15.6875C625.031 15.75 625.781 15.7812 626.344 15.7812C626.906 15.8438 627.656 15.8438 628.594 15.7812C629.406 15.7188 630.469 15.6562 631.781 15.5938C633.094 15.4688 634.75 15.2812 636.75 15.0312C636.312 15.6562 635.969 16.2188 635.719 16.7188C635.469 17.1562 635.25 17.5625 635.062 17.9375L634.5 19.0625C634.375 19.4375 634.25 19.8125 634.125 20.1875C634 20.5 633.875 20.875 633.75 21.3125C633.688 21.75 633.625 22.2188 633.562 22.7188H648L646.688 30.3125L633.469 29.5625C633.156 32.75 632.938 35.2188 632.812 36.9688C632.688 38.7188 632.562 40 632.438 40.8125L632.25 42.5C632.062 44.875 631.875 47.4688 631.688 50.2812C631.5 53.0312 631.438 55.5938 631.5 57.9688C631.562 60.3438 631.781 62.3438 632.156 63.9688C632.531 65.5312 633.188 66.3125 634.125 66.3125C635.062 66.3125 635.938 66.0625 636.75 65.5625C637.562 65.0625 638.25 64.4688 638.812 63.7812C639.438 63.0938 639.906 62.4062 640.219 61.7188C640.531 60.9688 640.688 60.4062 640.688 60.0312C640.688 59.6562 640.594 59.2188 640.406 58.7188C640.094 57.7812 639.531 56.5938 638.719 55.1562C640.531 55.5938 642.125 56.0312 643.5 56.4688C644.188 56.7188 644.812 56.9688 645.375 57.2188C646 57.4688 646.719 57.75 647.531 58.0625C648.219 58.375 649.094 58.75 650.156 59.1875C651.219 59.625 652.469 60.1562 653.906 60.7812C652.531 61.0312 651.531 61.4375 650.906 62C650.531 62.25 650.25 62.5312 650.062 62.8438C649.625 63.5312 649.125 64.4688 648.562 65.6562C648 66.7812 647.156 67.9062 646.031 69.0312C644.906 70.1562 643.375 71.1562 641.438 72.0312C639.562 72.9062 637.031 73.4062 633.844 73.5312C630.531 73.6562 628 73.0938 626.25 71.8438C624.562 70.5938 623.312 69.1562 622.5 67.5312C621.75 65.8438 621.312 64.1875 621.188 62.5625C621.062 60.9375 620.969 59.8438 620.906 59.2812C620.844 58.7188 620.844 57.3125 620.906 55.0625C620.969 52.8125 621.062 50.3438 621.188 47.6562C621.312 44.9062 621.438 42.2812 621.562 39.7812C621.688 37.2188 621.75 35.3438 621.75 34.1562C621.75 33.5312 621.781 32.875 621.844 32.1875C621.844 31.625 621.844 31.0312 621.844 30.4062C621.906 29.7188 621.938 29.0625 621.938 28.4375L608.344 28.3438L607.781 23L621.469 23.375C621.344 22.6875 621.188 22.0625 621 21.5C620.875 20.875 620.75 20.375 620.625 20C620.438 19.5625 620.25 19.1875 620.062 18.875C619.812 18.5625 619.531 18.2188 619.219 17.8438C618.906 17.5312 618.5 17.125 618 16.625C617.5 16.125 616.906 15.5625 616.219 14.9375ZM650.062 32.0938L667.312 32.2812C666.312 36.0938 665.562 39.3438 665.062 42.0312C664.625 44.7188 664.344 46.9688 664.219 48.7812C663.969 50.8438 663.906 52.5938 664.031 54.0312C664.219 55.3438 664.531 56.75 664.969 58.25C665.344 59.5 665.906 60.9375 666.656 62.5625C667.406 64.1875 668.406 65.8125 669.656 67.4375C668.906 67.1875 668.094 67 667.219 66.875C666.344 66.75 665.531 66.6562 664.781 66.5938C663.906 66.5312 663.031 66.5312 662.156 66.5938C661.281 66.6562 660.312 66.75 659.25 66.875C658.375 67 657.312 67.1562 656.062 67.3438C654.812 67.5312 653.5 67.7812 652.125 68.0938C653.062 65.2812 653.781 62.8438 654.281 60.7812C654.844 58.7188 655.25 57 655.5 55.625C655.75 54 655.906 52.6875 655.969 51.6875C655.969 50.4375 655.969 49.0312 655.969 47.4688C655.969 45.8438 655.969 44.2812 655.969 42.7812C655.969 41.2812 655.938 39.9688 655.875 38.8438C655.812 37.6562 655.688 36.9062 655.5 36.5938L654.562 35.6562C654.188 35.3438 653.625 34.9062 652.875 34.3438C652.188 33.7188 651.25 32.9688 650.062 32.0938ZM656.719 17.6562C658.031 16.9688 659.344 16.7812 660.656 17.0938C662.031 17.4062 663.094 18 663.844 18.875C664.594 19.75 664.844 20.7812 664.594 21.9688C664.406 23.1562 663.406 24.3125 661.594 25.4375C659.781 26.5 658.188 26.875 656.812 26.5625C655.438 26.25 654.469 25.5938 653.906 24.5938C653.344 23.5938 653.25 22.4375 653.625 21.125C654 19.75 655.031 18.5938 656.719 17.6562Z" fill="#FFF7F7"/>
</svg>
