<svg width="659" height="95" viewBox="0 0 659 95" fill="none" xmlns="http://www.w3.org/2000/svg">
<path d="M1.03125 6.15625C3.21875 6.46875 5.125 6.71875 6.75 6.90625C8.375 7.09375 9.71875 7.25 10.7812 7.375C12.0312 7.5 13.0938 7.59375 13.9688 7.65625C14.9688 7.78125 16.1875 7.71875 17.625 7.46875C19.125 7.21875 20.7188 6.96875 22.4062 6.71875C24.0938 6.40625 25.8438 6.15625 27.6562 5.96875C29.4688 5.78125 31.2188 5.78125 32.9062 5.96875C34.0312 6.09375 35.4688 6.34375 37.2188 6.71875C38.9688 7.09375 40.8125 7.6875 42.75 8.5C44.75 9.3125 46.75 10.375 48.75 11.6875C50.75 13 52.5625 14.6562 54.1875 16.6562C55.8125 18.6562 57.1562 21.0312 58.2188 23.7812C59.2812 26.5312 59.875 29.75 60 33.4375C60.1875 38.9375 59.6875 43.9375 58.5 48.4375C57.3125 52.9375 55.4688 56.7812 52.9688 59.9688C50.5312 63.1562 47.4375 65.6562 43.6875 67.4688C39.9375 69.2812 35.5625 70.2812 30.5625 70.4688C26.75 70.7812 23 71.0625 19.3125 71.3125C17.75 71.4375 16.0938 71.5312 14.3438 71.5938C12.6562 71.6562 10.9688 71.7188 9.28125 71.7812C7.59375 71.7812 5.96875 71.75 4.40625 71.6875C2.84375 71.625 1.40625 71.5312 0.09375 71.4062C1.53125 70.7188 2.6875 70.0312 3.5625 69.3438C4.5 68.6562 5.21875 68.0625 5.71875 67.5625C6.28125 66.9375 6.6875 66.375 6.9375 65.875C7.0625 65.1875 7.25 63.8438 7.5 61.8438C7.6875 60.1562 7.9375 57.75 8.25 54.625C8.5625 51.5 8.9375 47.25 9.375 41.875L9.9375 35.2188C10.25 31.0938 10.375 27.7188 10.3125 25.0938C10.3125 22.4688 10.25 20.4062 10.125 18.9062C9.9375 17.1562 9.6875 15.875 9.375 15.0625C9.125 14.375 8.65625 13.5625 7.96875 12.625C7.34375 11.875 6.46875 10.9688 5.34375 9.90625C4.28125 8.78125 2.84375 7.53125 1.03125 6.15625ZM20.8125 40.6562C20.9375 46.2188 21.2188 50.5 21.6562 53.5C22.1562 56.4375 22.6875 58.625 23.25 60.0625C23.9375 61.6875 24.6875 62.6562 25.5 62.9688C26.6875 62.9688 28.0312 62.4688 29.5312 61.4688C31.0312 60.4062 32.5 58.8125 33.9375 56.6875C35.4375 54.5625 36.7812 51.9062 37.9688 48.7188C39.2188 45.5312 40.125 41.8125 40.6875 37.5625C41.25 33.3125 41.0938 29.5625 40.2188 26.3125C39.3438 23.0625 38.1875 20.3438 36.75 18.1562C35.3125 15.9062 33.8438 14.2188 32.3438 13.0938C30.8438 11.9063 29.7188 11.3125 28.9688 11.3125C28.0938 11.3125 27.3125 11.5625 26.625 12.0625C25.9375 12.5 24.9688 13.5312 23.7188 15.1562C23.0938 16.0312 22.5312 17.2812 22.0312 18.9062C21.5938 20.3438 21.2188 22.25 20.9062 24.625C20.5938 27 20.5 30.0625 20.625 33.8125L20.8125 40.6562ZM71.3438 35.0312C71.6562 34.6562 71.8438 33.9688 71.9062 32.9688C72.0312 31.9062 72.2812 30.7188 72.6562 29.4062C73.0938 28.0938 73.8125 26.7188 74.8125 25.2812C75.8125 23.8438 77.4375 22.5 79.6875 21.25C81.875 20 84 19.25 86.0625 19C88.125 18.75 90.0938 18.8438 91.9688 19.2812C93.8438 19.7188 95.5938 20.4062 97.2188 21.3438C98.9062 22.2812 100.438 23.3125 101.812 24.4375C102.75 25.1875 103.5 26.2812 104.062 27.7188C104.625 29.0938 105.062 30.6562 105.375 32.4062C105.688 34.1562 105.906 36 106.031 37.9375C106.219 39.8125 106.344 41.6562 106.406 43.4688C106.469 45.2188 106.5 46.8438 106.5 48.3438C106.562 49.7812 106.688 50.9688 106.875 51.9062C107.125 53.2812 107.562 54.4688 108.188 55.4688C108.812 56.4062 109.5 57.2188 110.25 57.9062C111 58.5312 111.75 59.0312 112.5 59.4062C113.25 59.7812 113.906 60.0625 114.469 60.25C114.844 60.4375 115.188 60.5625 115.5 60.625C116.125 60.875 116.562 60.875 116.812 60.625C116.438 61.5 116.094 62.25 115.781 62.875C115.469 63.5 115.219 64.0312 115.031 64.4688C114.781 64.9688 114.562 65.375 114.375 65.6875C114.188 66.0625 113.969 66.4062 113.719 66.7188C113.531 67.0312 113.281 67.375 112.969 67.75C112.656 68.125 112.344 68.5312 112.031 68.9688C111.219 68.6562 110.438 68.2812 109.688 67.8438C109 67.4062 108.375 67 107.812 66.625C107.125 66.1875 106.5 65.75 105.938 65.3125C105.375 64.875 104.844 64.375 104.344 63.8125C103.906 63.3125 103.438 62.7812 102.938 62.2188C102.5 61.6562 102.125 61.0312 101.812 60.3438C101.438 61.1562 100.531 62.3125 99.0938 63.8125C97.7188 65.3125 95.9062 66.6875 93.6562 67.9375C91.4062 69.125 88.7812 69.9688 85.7812 70.4688C82.8438 70.9688 79.5938 70.625 76.0312 69.4375C74.4688 68.9375 73 68.2188 71.625 67.2812C70.25 66.2812 69.0625 65.0938 68.0625 63.7188C67.125 62.3438 66.4375 60.7812 66 59.0312C65.625 57.2188 65.6562 55.2188 66.0938 53.0312C66.5312 50.8438 67.3125 49 68.4375 47.5C69.5625 46 70.9062 44.7812 72.4688 43.8438C74.0312 42.9062 75.7812 42.1875 77.7188 41.6875C79.6562 41.1875 81.6562 40.8438 83.7188 40.6562C85.3438 40.5938 86.9688 40.6875 88.5938 40.9375C89.9688 41.1875 91.4062 41.6562 92.9062 42.3438C94.4062 42.9688 95.6875 43.9375 96.75 45.25C96.6875 41.9375 96.5625 39.3125 96.375 37.375C96.25 35.375 96.125 33.8438 96 32.7812C95.75 31.5312 95.5312 30.6562 95.3438 30.1562C95.0312 29.7188 94.6875 29.2188 94.3125 28.6562C94 28.0938 93.5938 27.5938 93.0938 27.1562C92.5938 26.6562 91.9688 26.25 91.2188 25.9375C90.4688 25.625 89.5938 25.5 88.5938 25.5625C87.5312 25.625 86.6875 25.9062 86.0625 26.4062C85.4375 26.9062 84.9375 27.5 84.5625 28.1875C84.25 28.8125 84.0625 29.5 84 30.25C83.9375 31 83.9688 31.6562 84.0938 32.2188C84.2188 32.5938 84.4062 33 84.6562 33.4375C84.9062 33.8125 85.25 34.2188 85.6875 34.6562C86.125 35.0938 86.7188 35.4688 87.4688 35.7812C86.0312 35.9688 84.75 36.125 83.625 36.25C82.5 36.3125 81.5312 36.4062 80.7188 36.5312C79.7812 36.6562 78.9688 36.75 78.2812 36.8125C77.5938 36.875 76.7812 37 75.8438 37.1875C75.0312 37.3125 74.0312 37.4688 72.8438 37.6562C71.6562 37.8438 70.2812 38.0938 68.7188 38.4062C69.0938 37.9688 69.4375 37.5625 69.75 37.1875C70.0625 36.75 70.3438 36.375 70.5938 36.0625C70.8438 35.6875 71.0938 35.3438 71.3438 35.0312ZM85.4062 46.1875C84.2812 46.25 83.1562 46.5312 82.0312 47.0312C80.9062 47.4688 79.9062 48.125 79.0312 49C78.1562 49.8125 77.4062 50.7812 76.7812 51.9062C76.2188 52.9688 75.9375 54.1562 75.9375 55.4688C75.9375 56.7812 76.25 57.9375 76.875 58.9375C77.5625 59.875 78.4375 60.6562 79.5 61.2812C80.625 61.9062 81.8125 62.2812 83.0625 62.4062C84.375 62.5312 85.6562 62.4062 86.9062 62.0312C88.0938 61.5938 89.2188 60.9062 90.2812 59.9688C91.3438 58.9688 92.25 57.9062 93 56.7812C93.75 55.5938 94.2812 54.4375 94.5938 53.3125C94.9062 52.125 94.9375 51.1562 94.6875 50.4062C94.1875 48.7812 93.0625 47.6562 91.3125 47.0312C89.5625 46.3438 87.5938 46.0625 85.4062 46.1875ZM111.094 25.0938C112.344 25.2812 113.469 25.4375 114.469 25.5625C115.406 25.625 116.25 25.6875 117 25.75C117.812 25.8125 118.594 25.8438 119.344 25.8438C120.031 25.8438 120.906 25.8125 121.969 25.75C122.844 25.6875 123.969 25.625 125.344 25.5625C126.781 25.4375 128.469 25.2812 130.406 25.0938C130.281 25.3438 130.031 26.125 129.656 27.4375C129.281 28.6875 128.906 30.25 128.531 32.125C128.156 33.9375 127.812 35.9688 127.5 38.2188C127.25 40.4062 127.125 42.5938 127.125 44.7812C127.188 46.9062 127.469 48.9375 127.969 50.875C128.469 52.75 129.281 54.2812 130.406 55.4688C132.781 57.9062 134.875 59.375 136.688 59.875C138.562 60.375 140.188 60.3125 141.562 59.6875C142.938 59.0625 144.062 58.125 144.938 56.875C145.812 55.625 146.438 54.4688 146.812 53.4062C147.75 50.5312 148.312 47.5 148.5 44.3125C148.625 41.5625 148.406 38.5 147.844 35.125C147.281 31.75 145.938 28.3125 143.812 24.8125C145.438 24.9375 146.844 25.0312 148.031 25.0938C149.219 25.1562 150.25 25.2188 151.125 25.2812C152.125 25.3438 153 25.4062 153.75 25.4688C154.438 25.5312 155.25 25.5312 156.188 25.4688C157 25.4688 157.969 25.4375 159.094 25.375C160.281 25.25 161.594 25.125 163.031 25C163.281 31.125 163.5 36.5938 163.688 41.4062C163.875 46.1562 164 50.375 164.062 54.0625C164.188 57.6875 164.25 60.8438 164.25 63.5312C164.25 66.1562 164.25 68.375 164.25 70.1875C164.188 74.5 164 77.3438 163.688 78.7188C163.188 80.6562 162.281 82.5938 160.969 84.5312C159.719 86.4688 158.125 88.1875 156.188 89.6875C154.25 91.25 152 92.4375 149.438 93.25C146.938 94.125 144.188 94.4375 141.188 94.1875C138.25 93.9375 135.906 93.5312 134.156 92.9688C132.469 92.4688 131.125 91.875 130.125 91.1875C129.188 90.5 128.5 89.7812 128.062 89.0312C127.688 88.2812 127.406 87.5 127.219 86.6875C127.031 85.9375 126.844 85.2188 126.656 84.5312C126.469 83.8438 126.094 83.25 125.531 82.75C124.844 82.1875 124.125 81.625 123.375 81.0625C122.688 80.5625 121.938 80.0625 121.125 79.5625C120.375 79.0625 119.625 78.6562 118.875 78.3438L138.844 77.2188C138.281 77.9688 137.875 78.6562 137.625 79.2812C137.375 79.9062 137.219 80.4375 137.156 80.875C137.094 81.4375 137.125 81.9062 137.25 82.2812C137.5 83.0312 137.938 83.8438 138.562 84.7188C139.25 85.6562 140.125 86.375 141.188 86.875C142.25 87.4375 143.5 87.625 144.938 87.4375C146.438 87.25 148.125 86.4688 150 85.0938C151.562 83.9062 152.875 82 153.938 79.375C154.812 77.125 155.5 73.9688 156 69.9062C156.5 65.8438 156.406 60.5 155.719 53.875C154.594 57.75 153.062 60.7188 151.125 62.7812C149.188 64.8438 147.25 66.3438 145.312 67.2812C143.062 68.4062 140.719 69 138.281 69.0625C135.031 68.9375 132.25 68.5312 129.938 67.8438C127.625 67.0938 125.719 66.0938 124.219 64.8438C122.719 63.5938 121.531 62.125 120.656 60.4375C119.844 58.6875 119.25 56.75 118.875 54.625C118.5 52.5 118.312 50.375 118.312 48.25C118.312 46.0625 118.312 44.0312 118.312 42.1562C118.375 40.2812 118.406 38.5938 118.406 37.0938C118.406 35.5312 118.25 34.2812 117.938 33.3438C117.562 32.4062 117.062 31.4688 116.438 30.5312C115.938 29.7188 115.25 28.8438 114.375 27.9062C113.438 26.9062 112.344 25.9688 111.094 25.0938ZM176.062 72.8125C175.125 72.5 174.375 71.9688 173.812 71.2188C173.25 70.4062 172.938 69.5312 172.875 68.5938C172.875 67.6562 173.125 66.75 173.625 65.875C174.188 64.9375 175.031 64.1562 176.156 63.5312C177.969 62.5312 179.562 62.2812 180.938 62.7812C182.312 63.2812 183.281 64.0312 183.844 65.0312C184.156 65.5312 184.375 66.2188 184.5 67.0938C184.688 67.9688 184.75 68.9062 184.688 69.9062C184.688 70.8438 184.594 71.7812 184.406 72.7188C184.219 73.6562 183.938 74.4375 183.562 75.0625C183.25 75.5 182.875 75.9688 182.438 76.4688C182.062 76.9062 181.594 77.3438 181.031 77.7812C180.531 78.2812 179.938 78.6875 179.25 79L175.969 78.7188C176.406 78.2188 176.781 77.7812 177.094 77.4062C177.469 77.0312 177.781 76.6875 178.031 76.375C178.281 76.0625 178.531 75.7812 178.781 75.5312C179.156 75.0938 179.469 74.6562 179.719 74.2188C179.969 73.8438 180.188 73.4375 180.375 73C180.562 72.5625 180.594 72.125 180.469 71.6875C180.031 72.1875 179.562 72.5312 179.062 72.7188C178.562 72.9062 178.094 73 177.656 73C177.094 73 176.562 72.9375 176.062 72.8125ZM227.812 35.0312C228.125 34.6562 228.312 33.9688 228.375 32.9688C228.5 31.9062 228.75 30.7188 229.125 29.4062C229.562 28.0938 230.281 26.7188 231.281 25.2812C232.281 23.8438 233.906 22.5 236.156 21.25C238.344 20 240.469 19.25 242.531 19C244.594 18.75 246.562 18.8438 248.438 19.2812C250.312 19.7188 252.062 20.4062 253.688 21.3438C255.375 22.2812 256.906 23.3125 258.281 24.4375C259.219 25.1875 259.969 26.2812 260.531 27.7188C261.094 29.0938 261.531 30.6562 261.844 32.4062C262.156 34.1562 262.375 36 262.5 37.9375C262.688 39.8125 262.812 41.6562 262.875 43.4688C262.938 45.2188 262.969 46.8438 262.969 48.3438C263.031 49.7812 263.156 50.9688 263.344 51.9062C263.594 53.2812 264.031 54.4688 264.656 55.4688C265.281 56.4062 265.969 57.2188 266.719 57.9062C267.469 58.5312 268.219 59.0312 268.969 59.4062C269.719 59.7812 270.375 60.0625 270.938 60.25C271.312 60.4375 271.656 60.5625 271.969 60.625C272.594 60.875 273.031 60.875 273.281 60.625C272.906 61.5 272.562 62.25 272.25 62.875C271.938 63.5 271.688 64.0312 271.5 64.4688C271.25 64.9688 271.031 65.375 270.844 65.6875C270.656 66.0625 270.438 66.4062 270.188 66.7188C270 67.0312 269.75 67.375 269.438 67.75C269.125 68.125 268.812 68.5312 268.5 68.9688C267.688 68.6562 266.906 68.2812 266.156 67.8438C265.469 67.4062 264.844 67 264.281 66.625C263.594 66.1875 262.969 65.75 262.406 65.3125C261.844 64.875 261.312 64.375 260.812 63.8125C260.375 63.3125 259.906 62.7812 259.406 62.2188C258.969 61.6562 258.594 61.0312 258.281 60.3438C257.906 61.1562 257 62.3125 255.562 63.8125C254.188 65.3125 252.375 66.6875 250.125 67.9375C247.875 69.125 245.25 69.9688 242.25 70.4688C239.312 70.9688 236.062 70.625 232.5 69.4375C230.938 68.9375 229.469 68.2188 228.094 67.2812C226.719 66.2812 225.531 65.0938 224.531 63.7188C223.594 62.3438 222.906 60.7812 222.469 59.0312C222.094 57.2188 222.125 55.2188 222.562 53.0312C223 50.8438 223.781 49 224.906 47.5C226.031 46 227.375 44.7812 228.938 43.8438C230.5 42.9062 232.25 42.1875 234.188 41.6875C236.125 41.1875 238.125 40.8438 240.188 40.6562C241.812 40.5938 243.438 40.6875 245.062 40.9375C246.438 41.1875 247.875 41.6562 249.375 42.3438C250.875 42.9688 252.156 43.9375 253.219 45.25C253.156 41.9375 253.031 39.3125 252.844 37.375C252.719 35.375 252.594 33.8438 252.469 32.7812C252.219 31.5312 252 30.6562 251.812 30.1562C251.5 29.7188 251.156 29.2188 250.781 28.6562C250.469 28.0938 250.062 27.5938 249.562 27.1562C249.062 26.6562 248.438 26.25 247.688 25.9375C246.938 25.625 246.062 25.5 245.062 25.5625C244 25.625 243.156 25.9062 242.531 26.4062C241.906 26.9062 241.406 27.5 241.031 28.1875C240.719 28.8125 240.531 29.5 240.469 30.25C240.406 31 240.438 31.6562 240.562 32.2188C240.688 32.5938 240.875 33 241.125 33.4375C241.375 33.8125 241.719 34.2188 242.156 34.6562C242.594 35.0938 243.188 35.4688 243.938 35.7812C242.5 35.9688 241.219 36.125 240.094 36.25C238.969 36.3125 238 36.4062 237.188 36.5312C236.25 36.6562 235.438 36.75 234.75 36.8125C234.062 36.875 233.25 37 232.312 37.1875C231.5 37.3125 230.5 37.4688 229.312 37.6562C228.125 37.8438 226.75 38.0938 225.188 38.4062C225.562 37.9688 225.906 37.5625 226.219 37.1875C226.531 36.75 226.812 36.375 227.062 36.0625C227.312 35.6875 227.562 35.3438 227.812 35.0312ZM241.875 46.1875C240.75 46.25 239.625 46.5312 238.5 47.0312C237.375 47.4688 236.375 48.125 235.5 49C234.625 49.8125 233.875 50.7812 233.25 51.9062C232.688 52.9688 232.406 54.1562 232.406 55.4688C232.406 56.7812 232.719 57.9375 233.344 58.9375C234.031 59.875 234.906 60.6562 235.969 61.2812C237.094 61.9062 238.281 62.2812 239.531 62.4062C240.844 62.5312 242.125 62.4062 243.375 62.0312C244.562 61.5938 245.688 60.9062 246.75 59.9688C247.812 58.9688 248.719 57.9062 249.469 56.7812C250.219 55.5938 250.75 54.4375 251.062 53.3125C251.375 52.125 251.406 51.1562 251.156 50.4062C250.656 48.7812 249.531 47.6562 247.781 47.0312C246.031 46.3438 244.062 46.0625 241.875 46.1875ZM300.281 29.3125C302.281 29 303.906 28.75 305.156 28.5625C306.469 28.3125 307.531 28.125 308.344 28C309.281 27.8125 310 27.6562 310.5 27.5312C311 27.4062 311.719 27.2188 312.656 26.9688C313.469 26.7188 314.531 26.4375 315.844 26.125C317.156 25.75 318.812 25.25 320.812 24.625C320.312 25.25 319.906 25.8125 319.594 26.3125C319.344 26.75 319.094 27.125 318.844 27.4375C318.594 27.8125 318.375 28.1562 318.188 28.4688C318 28.7812 317.812 29.25 317.625 29.875C317.5 30.375 317.344 31.0938 317.156 32.0312C316.969 32.9062 316.812 34.0625 316.688 35.5C320.062 33.375 323.156 31.7812 325.969 30.7188C328.844 29.6562 331.344 28.9062 333.469 28.4688C335.969 27.9688 338.219 27.7812 340.219 27.9062C342.719 28.0938 345.031 28.6562 347.156 29.5938C349.344 30.4688 351.312 31.5312 353.062 32.7812C354.812 34.0312 356.344 35.4062 357.656 36.9062C358.969 38.4062 360 39.9062 360.75 41.4062C361.25 42.4062 361.562 43.8438 361.688 45.7188C361.875 47.5938 361.688 49.5938 361.125 51.7188C360.562 53.8438 359.562 55.9375 358.125 58C356.75 60 354.781 61.5938 352.219 62.7812C347.781 64.7812 343.375 65.9062 339 66.1562C337.125 66.2812 335.188 66.2188 333.188 65.9688C331.25 65.7188 329.281 65.1875 327.281 64.375C325.344 63.5625 323.469 62.4062 321.656 60.9062C319.844 59.3438 318.188 57.3438 316.688 54.9062C316.188 58.0938 315.812 60.875 315.562 63.25C315.375 65.5625 315.25 67.5 315.188 69.0625C315.125 70.875 315.125 72.4062 315.188 73.6562C315.312 74.9062 315.562 76.25 315.938 77.6875C316.25 78.9375 316.688 80.375 317.25 82C317.875 83.6875 318.656 85.4375 319.594 87.25C319.219 87.125 318.688 87.0312 318 86.9688C317.375 86.9688 316.719 87.0312 316.031 87.1562C315.281 87.2812 314.438 87.4062 313.5 87.5312C312.625 87.7188 311.656 87.9375 310.594 88.1875C309.719 88.375 308.688 88.5938 307.5 88.8438C306.375 89.1562 305.219 89.5 304.031 89.875C304.719 89.0625 305.25 88.125 305.625 87.0625C306.062 86.0625 306.406 85.125 306.656 84.25C306.906 83.1875 307.125 82.125 307.312 81.0625C307.375 80.125 307.469 78.3438 307.594 75.7188C307.781 73.1562 307.938 70.1875 308.062 66.8125C308.188 63.375 308.281 59.7812 308.344 56.0312C308.469 52.2812 308.531 48.8125 308.531 45.625C308.594 42.375 308.594 39.625 308.531 37.375C308.469 35.125 308.344 33.8125 308.156 33.4375C307.906 33 307.438 32.5312 306.75 32.0312C306.188 31.5938 305.375 31.1562 304.312 30.7188C303.312 30.2812 301.969 29.8125 300.281 29.3125ZM322.594 46.375C322.156 47.8125 322.062 49.2188 322.312 50.5938C322.562 51.9688 323.188 53.25 324.188 54.4375C325.25 55.625 326.719 56.6875 328.594 57.625C330.531 58.5 332.938 59.1562 335.812 59.5938C338.688 60.0312 340.875 59.9688 342.375 59.4062C343.875 58.8438 344.969 57.9688 345.656 56.7812C346.406 55.5312 346.906 54.0938 347.156 52.4688C347.406 50.7812 347.719 49.0312 348.094 47.2188C348.469 45.4688 348.406 43.6875 347.906 41.875C347.406 40 346.688 38.3125 345.75 36.8125C344.875 35.3125 343.875 34.0938 342.75 33.1562C341.688 32.1562 340.75 31.6562 339.938 31.6562C338 31.6562 336.094 32.1562 334.219 33.1562C332.344 34.1562 330.625 35.4062 329.062 36.9062C327.5 38.4062 326.125 40.0312 324.938 41.7812C323.812 43.4688 323.031 45 322.594 46.375ZM389.906 57.9062C391.656 57.9062 393.281 57.7188 394.781 57.3438C396.031 57.0312 397.219 56.5312 398.344 55.8438C399.531 55.0938 400.312 54 400.688 52.5625C401.938 52.8125 403 53.0312 403.875 53.2188C404.75 53.3438 405.5 53.4688 406.125 53.5938C406.812 53.7812 407.406 53.9062 407.906 53.9688C408.406 54.0938 409 54.2188 409.688 54.3438C410.312 54.4688 411.062 54.625 411.938 54.8125C412.875 54.9375 413.969 55.125 415.219 55.375C414.281 55.25 413.312 55.3438 412.312 55.6562C411.375 55.9688 410.469 56.3125 409.594 56.6875C408.594 57.125 407.656 57.6562 406.781 58.2812C406.219 58.6562 405.562 59.2188 404.812 59.9688C404.125 60.7188 403.125 61.4375 401.812 62.125C400.5 62.8125 398.75 63.4062 396.562 63.9062C394.438 64.3438 391.688 64.5 388.312 64.375C384.25 64.25 380.844 63.5312 378.094 62.2188C375.344 60.8438 373.125 59.1875 371.438 57.25C369.75 55.25 368.531 53.0938 367.781 50.7812C367.031 48.4688 366.625 46.3125 366.562 44.3125C366.5 42.3125 367.094 40.2188 368.344 38.0312C369.594 35.8438 371.344 33.8438 373.594 32.0312C375.906 30.2188 378.688 28.75 381.938 27.625C385.188 26.4375 388.75 25.8438 392.625 25.8438C394.875 25.8438 396.938 26.125 398.812 26.6875C400.75 27.1875 402.5 27.875 404.062 28.75C405.688 29.625 407.094 30.625 408.281 31.75C409.469 32.8125 410.469 33.9062 411.281 35.0312C412.094 36.2188 412.781 37.4688 413.344 38.7812C413.844 39.9062 414.25 41.1875 414.562 42.625C414.875 44.0625 414.969 45.5312 414.844 47.0312C410.094 47.1562 406.25 47.25 403.312 47.3125C400.438 47.375 398.188 47.4062 396.562 47.4062H392.344H389.156C388.031 47.4062 386.562 47.4375 384.75 47.5C382.938 47.5625 380.719 47.6562 378.094 47.7812C378.406 50.2812 379.188 52.2188 380.438 53.5938C381.75 54.9062 383.125 55.9062 384.562 56.5938C386.188 57.3438 387.969 57.7812 389.906 57.9062ZM381.469 41.0312C383.469 41.1562 385.125 41.25 386.438 41.3125C387.812 41.375 388.938 41.4375 389.812 41.5C390.75 41.5625 391.5 41.5938 392.062 41.5938H394.406C395.969 41.5938 398.875 41.5 403.125 41.3125C402.938 38.5625 402.344 36.4688 401.344 35.0312C400.406 33.5938 399.406 32.5312 398.344 31.8438C397.094 31.0938 395.719 30.6562 394.219 30.5312C390.156 30.5938 387.125 31.4375 385.125 33.0625C383.188 34.6875 381.969 37.3438 381.469 41.0312ZM417.656 28.0938C418.844 28.1562 419.906 28.1875 420.844 28.1875C421.844 28.125 422.688 28.0625 423.375 28C424.188 27.9375 424.906 27.875 425.531 27.8125C426.469 27.6875 427.438 27.5312 428.438 27.3438C429.312 27.2188 430.219 27.0625 431.156 26.875C432.156 26.625 433.125 26.3438 434.062 26.0312C433.688 26.9688 433.375 27.7812 433.125 28.4688C432.875 29.1562 432.688 29.75 432.562 30.25C432.375 30.8125 432.281 31.2812 432.281 31.6562C432.219 32.0938 432.188 32.625 432.188 33.25C432.125 34.3125 432.125 36.0312 432.188 38.4062C435.438 35.5938 438.156 33.4062 440.344 31.8438C442.594 30.2812 444.375 29.0625 445.688 28.1875C447.25 27.1875 448.469 26.5312 449.344 26.2188C451.656 25.8438 453.688 26.375 455.438 27.8125C456.188 28.4375 456.906 29.2812 457.594 30.3438C458.281 31.3438 458.875 32.6875 459.375 34.375C459.875 36.0625 460.25 38.0938 460.5 40.4688C460.75 42.7812 460.781 45.5625 460.594 48.8125C459.281 48.9375 458.094 49.0625 457.031 49.1875C456.031 49.3125 455.188 49.4062 454.5 49.4688C453.688 49.5938 452.938 49.6562 452.25 49.6562L449.719 49.9375C448.844 50.0625 447.75 50.1875 446.438 50.3125C445.188 50.375 443.656 50.5 441.844 50.6875C444.469 48.5625 446.156 46.7188 446.906 45.1562C447.719 43.5312 448.062 42.1875 447.938 41.125C447.812 39.9375 447.25 38.9062 446.25 38.0312C445.062 37.3438 443.781 37.0938 442.406 37.2812C441.219 37.4062 439.844 37.9375 438.281 38.875C436.719 39.8125 435.062 41.5625 433.312 44.125C433.438 48.125 433.562 51.4375 433.688 54.0625C433.875 56.6875 434.031 58.8125 434.156 60.4375C434.344 62.3125 434.5 63.7812 434.625 64.8438C434.812 65.7812 435.188 66.7812 435.75 67.8438C436.188 68.7188 436.812 69.6875 437.625 70.75C438.438 71.8125 439.5 72.875 440.812 73.9375C438.062 73.8125 435.812 73.8125 434.062 73.9375C433 74 432.062 74.0625 431.25 74.125C430.375 74.25 429.438 74.375 428.438 74.5C427.562 74.625 426.531 74.75 425.344 74.875C424.219 75.0625 422.969 75.25 421.594 75.4375C422.094 74.75 422.5 73.9375 422.812 73C423.125 72.125 423.375 71.2812 423.562 70.4688C423.812 69.5312 424 68.5625 424.125 67.5625C424.188 66.6875 424.219 65.375 424.219 63.625C424.281 61.875 424.25 59.9062 424.125 57.7188C424.062 55.4688 423.969 53.1562 423.844 50.7812C423.719 48.3438 423.562 46.0625 423.375 43.9375C423.188 41.8125 422.969 39.9688 422.719 38.4062C422.531 36.7812 422.312 35.6562 422.062 35.0312C421.75 34.2812 421.375 33.5312 420.938 32.7812C420.562 32.0938 420.094 31.375 419.531 30.625C418.969 29.8125 418.344 28.9688 417.656 28.0938ZM468.656 76.375C469.906 75.5 470.906 74.3438 471.656 72.9062C472.406 71.4688 472.969 70.0625 473.344 68.6875C473.781 67.0625 474.062 65.375 474.188 63.625C474.188 62.5625 474.125 60.875 474 58.5625C473.875 56.625 473.688 53.9688 473.438 50.5938C473.188 47.1562 472.812 42.7188 472.312 37.2812C471.625 37.3438 471.031 37.4062 470.531 37.4688C470.031 37.4688 469.625 37.4688 469.312 37.4688H468.281C467.969 37.4688 467.594 37.5 467.156 37.5625C466.781 37.625 466.281 37.7188 465.656 37.8438C465.094 37.9688 464.406 38.125 463.594 38.3125C463.719 37.8125 463.781 37.3125 463.781 36.8125C463.844 36.25 463.906 35.75 463.969 35.3125C464.031 34.8125 464.062 34.3438 464.062 33.9062V32.5C464.062 32.0625 464.062 31.5938 464.062 31.0938C464.125 30.5938 464.188 30.0938 464.25 29.5938L471.656 29.7812C471.344 27.0938 471.219 24.6875 471.281 22.5625C471.344 20.375 471.438 18.5 471.562 16.9375C471.75 15.125 472 13.5312 472.312 12.1562C472.75 10.4688 473.344 8.90625 474.094 7.46875C474.844 6.03125 475.875 4.8125 477.188 3.8125C478.5 2.8125 480.125 2.0625 482.062 1.5625C484 1 486.344 0.71875 489.094 0.71875C492.219 0.78125 494.688 1.1875 496.5 1.9375C498.312 2.625 499.656 3.53125 500.531 4.65625C501.406 5.71875 501.906 6.9375 502.031 8.3125C502.156 9.6875 502.125 11.0312 501.938 12.3438C501.812 13.5938 501.594 14.75 501.281 15.8125C501.031 16.875 500.938 17.6562 501 18.1562C501.062 18.5312 501.219 19.0312 501.469 19.6562C501.656 20.1562 501.938 20.7812 502.312 21.5312C502.75 22.2812 503.375 23.125 504.188 24.0625C503.188 23.9375 502.188 23.8438 501.188 23.7812C500.188 23.6562 499.25 23.5625 498.375 23.5C497.375 23.4375 496.406 23.4062 495.469 23.4062C494.531 23.4688 493.562 23.5312 492.562 23.5938C491.688 23.7188 490.75 23.8438 489.75 23.9688C488.75 24.0312 487.812 24.2188 486.938 24.5312C488.188 23.6562 489.156 22.75 489.844 21.8125C490.531 20.875 491.062 20.0312 491.438 19.2812C491.875 18.4062 492.156 17.5312 492.281 16.6562C492.344 15.5938 492.281 14.4062 492.094 13.0938C491.969 11.7188 491.688 10.4688 491.25 9.34375C490.812 8.21875 490.281 7.3125 489.656 6.625C489.031 5.875 488.281 5.59375 487.406 5.78125C486.094 6.28125 484.875 7.5 483.75 9.4375C482.812 11.0625 481.906 13.5312 481.031 16.8438C480.156 20.0938 479.594 24.625 479.344 30.4375C480.531 30.5625 481.625 30.6562 482.625 30.7188C483.688 30.7188 484.625 30.75 485.438 30.8125C486.375 30.875 487.25 30.9062 488.062 30.9062C488.875 30.9062 489.781 30.875 490.781 30.8125C491.656 30.75 492.688 30.7188 493.875 30.7188C495.062 30.6562 496.375 30.5625 497.812 30.4375L497.625 35.3125C496.5 35.4375 495.406 35.5312 494.344 35.5938C493.281 35.6562 492.344 35.7188 491.531 35.7812C490.594 35.8438 489.719 35.9062 488.906 35.9688C488.031 36.0312 487.125 36.0938 486.188 36.1562C485.375 36.2188 484.438 36.3125 483.375 36.4375C482.375 36.5625 481.312 36.6875 480.188 36.8125C481.062 43.875 481.812 49.5938 482.438 53.9688C483.125 58.2812 483.719 61.625 484.219 64C484.719 66.8125 485.156 68.8125 485.531 70C485.906 71 486.344 71.875 486.844 72.625C487.281 73.3125 487.812 73.9688 488.438 74.5938C489.062 75.2188 489.781 75.625 490.594 75.8125C488.594 75.5 486.875 75.25 485.438 75.0625C484 74.9375 482.781 74.8438 481.781 74.7812C480.656 74.7188 479.688 74.6875 478.875 74.6875C478.125 74.75 477.219 74.8438 476.156 74.9688C474.344 75.1562 471.844 75.625 468.656 76.375ZM521.812 57.9062C523.562 57.9062 525.188 57.7188 526.688 57.3438C527.938 57.0312 529.125 56.5312 530.25 55.8438C531.438 55.0938 532.219 54 532.594 52.5625C533.844 52.8125 534.906 53.0312 535.781 53.2188C536.656 53.3438 537.406 53.4688 538.031 53.5938C538.719 53.7812 539.312 53.9062 539.812 53.9688C540.312 54.0938 540.906 54.2188 541.594 54.3438C542.219 54.4688 542.969 54.625 543.844 54.8125C544.781 54.9375 545.875 55.125 547.125 55.375C546.188 55.25 545.219 55.3438 544.219 55.6562C543.281 55.9688 542.375 56.3125 541.5 56.6875C540.5 57.125 539.562 57.6562 538.688 58.2812C538.125 58.6562 537.469 59.2188 536.719 59.9688C536.031 60.7188 535.031 61.4375 533.719 62.125C532.406 62.8125 530.656 63.4062 528.469 63.9062C526.344 64.3438 523.594 64.5 520.219 64.375C516.156 64.25 512.75 63.5312 510 62.2188C507.25 60.8438 505.031 59.1875 503.344 57.25C501.656 55.25 500.438 53.0938 499.688 50.7812C498.938 48.4688 498.531 46.3125 498.469 44.3125C498.406 42.3125 499 40.2188 500.25 38.0312C501.5 35.8438 503.25 33.8438 505.5 32.0312C507.812 30.2188 510.594 28.75 513.844 27.625C517.094 26.4375 520.656 25.8438 524.531 25.8438C526.781 25.8438 528.844 26.125 530.719 26.6875C532.656 27.1875 534.406 27.875 535.969 28.75C537.594 29.625 539 30.625 540.188 31.75C541.375 32.8125 542.375 33.9062 543.188 35.0312C544 36.2188 544.688 37.4688 545.25 38.7812C545.75 39.9062 546.156 41.1875 546.469 42.625C546.781 44.0625 546.875 45.5312 546.75 47.0312C542 47.1562 538.156 47.25 535.219 47.3125C532.344 47.375 530.094 47.4062 528.469 47.4062H524.25H521.062C519.938 47.4062 518.469 47.4375 516.656 47.5C514.844 47.5625 512.625 47.6562 510 47.7812C510.312 50.2812 511.094 52.2188 512.344 53.5938C513.656 54.9062 515.031 55.9062 516.469 56.5938C518.094 57.3438 519.875 57.7812 521.812 57.9062ZM513.375 41.0312C515.375 41.1562 517.031 41.25 518.344 41.3125C519.719 41.375 520.844 41.4375 521.719 41.5C522.656 41.5625 523.406 41.5938 523.969 41.5938H526.312C527.875 41.5938 530.781 41.5 535.031 41.3125C534.844 38.5625 534.25 36.4688 533.25 35.0312C532.312 33.5938 531.312 32.5312 530.25 31.8438C529 31.0938 527.625 30.6562 526.125 30.5312C522.062 30.5938 519.031 31.4375 517.031 33.0625C515.094 34.6875 513.875 37.3438 513.375 41.0312ZM550.5 31.0938L567.75 31.2812C566.75 35.0938 566 38.3438 565.5 41.0312C565.062 43.7188 564.781 45.9688 564.656 47.7812C564.406 49.8438 564.344 51.5938 564.469 53.0312C564.656 54.3438 564.969 55.75 565.406 57.25C565.781 58.5 566.344 59.9375 567.094 61.5625C567.844 63.1875 568.844 64.8125 570.094 66.4375C569.344 66.1875 568.531 66 567.656 65.875C566.781 65.75 565.969 65.6562 565.219 65.5938C564.344 65.5312 563.469 65.5312 562.594 65.5938C561.719 65.6562 560.75 65.75 559.688 65.875C558.812 66 557.75 66.1562 556.5 66.3438C555.25 66.5312 553.938 66.7812 552.562 67.0938C553.5 64.2812 554.219 61.8438 554.719 59.7812C555.281 57.7188 555.688 56 555.938 54.625C556.188 53 556.344 51.6875 556.406 50.6875C556.406 49.4375 556.406 48.0312 556.406 46.4688C556.406 44.8438 556.406 43.2812 556.406 41.7812C556.406 40.2812 556.375 38.9688 556.312 37.8438C556.25 36.6562 556.125 35.9062 555.938 35.5938L555 34.6562C554.625 34.3438 554.062 33.9062 553.312 33.3438C552.625 32.7188 551.688 31.9688 550.5 31.0938ZM557.156 16.6562C558.469 15.9688 559.781 15.7812 561.094 16.0938C562.469 16.4062 563.531 17 564.281 17.875C565.031 18.75 565.281 19.7812 565.031 20.9688C564.844 22.1562 563.844 23.3125 562.031 24.4375C560.219 25.5 558.625 25.875 557.25 25.5625C555.875 25.25 554.906 24.5938 554.344 23.5938C553.781 22.5938 553.688 21.4375 554.062 20.125C554.438 18.75 555.469 17.5938 557.156 16.6562ZM572.344 13.9375C574.219 14.125 575.781 14.2812 577.031 14.4062C578.344 14.5312 579.406 14.625 580.219 14.6875C581.156 14.75 581.906 14.7812 582.469 14.7812C583.031 14.8438 583.781 14.8438 584.719 14.7812C585.531 14.7188 586.594 14.6562 587.906 14.5938C589.219 14.4688 590.875 14.2812 592.875 14.0312C592.438 14.6562 592.094 15.2188 591.844 15.7188C591.594 16.1562 591.375 16.5625 591.188 16.9375L590.625 18.0625C590.5 18.4375 590.375 18.8125 590.25 19.1875C590.125 19.5 590 19.875 589.875 20.3125C589.812 20.75 589.75 21.2188 589.688 21.7188H604.125L602.812 29.3125L589.594 28.5625C589.281 31.75 589.062 34.2188 588.938 35.9688C588.812 37.7188 588.688 39 588.562 39.8125L588.375 41.5C588.188 43.875 588 46.4688 587.812 49.2812C587.625 52.0312 587.562 54.5938 587.625 56.9688C587.688 59.3438 587.906 61.3438 588.281 62.9688C588.656 64.5312 589.312 65.3125 590.25 65.3125C591.188 65.3125 592.062 65.0625 592.875 64.5625C593.688 64.0625 594.375 63.4688 594.938 62.7812C595.562 62.0938 596.031 61.4062 596.344 60.7188C596.656 59.9688 596.812 59.4062 596.812 59.0312C596.812 58.6562 596.719 58.2188 596.531 57.7188C596.219 56.7812 595.656 55.5938 594.844 54.1562C596.656 54.5938 598.25 55.0312 599.625 55.4688C600.312 55.7188 600.938 55.9688 601.5 56.2188C602.125 56.4688 602.844 56.75 603.656 57.0625C604.344 57.375 605.219 57.75 606.281 58.1875C607.344 58.625 608.594 59.1562 610.031 59.7812C608.656 60.0312 607.656 60.4375 607.031 61C606.656 61.25 606.375 61.5312 606.188 61.8438C605.75 62.5312 605.25 63.4688 604.688 64.6562C604.125 65.7812 603.281 66.9062 602.156 68.0312C601.031 69.1562 599.5 70.1562 597.562 71.0312C595.688 71.9062 593.156 72.4062 589.969 72.5312C586.656 72.6562 584.125 72.0938 582.375 70.8438C580.688 69.5938 579.438 68.1562 578.625 66.5312C577.875 64.8438 577.438 63.1875 577.312 61.5625C577.188 59.9375 577.094 58.8438 577.031 58.2812C576.969 57.7188 576.969 56.3125 577.031 54.0625C577.094 51.8125 577.188 49.3438 577.312 46.6562C577.438 43.9062 577.562 41.2812 577.688 38.7812C577.812 36.2188 577.875 34.3438 577.875 33.1562C577.875 32.5312 577.906 31.875 577.969 31.1875C577.969 30.625 577.969 30.0312 577.969 29.4062C578.031 28.7188 578.062 28.0625 578.062 27.4375L564.469 27.3438L563.906 22L577.594 22.375C577.469 21.6875 577.312 21.0625 577.125 20.5C577 19.875 576.875 19.375 576.75 19C576.562 18.5625 576.375 18.1875 576.188 17.875C575.938 17.5625 575.656 17.2188 575.344 16.8438C575.031 16.5312 574.625 16.125 574.125 15.625C573.625 15.125 573.031 14.5625 572.344 13.9375ZM613.219 35.0312C613.531 34.6562 613.719 33.9688 613.781 32.9688C613.906 31.9062 614.156 30.7188 614.531 29.4062C614.969 28.0938 615.688 26.7188 616.688 25.2812C617.688 23.8438 619.312 22.5 621.562 21.25C623.75 20 625.875 19.25 627.938 19C630 18.75 631.969 18.8438 633.844 19.2812C635.719 19.7188 637.469 20.4062 639.094 21.3438C640.781 22.2812 642.312 23.3125 643.688 24.4375C644.625 25.1875 645.375 26.2812 645.938 27.7188C646.5 29.0938 646.938 30.6562 647.25 32.4062C647.562 34.1562 647.781 36 647.906 37.9375C648.094 39.8125 648.219 41.6562 648.281 43.4688C648.344 45.2188 648.375 46.8438 648.375 48.3438C648.438 49.7812 648.562 50.9688 648.75 51.9062C649 53.2812 649.438 54.4688 650.062 55.4688C650.688 56.4062 651.375 57.2188 652.125 57.9062C652.875 58.5312 653.625 59.0312 654.375 59.4062C655.125 59.7812 655.781 60.0625 656.344 60.25C656.719 60.4375 657.062 60.5625 657.375 60.625C658 60.875 658.438 60.875 658.688 60.625C658.312 61.5 657.969 62.25 657.656 62.875C657.344 63.5 657.094 64.0312 656.906 64.4688C656.656 64.9688 656.438 65.375 656.25 65.6875C656.062 66.0625 655.844 66.4062 655.594 66.7188C655.406 67.0312 655.156 67.375 654.844 67.75C654.531 68.125 654.219 68.5312 653.906 68.9688C653.094 68.6562 652.312 68.2812 651.562 67.8438C650.875 67.4062 650.25 67 649.688 66.625C649 66.1875 648.375 65.75 647.812 65.3125C647.25 64.875 646.719 64.375 646.219 63.8125C645.781 63.3125 645.312 62.7812 644.812 62.2188C644.375 61.6562 644 61.0312 643.688 60.3438C643.312 61.1562 642.406 62.3125 640.969 63.8125C639.594 65.3125 637.781 66.6875 635.531 67.9375C633.281 69.125 630.656 69.9688 627.656 70.4688C624.719 70.9688 621.469 70.625 617.906 69.4375C616.344 68.9375 614.875 68.2188 613.5 67.2812C612.125 66.2812 610.938 65.0938 609.938 63.7188C609 62.3438 608.312 60.7812 607.875 59.0312C607.5 57.2188 607.531 55.2188 607.969 53.0312C608.406 50.8438 609.188 49 610.312 47.5C611.438 46 612.781 44.7812 614.344 43.8438C615.906 42.9062 617.656 42.1875 619.594 41.6875C621.531 41.1875 623.531 40.8438 625.594 40.6562C627.219 40.5938 628.844 40.6875 630.469 40.9375C631.844 41.1875 633.281 41.6562 634.781 42.3438C636.281 42.9688 637.562 43.9375 638.625 45.25C638.562 41.9375 638.438 39.3125 638.25 37.375C638.125 35.375 638 33.8438 637.875 32.7812C637.625 31.5312 637.406 30.6562 637.219 30.1562C636.906 29.7188 636.562 29.2188 636.188 28.6562C635.875 28.0938 635.469 27.5938 634.969 27.1562C634.469 26.6562 633.844 26.25 633.094 25.9375C632.344 25.625 631.469 25.5 630.469 25.5625C629.406 25.625 628.562 25.9062 627.938 26.4062C627.312 26.9062 626.812 27.5 626.438 28.1875C626.125 28.8125 625.938 29.5 625.875 30.25C625.812 31 625.844 31.6562 625.969 32.2188C626.094 32.5938 626.281 33 626.531 33.4375C626.781 33.8125 627.125 34.2188 627.562 34.6562C628 35.0938 628.594 35.4688 629.344 35.7812C627.906 35.9688 626.625 36.125 625.5 36.25C624.375 36.3125 623.406 36.4062 622.594 36.5312C621.656 36.6562 620.844 36.75 620.156 36.8125C619.469 36.875 618.656 37 617.719 37.1875C616.906 37.3125 615.906 37.4688 614.719 37.6562C613.531 37.8438 612.156 38.0938 610.594 38.4062C610.969 37.9688 611.312 37.5625 611.625 37.1875C611.938 36.75 612.219 36.375 612.469 36.0625C612.719 35.6875 612.969 35.3438 613.219 35.0312ZM627.281 46.1875C626.156 46.25 625.031 46.5312 623.906 47.0312C622.781 47.4688 621.781 48.125 620.906 49C620.031 49.8125 619.281 50.7812 618.656 51.9062C618.094 52.9688 617.812 54.1562 617.812 55.4688C617.812 56.7812 618.125 57.9375 618.75 58.9375C619.438 59.875 620.312 60.6562 621.375 61.2812C622.5 61.9062 623.688 62.2812 624.938 62.4062C626.25 62.5312 627.531 62.4062 628.781 62.0312C629.969 61.5938 631.094 60.9062 632.156 59.9688C633.219 58.9688 634.125 57.9062 634.875 56.7812C635.625 55.5938 636.156 54.4375 636.469 53.3125C636.781 52.125 636.812 51.1562 636.562 50.4062C636.062 48.7812 634.938 47.6562 633.188 47.0312C631.438 46.3438 629.469 46.0625 627.281 46.1875Z" fill="black"/>
</svg>
