<svg width="717" height="90" viewBox="0 0 717 90" fill="none" xmlns="http://www.w3.org/2000/svg">
<path d="M0.15625 7.96875C4.53125 8.09375 8.15625 8.1875 11.0312 8.25C13.9688 8.25 16.3438 8.25 18.1562 8.25H23.125H51.0625C51.1875 9.5 51.2812 10.7188 51.3438 11.9062C51.4688 13.0312 51.5312 14.0312 51.5312 14.9062C51.5312 15.9688 51.5 16.9375 51.4375 17.8125C51.375 18.6875 51.2812 19.625 51.1562 20.625C51.0312 21.5 50.9062 22.4375 50.7812 23.4375C50.6562 24.4375 50.4375 25.4688 50.125 26.5312C49.25 23.1562 48.0625 20.5938 46.5625 18.8438C45.125 17.0938 43.6562 15.8125 42.1562 15C40.4062 14.0625 38.5625 13.5625 36.625 13.5C34.0625 13.625 32.0625 13.8438 30.625 14.1562C29.1875 14.4688 28.0625 14.9062 27.25 15.4688C26.4375 16.0312 25.8125 16.6875 25.375 17.4375C25 18.125 24.5938 18.9062 24.1562 19.7812C23.7812 20.5312 23.4375 21.6875 23.125 23.25C22.8125 24.5625 22.5 26.3438 22.1875 28.5938C21.9375 30.8438 21.6562 33.75 21.3438 37.3125C23.0312 36.8125 24.375 36.3438 25.375 35.9062C26.4375 35.4688 27.2812 35.0938 27.9062 34.7812C28.5938 34.4062 29.0938 34.0625 29.4062 33.75C29.6562 33.375 30.0312 32.6875 30.5312 31.6875C30.9062 30.8125 31.4062 29.625 32.0312 28.125C32.7188 26.625 33.5312 24.5625 34.4688 21.9375C34.5938 24.8125 34.6562 27.2188 34.6562 29.1562C34.6562 31.0312 34.6875 32.5625 34.75 33.75C34.75 35.125 34.7812 36.2188 34.8438 37.0312V40.5938C34.8438 41.9062 34.8438 43.6875 34.8438 45.9375C34.9062 48.125 35 50.9062 35.125 54.2812C34.375 51.9688 33.6875 50.1562 33.0625 48.8438C32.5 47.4688 32 46.4375 31.5625 45.75C31.0625 44.9375 30.625 44.375 30.25 44.0625C29.8125 43.9375 29.2188 43.8125 28.4688 43.6875C27.7812 43.625 26.9062 43.5938 25.8438 43.5938C24.8438 43.5938 23.5625 43.75 22 44.0625C21.8125 47.5 21.7812 50.2812 21.9062 52.4062C22.0938 54.4688 22.3438 56.0625 22.6562 57.1875C22.9688 58.5 23.3438 59.4375 23.7812 60C24.3438 60.5625 25.4688 61.0312 27.1562 61.4062C28.8438 61.7188 30.75 61.8438 32.875 61.7812C35.0625 61.6562 37.2812 61.2812 39.5312 60.6562C41.7812 60.0312 43.7812 59 45.5312 57.5625C46.8438 56.375 48.25 54.875 49.75 53.0625C51 51.5 52.375 49.5312 53.875 47.1562C55.4375 44.7812 56.9688 41.9062 58.4688 38.5312C58.2188 41.3438 58.0312 43.6875 57.9062 45.5625C57.8438 47.375 57.75 48.8438 57.625 49.9688C57.5 51.2812 57.4062 52.2812 57.3438 52.9688C57.3438 53.7188 57.25 54.7812 57.0625 56.1562C56.9375 57.3438 56.7188 58.9688 56.4062 61.0312C56.1562 63.0312 55.8125 65.5938 55.375 68.7188C52.4375 68.7812 49.6562 68.8438 47.0312 68.9062C44.4062 68.9062 42.0938 68.9375 40.0938 69C37.7188 69.0625 35.5312 69.125 33.5312 69.1875C31.4688 69.1875 29.1875 69.2812 26.6875 69.4688C24.5 69.5938 21.9062 69.7812 18.9062 70.0312C15.9688 70.2812 12.7188 70.625 9.15625 71.0625C9.46875 66.8125 9.6875 62.8125 9.8125 59.0625C10 55.25 10.125 51.9062 10.1875 49.0312C10.25 45.6562 10.25 42.5312 10.1875 39.6562C10.5 32.4688 10.375 26.6562 9.8125 22.2188C9.25 17.7812 8.59375 14.9375 7.84375 13.6875C7.46875 13.25 6.9375 12.7188 6.25 12.0938C5.6875 11.5937 4.90625 11 3.90625 10.3125C2.90625 9.625 1.65625 8.84375 0.15625 7.96875ZM64.9375 74.625C65.5625 73.6875 66.0625 72.8125 66.4375 72C66.8125 71.1875 67.125 70.5 67.375 69.9375C67.625 69.25 67.8125 68.625 67.9375 68.0625C68 67.6875 68.0312 66.5938 68.0312 64.7812C68.0312 62.9688 67.9688 60.6875 67.8438 57.9375C67.7812 55.1875 67.6875 52.0938 67.5625 48.6562C67.5 45.2188 67.375 41.7188 67.1875 38.1562C67.0625 34.5938 66.9062 31.125 66.7188 27.75C66.5938 24.375 66.4688 21.3438 66.3438 18.6562C66.2188 15.9062 66.0938 13.6562 65.9688 11.9062C65.8438 10.1563 65.75 9.15625 65.6875 8.90625C65.5625 8.53125 65.3438 8.15625 65.0312 7.78125C64.4062 7.03125 63.3438 6.3125 61.8438 5.625C65.0312 4.8125 67.4688 4.15625 69.1562 3.65625C70.1562 3.40625 71.0312 3.15625 71.7812 2.90625C72.4688 2.65625 73.1562 2.40625 73.8438 2.15625C74.4062 1.90625 75.0312 1.625 75.7188 1.3125C76.4062 0.9375 77.0312 0.53125 77.5938 0.09375C77.2812 1.90625 77.0312 3.65625 76.8438 5.34375C76.6562 7.03125 76.5 8.59375 76.375 10.0312C76.25 11.6563 76.1875 13.2188 76.1875 14.7188C75.875 17.7812 75.6875 21.125 75.625 24.75C75.625 28.3125 75.6562 31.9375 75.7188 35.625C75.7812 39.3125 75.9062 42.9062 76.0938 46.4062C76.2812 49.9062 76.4688 53.0938 76.6562 55.9688C76.9062 58.7812 77.125 61.1875 77.3125 63.1875C77.5625 65.125 77.75 66.375 77.875 66.9375C78.125 67.875 78.375 68.7812 78.625 69.6562C78.875 70.4062 79.1562 71.1875 79.4688 72C79.7812 72.875 80.1562 73.5625 80.5938 74.0625H71.5C70.6875 74.0625 69.9062 74.0938 69.1562 74.1562C68.4688 74.2188 67.75 74.2812 67 74.3438C66.25 74.4062 65.5625 74.5 64.9375 74.625ZM91 34.0312C91.3125 33.6562 91.5 32.9688 91.5625 31.9688C91.6875 30.9062 91.9375 29.7188 92.3125 28.4062C92.75 27.0938 93.4688 25.7188 94.4688 24.2812C95.4688 22.8438 97.0938 21.5 99.3438 20.25C101.531 19 103.656 18.25 105.719 18C107.781 17.75 109.75 17.8438 111.625 18.2812C113.5 18.7188 115.25 19.4062 116.875 20.3438C118.562 21.2812 120.094 22.3125 121.469 23.4375C122.406 24.1875 123.156 25.2812 123.719 26.7188C124.281 28.0938 124.719 29.6562 125.031 31.4062C125.344 33.1562 125.562 35 125.688 36.9375C125.875 38.8125 126 40.6562 126.062 42.4688C126.125 44.2188 126.156 45.8438 126.156 47.3438C126.219 48.7812 126.344 49.9688 126.531 50.9062C126.781 52.2812 127.219 53.4688 127.844 54.4688C128.469 55.4062 129.156 56.2188 129.906 56.9062C130.656 57.5312 131.406 58.0312 132.156 58.4062C132.906 58.7812 133.562 59.0625 134.125 59.25C134.5 59.4375 134.844 59.5625 135.156 59.625C135.781 59.875 136.219 59.875 136.469 59.625C136.094 60.5 135.75 61.25 135.438 61.875C135.125 62.5 134.875 63.0312 134.688 63.4688C134.438 63.9688 134.219 64.375 134.031 64.6875C133.844 65.0625 133.625 65.4062 133.375 65.7188C133.188 66.0312 132.938 66.375 132.625 66.75C132.312 67.125 132 67.5312 131.688 67.9688C130.875 67.6562 130.094 67.2812 129.344 66.8438C128.656 66.4062 128.031 66 127.469 65.625C126.781 65.1875 126.156 64.75 125.594 64.3125C125.031 63.875 124.5 63.375 124 62.8125C123.562 62.3125 123.094 61.7812 122.594 61.2188C122.156 60.6562 121.781 60.0312 121.469 59.3438C121.094 60.1562 120.188 61.3125 118.75 62.8125C117.375 64.3125 115.562 65.6875 113.312 66.9375C111.062 68.125 108.438 68.9688 105.438 69.4688C102.5 69.9688 99.25 69.625 95.6875 68.4375C94.125 67.9375 92.6562 67.2188 91.2812 66.2812C89.9062 65.2812 88.7188 64.0938 87.7188 62.7188C86.7812 61.3438 86.0938 59.7812 85.6562 58.0312C85.2812 56.2188 85.3125 54.2188 85.75 52.0312C86.1875 49.8438 86.9688 48 88.0938 46.5C89.2188 45 90.5625 43.7812 92.125 42.8438C93.6875 41.9062 95.4375 41.1875 97.375 40.6875C99.3125 40.1875 101.312 39.8438 103.375 39.6562C105 39.5938 106.625 39.6875 108.25 39.9375C109.625 40.1875 111.062 40.6562 112.562 41.3438C114.062 41.9688 115.344 42.9375 116.406 44.25C116.344 40.9375 116.219 38.3125 116.031 36.375C115.906 34.375 115.781 32.8438 115.656 31.7812C115.406 30.5312 115.188 29.6562 115 29.1562C114.688 28.7188 114.344 28.2188 113.969 27.6562C113.656 27.0938 113.25 26.5938 112.75 26.1562C112.25 25.6562 111.625 25.25 110.875 24.9375C110.125 24.625 109.25 24.5 108.25 24.5625C107.188 24.625 106.344 24.9062 105.719 25.4062C105.094 25.9062 104.594 26.5 104.219 27.1875C103.906 27.8125 103.719 28.5 103.656 29.25C103.594 30 103.625 30.6562 103.75 31.2188C103.875 31.5938 104.062 32 104.312 32.4375C104.562 32.8125 104.906 33.2188 105.344 33.6562C105.781 34.0938 106.375 34.4688 107.125 34.7812C105.688 34.9688 104.406 35.125 103.281 35.25C102.156 35.3125 101.188 35.4062 100.375 35.5312C99.4375 35.6562 98.625 35.75 97.9375 35.8125C97.25 35.875 96.4375 36 95.5 36.1875C94.6875 36.3125 93.6875 36.4688 92.5 36.6562C91.3125 36.8438 89.9375 37.0938 88.375 37.4062C88.75 36.9688 89.0938 36.5625 89.4062 36.1875C89.7188 35.75 90 35.375 90.25 35.0625C90.5 34.6875 90.75 34.3438 91 34.0312ZM105.062 45.1875C103.938 45.25 102.812 45.5312 101.688 46.0312C100.562 46.4688 99.5625 47.125 98.6875 48C97.8125 48.8125 97.0625 49.7812 96.4375 50.9062C95.875 51.9688 95.5938 53.1562 95.5938 54.4688C95.5938 55.7812 95.9062 56.9375 96.5312 57.9375C97.2188 58.875 98.0938 59.6562 99.1562 60.2812C100.281 60.9062 101.469 61.2812 102.719 61.4062C104.031 61.5312 105.312 61.4062 106.562 61.0312C107.75 60.5938 108.875 59.9062 109.938 58.9688C111 57.9688 111.906 56.9062 112.656 55.7812C113.406 54.5938 113.938 53.4375 114.25 52.3125C114.562 51.125 114.594 50.1562 114.344 49.4062C113.844 47.7812 112.719 46.6562 110.969 46.0312C109.219 45.3438 107.25 45.0625 105.062 45.1875ZM134.594 27.0938C135.781 27.1562 136.844 27.1875 137.781 27.1875C138.781 27.125 139.625 27.0625 140.312 27C141.125 26.9375 141.844 26.875 142.469 26.8125C143.406 26.6875 144.375 26.5312 145.375 26.3438C146.25 26.2188 147.156 26.0625 148.094 25.875C149.094 25.625 150.062 25.3438 151 25.0312C150.625 25.9688 150.312 26.7812 150.062 27.4688C149.812 28.1562 149.625 28.75 149.5 29.25C149.312 29.8125 149.219 30.2812 149.219 30.6562C149.156 31.0938 149.125 31.625 149.125 32.25C149.062 33.3125 149.062 35.0312 149.125 37.4062C152.375 34.5938 155.094 32.4062 157.281 30.8438C159.531 29.2812 161.312 28.0625 162.625 27.1875C164.188 26.1875 165.406 25.5312 166.281 25.2188C168.594 24.8438 170.625 25.375 172.375 26.8125C173.125 27.4375 173.844 28.2812 174.531 29.3438C175.219 30.3438 175.812 31.6875 176.312 33.375C176.812 35.0625 177.188 37.0938 177.438 39.4688C177.688 41.7812 177.719 44.5625 177.531 47.8125C176.219 47.9375 175.031 48.0625 173.969 48.1875C172.969 48.3125 172.125 48.4062 171.438 48.4688C170.625 48.5938 169.875 48.6562 169.188 48.6562L166.656 48.9375C165.781 49.0625 164.688 49.1875 163.375 49.3125C162.125 49.375 160.594 49.5 158.781 49.6875C161.406 47.5625 163.094 45.7188 163.844 44.1562C164.656 42.5312 165 41.1875 164.875 40.125C164.75 38.9375 164.188 37.9062 163.188 37.0312C162 36.3438 160.719 36.0938 159.344 36.2812C158.156 36.4062 156.781 36.9375 155.219 37.875C153.656 38.8125 152 40.5625 150.25 43.125C150.375 47.125 150.5 50.4375 150.625 53.0625C150.812 55.6875 150.969 57.8125 151.094 59.4375C151.281 61.3125 151.438 62.7812 151.562 63.8438C151.75 64.7812 152.125 65.7812 152.688 66.8438C153.125 67.7188 153.75 68.6875 154.562 69.75C155.375 70.8125 156.438 71.875 157.75 72.9375C155 72.8125 152.75 72.8125 151 72.9375C149.938 73 149 73.0625 148.188 73.125C147.312 73.25 146.375 73.375 145.375 73.5C144.5 73.625 143.469 73.75 142.281 73.875C141.156 74.0625 139.906 74.25 138.531 74.4375C139.031 73.75 139.438 72.9375 139.75 72C140.062 71.125 140.312 70.2812 140.5 69.4688C140.75 68.5312 140.938 67.5625 141.062 66.5625C141.125 65.6875 141.156 64.375 141.156 62.625C141.219 60.875 141.188 58.9062 141.062 56.7188C141 54.4688 140.906 52.1562 140.781 49.7812C140.656 47.3438 140.5 45.0625 140.312 42.9375C140.125 40.8125 139.906 38.9688 139.656 37.4062C139.469 35.7812 139.25 34.6562 139 34.0312C138.688 33.2812 138.312 32.5312 137.875 31.7812C137.5 31.0938 137.031 30.375 136.469 29.625C135.906 28.8125 135.281 27.9688 134.594 27.0938ZM188.5 34.0312C188.812 33.6562 189 32.9688 189.062 31.9688C189.188 30.9062 189.438 29.7188 189.812 28.4062C190.25 27.0938 190.969 25.7188 191.969 24.2812C192.969 22.8438 194.594 21.5 196.844 20.25C199.031 19 201.156 18.25 203.219 18C205.281 17.75 207.25 17.8438 209.125 18.2812C211 18.7188 212.75 19.4062 214.375 20.3438C216.062 21.2812 217.594 22.3125 218.969 23.4375C219.906 24.1875 220.656 25.2812 221.219 26.7188C221.781 28.0938 222.219 29.6562 222.531 31.4062C222.844 33.1562 223.062 35 223.188 36.9375C223.375 38.8125 223.5 40.6562 223.562 42.4688C223.625 44.2188 223.656 45.8438 223.656 47.3438C223.719 48.7812 223.844 49.9688 224.031 50.9062C224.281 52.2812 224.719 53.4688 225.344 54.4688C225.969 55.4062 226.656 56.2188 227.406 56.9062C228.156 57.5312 228.906 58.0312 229.656 58.4062C230.406 58.7812 231.062 59.0625 231.625 59.25C232 59.4375 232.344 59.5625 232.656 59.625C233.281 59.875 233.719 59.875 233.969 59.625C233.594 60.5 233.25 61.25 232.938 61.875C232.625 62.5 232.375 63.0312 232.188 63.4688C231.938 63.9688 231.719 64.375 231.531 64.6875C231.344 65.0625 231.125 65.4062 230.875 65.7188C230.688 66.0312 230.438 66.375 230.125 66.75C229.812 67.125 229.5 67.5312 229.188 67.9688C228.375 67.6562 227.594 67.2812 226.844 66.8438C226.156 66.4062 225.531 66 224.969 65.625C224.281 65.1875 223.656 64.75 223.094 64.3125C222.531 63.875 222 63.375 221.5 62.8125C221.062 62.3125 220.594 61.7812 220.094 61.2188C219.656 60.6562 219.281 60.0312 218.969 59.3438C218.594 60.1562 217.688 61.3125 216.25 62.8125C214.875 64.3125 213.062 65.6875 210.812 66.9375C208.562 68.125 205.938 68.9688 202.938 69.4688C200 69.9688 196.75 69.625 193.188 68.4375C191.625 67.9375 190.156 67.2188 188.781 66.2812C187.406 65.2812 186.219 64.0938 185.219 62.7188C184.281 61.3438 183.594 59.7812 183.156 58.0312C182.781 56.2188 182.812 54.2188 183.25 52.0312C183.688 49.8438 184.469 48 185.594 46.5C186.719 45 188.062 43.7812 189.625 42.8438C191.188 41.9062 192.938 41.1875 194.875 40.6875C196.812 40.1875 198.812 39.8438 200.875 39.6562C202.5 39.5938 204.125 39.6875 205.75 39.9375C207.125 40.1875 208.562 40.6562 210.062 41.3438C211.562 41.9688 212.844 42.9375 213.906 44.25C213.844 40.9375 213.719 38.3125 213.531 36.375C213.406 34.375 213.281 32.8438 213.156 31.7812C212.906 30.5312 212.688 29.6562 212.5 29.1562C212.188 28.7188 211.844 28.2188 211.469 27.6562C211.156 27.0938 210.75 26.5938 210.25 26.1562C209.75 25.6562 209.125 25.25 208.375 24.9375C207.625 24.625 206.75 24.5 205.75 24.5625C204.688 24.625 203.844 24.9062 203.219 25.4062C202.594 25.9062 202.094 26.5 201.719 27.1875C201.406 27.8125 201.219 28.5 201.156 29.25C201.094 30 201.125 30.6562 201.25 31.2188C201.375 31.5938 201.562 32 201.812 32.4375C202.062 32.8125 202.406 33.2188 202.844 33.6562C203.281 34.0938 203.875 34.4688 204.625 34.7812C203.188 34.9688 201.906 35.125 200.781 35.25C199.656 35.3125 198.688 35.4062 197.875 35.5312C196.938 35.6562 196.125 35.75 195.438 35.8125C194.75 35.875 193.938 36 193 36.1875C192.188 36.3125 191.188 36.4688 190 36.6562C188.812 36.8438 187.438 37.0938 185.875 37.4062C186.25 36.9688 186.594 36.5625 186.906 36.1875C187.219 35.75 187.5 35.375 187.75 35.0625C188 34.6875 188.25 34.3438 188.5 34.0312ZM202.562 45.1875C201.438 45.25 200.312 45.5312 199.188 46.0312C198.062 46.4688 197.062 47.125 196.188 48C195.312 48.8125 194.562 49.7812 193.938 50.9062C193.375 51.9688 193.094 53.1562 193.094 54.4688C193.094 55.7812 193.406 56.9375 194.031 57.9375C194.719 58.875 195.594 59.6562 196.656 60.2812C197.781 60.9062 198.969 61.2812 200.219 61.4062C201.531 61.5312 202.812 61.4062 204.062 61.0312C205.25 60.5938 206.375 59.9062 207.438 58.9688C208.5 57.9688 209.406 56.9062 210.156 55.7812C210.906 54.5938 211.438 53.4375 211.75 52.3125C212.062 51.125 212.094 50.1562 211.844 49.4062C211.344 47.7812 210.219 46.6562 208.469 46.0312C206.719 45.3438 204.75 45.0625 202.562 45.1875ZM264.531 5.0625C266.656 5.375 268.531 5.59375 270.156 5.71875C271.844 5.84375 273.25 5.96875 274.375 6.09375C275.688 6.21875 276.812 6.28125 277.75 6.28125H281.406C283.844 6.28125 287.875 6.1875 293.5 6C292.125 6.4375 290.969 7.0625 290.031 7.875C289.156 8.6875 288.438 9.53125 287.875 10.4062C287.188 11.4062 286.688 12.4375 286.375 13.5C286 14.8125 285.656 16.5625 285.344 18.75C285.031 20.6875 284.719 23.2188 284.406 26.3438C284.156 29.4688 283.906 33.375 283.656 38.0625C286.344 35 288.688 32.2812 290.688 29.9062C292.75 27.5312 294.531 25.4375 296.031 23.625C297.531 21.8125 298.781 20.25 299.781 18.9375C300.844 17.625 301.719 16.5 302.406 15.5625C304.031 13.4375 304.969 12 305.219 11.25C305.281 10.8125 305.25 10.2812 305.125 9.65625C305 9.15625 304.812 8.5625 304.562 7.875C304.312 7.125 303.938 6.3125 303.438 5.4375C305.938 5.5625 308.062 5.65625 309.812 5.71875C311.625 5.78125 313.125 5.84375 314.312 5.90625C315.688 5.96875 316.812 6 317.688 6H321.625C323.062 6 324.938 6 327.25 6C329.562 5.9375 332.469 5.875 335.969 5.8125C333.656 6.375 331.469 7.125 329.406 8.0625C327.344 9 325.5 9.90625 323.875 10.7812C322 11.8438 320.25 12.9375 318.625 14.0625C317 15.3125 315.188 16.7812 313.188 18.4688C311.5 19.9062 309.531 21.6875 307.281 23.8125C305.031 25.875 302.594 28.2812 299.969 31.0312C302.781 36.5312 305.219 41.0625 307.281 44.625C309.406 48.125 311.188 50.9375 312.625 53.0625C314.25 55.5625 315.625 57.4688 316.75 58.7812C317.875 59.9688 319.188 61.1875 320.688 62.4375C321.938 63.5 323.5 64.6875 325.375 66C327.25 67.25 329.406 68.4688 331.844 69.6562L305.125 70.9688C305.5 70.4688 305.719 69.875 305.781 69.1875C305.906 68.4375 305.969 67.75 305.969 67.125C305.969 66.4375 305.906 65.6875 305.781 64.875C305.531 63.875 304.875 62.25 303.812 60C302.938 58.0625 301.594 55.3438 299.781 51.8438C297.969 48.2812 295.469 43.5938 292.281 37.7812L284.312 46.125C284 48.125 283.844 49.9375 283.844 51.5625C283.844 53.1875 283.906 54.5312 284.031 55.5938C284.219 56.9062 284.469 58.0312 284.781 58.9688C285.156 59.9062 285.688 60.9688 286.375 62.1562C286.938 63.2188 287.688 64.4688 288.625 65.9062C289.562 67.3438 290.75 68.9375 292.188 70.6875C290.75 70.3125 289.312 70.0625 287.875 69.9375C286.438 69.75 285.125 69.625 283.938 69.5625C282.562 69.5 281.25 69.5312 280 69.6562C278.688 69.7812 277.156 69.9688 275.406 70.2188C273.906 70.4688 272.062 70.7812 269.875 71.1562C267.688 71.5312 265.188 72 262.375 72.5625C263.75 71.75 264.844 70.875 265.656 69.9375C266.469 69 267.125 68.0938 267.625 67.2188C268.188 66.2188 268.562 65.25 268.75 64.3125C268.875 63.5 268.969 61.75 269.031 59.0625C269.156 56.375 269.219 53.25 269.219 49.6875C269.281 46.0625 269.281 42.25 269.219 38.25C269.156 34.25 269.094 30.5 269.031 27C268.969 23.5 268.875 20.5312 268.75 18.0938C268.688 15.5938 268.625 14.0625 268.562 13.5C268.375 12.625 268.125 11.6875 267.812 10.6875C267.5 9.8125 267.062 8.90625 266.5 7.96875C266 6.96875 265.344 6 264.531 5.0625ZM325.375 30.0938L342.625 30.2812C341.625 34.0938 340.875 37.3438 340.375 40.0312C339.938 42.7188 339.656 44.9688 339.531 46.7812C339.281 48.8438 339.219 50.5938 339.344 52.0312C339.531 53.3438 339.844 54.75 340.281 56.25C340.656 57.5 341.219 58.9375 341.969 60.5625C342.719 62.1875 343.719 63.8125 344.969 65.4375C344.219 65.1875 343.406 65 342.531 64.875C341.656 64.75 340.844 64.6562 340.094 64.5938C339.219 64.5312 338.344 64.5312 337.469 64.5938C336.594 64.6562 335.625 64.75 334.562 64.875C333.688 65 332.625 65.1562 331.375 65.3438C330.125 65.5312 328.812 65.7812 327.438 66.0938C328.375 63.2812 329.094 60.8438 329.594 58.7812C330.156 56.7188 330.562 55 330.812 53.625C331.062 52 331.219 50.6875 331.281 49.6875C331.281 48.4375 331.281 47.0312 331.281 45.4688C331.281 43.8438 331.281 42.2812 331.281 40.7812C331.281 39.2812 331.25 37.9688 331.188 36.8438C331.125 35.6562 331 34.9062 330.812 34.5938L329.875 33.6562C329.5 33.3438 328.938 32.9062 328.188 32.3438C327.5 31.7188 326.562 30.9688 325.375 30.0938ZM332.031 15.6562C333.344 14.9688 334.656 14.7812 335.969 15.0938C337.344 15.4062 338.406 16 339.156 16.875C339.906 17.75 340.156 18.7812 339.906 19.9688C339.719 21.1562 338.719 22.3125 336.906 23.4375C335.094 24.5 333.5 24.875 332.125 24.5625C330.75 24.25 329.781 23.5938 329.219 22.5938C328.656 21.5938 328.562 20.4375 328.938 19.125C329.312 17.75 330.344 16.5938 332.031 15.6562ZM351.25 61.6875C351.688 59.625 352 57.8125 352.188 56.25C352.438 54.625 352.625 53.2812 352.75 52.2188C352.875 50.9688 352.938 49.9062 352.938 49.0312C352.875 47.9688 352.812 46.7188 352.75 45.2812C352.75 43.7812 352.688 42.3125 352.562 40.875C352.5 39.375 352.406 38.0625 352.281 36.9375C352.156 35.75 352 34.9062 351.812 34.4062C351.562 33.9062 351.219 33.375 350.781 32.8125C349.906 31.75 348.625 30.7188 346.938 29.7188C348.375 29.4062 349.594 29.1562 350.594 28.9688C351.656 28.7188 352.531 28.5 353.219 28.3125C353.969 28.0625 354.625 27.8438 355.188 27.6562C355.688 27.4688 356.281 27.2812 356.969 27.0938C357.531 26.9688 358.219 26.8125 359.031 26.625C359.844 26.4375 360.781 26.2188 361.844 25.9688L361.562 34.5C363.562 32.125 365.594 30.3438 367.656 29.1562C369.719 27.9688 371.656 27.125 373.469 26.625C375.531 26 377.562 25.6875 379.562 25.6875C382.062 25.8125 384.375 26.2188 386.5 26.9062C388.688 27.5938 390.562 28.4062 392.125 29.3438C393.75 30.2188 395.062 31.1562 396.062 32.1562C397.062 33.1562 397.656 34.0312 397.844 34.7812C398.594 37.2188 398.781 39.4688 398.406 41.5312C398.031 43.5312 397.531 45.5 396.906 47.4375C396.344 49.3125 395.844 51.1875 395.406 53.0625C395.031 54.9375 395.188 56.9688 395.875 59.1562C396.125 59.7188 396.375 60.2812 396.625 60.8438C396.875 61.3438 397.188 61.8438 397.562 62.3438C397.938 62.8438 398.375 63.25 398.875 63.5625C398.188 63.5 397.5 63.4688 396.812 63.4688C396.125 63.4062 395.5 63.3438 394.938 63.2812C394.25 63.2188 393.625 63.1562 393.062 63.0938C392.438 63.0312 391.594 63 390.531 63C388.719 63 385.906 63.0938 382.094 63.2812C382.656 61.9688 383.094 60.875 383.406 60C383.781 59.0625 384.094 58.3125 384.344 57.75C384.594 57.0625 384.781 56.5312 384.906 56.1562C385.656 54.3438 386.094 52.2812 386.219 49.9688C386.406 47.6562 386.25 45.3125 385.75 42.9375C385.562 42.125 385.25 41.1562 384.812 40.0312C384.375 38.9062 383.781 37.8125 383.031 36.75C382.344 35.6875 381.5 34.7812 380.5 34.0312C379.562 33.2812 378.469 32.8438 377.219 32.7188C375.969 32.5938 374.562 32.9062 373 33.6562C371.5 34.4062 369.875 35.7812 368.125 37.7812C366.812 39.4688 365.781 41.5312 365.031 43.9688C364.344 46.0312 363.875 48.625 363.625 51.75C363.375 54.8125 363.75 58.4062 364.75 62.5312C363.875 62.4062 363.062 62.3438 362.312 62.3438C361.562 62.2812 360.938 62.2188 360.438 62.1562C359.812 62.0938 359.25 62.0312 358.75 61.9688C358.188 61.9688 357.562 61.9375 356.875 61.875C356.25 61.875 355.469 61.875 354.531 61.875C353.594 61.8125 352.5 61.75 351.25 61.6875ZM448.844 32.25C448.656 31 448.5 29.9688 448.375 29.1562C448.25 28.2812 448.125 27.5938 448 27.0938C447.875 26.4688 447.781 26 447.719 25.6875C447.594 25.375 447.438 25.0312 447.25 24.6562C447.125 24.3438 446.906 23.9688 446.594 23.5312C446.344 23.0938 446.031 22.5938 445.656 22.0312C446.469 22.2812 447.281 22.4375 448.094 22.5C448.969 22.5625 449.781 22.625 450.531 22.6875C451.344 22.75 452.188 22.75 453.062 22.6875C453.938 22.6875 454.938 22.6562 456.062 22.5938C457.062 22.5312 458.25 22.5 459.625 22.5C461.062 22.4375 462.688 22.3438 464.5 22.2188C463.438 22.4688 462.531 22.9062 461.781 23.5312C461.094 24.0938 460.5 24.7188 460 25.4062C459.438 26.1562 458.969 26.9688 458.594 27.8438C458.281 28.6562 458.094 30.2188 458.031 32.5312C457.969 34.7812 457.969 37.4688 458.031 40.5938C458.094 43.6562 458.156 46.9688 458.219 50.5312C458.344 54.0938 458.406 57.5 458.406 60.75C458.469 64 458.469 66.9688 458.406 69.6562C458.344 72.2812 458.188 74.2188 457.938 75.4688C457.062 79.4062 455.438 82.5938 453.062 85.0312C450.688 87.5312 447.562 88.875 443.688 89.0625C439 89.25 435.281 88.8125 432.531 87.75C429.844 86.6875 427.75 85.375 426.25 83.8125C424.75 82.3125 423.625 80.7812 422.875 79.2188C422.125 77.6562 421.344 76.4688 420.531 75.6562C419.781 74.9688 419.031 74.3125 418.281 73.6875C417.594 73.1875 416.875 72.6875 416.125 72.1875C415.438 71.6875 414.75 71.375 414.062 71.25C415.875 71.3125 417.5 71.3438 418.938 71.3438C420.375 71.3438 421.594 71.3438 422.594 71.3438C423.719 71.3438 424.719 71.3125 425.594 71.25H428.594H437.125C435.875 71.625 434.938 72.0312 434.312 72.4688C433.688 72.9688 433.25 73.4688 433 73.9688C432.75 74.5312 432.625 75.0938 432.625 75.6562C432.875 77.1562 433.688 78.25 435.062 78.9375C436.438 79.625 438.312 80.0312 440.688 80.1562C443 80.2812 444.594 80.2188 445.469 79.9688C446.344 79.7812 447.031 79.4062 447.531 78.8438C448.531 77.3438 449.375 75.4062 450.062 73.0312C450.562 71.0312 450.906 68.4375 451.094 65.25C451.344 62 451.062 58.0312 450.25 53.3438C448.25 56.0938 445.938 58.1562 443.312 59.5312C440.688 60.9062 438.188 61.9062 435.812 62.5312C433 63.2188 430.156 63.5625 427.281 63.5625C419.719 63.25 414.062 61.5 410.312 58.3125C406.562 55.125 404.844 50.8438 405.156 45.4688C405.344 42.7812 406.156 40.0938 407.594 37.4062C409.094 34.7188 411.031 32.3125 413.406 30.1875C415.844 28.0625 418.625 26.375 421.75 25.125C424.875 23.875 428.125 23.3438 431.5 23.5312C434.062 23.7812 436.469 24.25 438.719 24.9375C440.656 25.5625 442.562 26.4375 444.438 27.5625C446.375 28.6875 447.844 30.25 448.844 32.25ZM419.031 41.625C418.656 44.0625 418.812 46.3438 419.5 48.4688C420.25 50.5938 421.281 52.4375 422.594 54C423.906 55.5 425.375 56.6875 427 57.5625C428.625 58.375 430.156 58.75 431.594 58.6875C434.594 58.625 437.188 57.2812 439.375 54.6562C441.562 51.9688 442.875 47.9688 443.312 42.6562C443.5 40.0312 443.156 37.7812 442.281 35.9062C441.469 33.9688 440.438 32.4062 439.188 31.2188C437.938 30.0312 436.625 29.1875 435.25 28.6875C433.875 28.1875 432.781 27.9688 431.969 28.0312C430.844 28.1562 429.594 28.5 428.219 29.0625C426.906 29.5625 425.625 30.3438 424.375 31.4062C423.125 32.4062 422 33.75 421 35.4375C420.062 37.125 419.406 39.1875 419.031 41.625ZM506.688 18.4688C506.125 19.8438 505.625 21.0938 505.188 22.2188C504.812 23.3438 504.469 24.3438 504.156 25.2188C503.844 26.2188 503.562 27.0938 503.312 27.8438C503.062 28.7188 502.781 29.7188 502.469 30.8438C502.156 31.8438 501.75 33.0938 501.25 34.5938C500.812 36.0312 500.281 37.75 499.656 39.75C499.156 36.75 498.25 34.375 496.938 32.625C495.625 30.8125 494.281 29.4062 492.906 28.4062C491.281 27.2812 489.531 26.4688 487.656 25.9688C484.281 25.4062 481.844 25.4688 480.344 26.1562C478.844 26.8438 477.844 27.7188 477.344 28.7812C477.094 29.2188 476.812 29.7812 476.5 30.4688C476.25 31.0938 476.031 31.75 475.844 32.4375C475.719 33.125 475.688 33.8125 475.75 34.5C475.812 35.1875 476.094 35.75 476.594 36.1875C476.906 36.5 477.719 36.9375 479.031 37.5C480.344 38 481.906 38.5938 483.719 39.2812C485.594 39.9062 487.562 40.5938 489.625 41.3438C491.75 42.0938 493.75 42.8438 495.625 43.5938C497.5 44.3438 499.125 45.0938 500.5 45.8438C501.875 46.5938 502.781 47.2812 503.219 47.9062C503.594 48.5312 504 49.375 504.438 50.4375C504.938 51.4375 505.281 52.5625 505.469 53.8125C505.719 55 505.781 56.25 505.656 57.5625C505.594 58.8125 505.25 60.0625 504.625 61.3125C504 62.5625 503 63.7188 501.625 64.7812C500.312 65.8438 498.531 66.7188 496.281 67.4062C493.656 68.2188 491.125 68.4375 488.688 68.0625C486.25 67.6875 484 67.125 481.938 66.375C479.938 65.625 478.188 64.9062 476.688 64.2188C475.188 63.4688 474.125 63.1562 473.5 63.2812C472.812 63.4062 472.031 63.75 471.156 64.3125C470.281 64.875 469.438 65.4688 468.625 66.0938C467.875 66.6562 467.219 67.1875 466.656 67.6875C466.094 68.125 465.812 68.2812 465.812 68.1562C465.812 68.0312 465.906 67.6562 466.094 67.0312C466.344 66.4062 466.594 65.6562 466.844 64.7812C467.156 63.8438 467.438 62.8438 467.688 61.7812C468 60.6562 468.219 59.5938 468.344 58.5938C468.469 57.7812 468.625 56.7812 468.812 55.5938C468.938 54.5312 469.094 53.25 469.281 51.75C469.531 50.1875 469.812 48.3125 470.125 46.125C470.438 47.75 470.875 49.1562 471.438 50.3438C472.062 51.5312 472.656 52.5625 473.219 53.4375C473.906 54.4375 474.562 55.2812 475.188 55.9688C476.125 56.8438 477.219 57.6562 478.469 58.4062C479.781 59.1562 481.094 59.8125 482.406 60.375C483.719 60.875 484.969 61.1875 486.156 61.3125C487.344 61.4375 488.344 61.3125 489.156 60.9375C489.969 60.5625 490.656 59.875 491.219 58.875C491.844 57.875 492.281 56.7812 492.531 55.5938C492.781 54.4062 492.875 53.2812 492.812 52.2188C492.75 51.0938 492.469 50.1875 491.969 49.5C491.594 49.0625 490.719 48.5 489.344 47.8125C488.031 47.125 486.438 46.375 484.562 45.5625C482.75 44.75 480.812 43.9062 478.75 43.0312C476.75 42.1562 474.844 41.2812 473.031 40.4062C471.281 39.4688 469.812 38.5938 468.625 37.7812C467.5 36.9062 466.875 36.125 466.75 35.4375C466.625 34.4375 466.531 33.3438 466.469 32.1562C466.406 30.9062 466.469 29.6875 466.656 28.5C466.906 27.25 467.344 26.0625 467.969 24.9375C468.656 23.8125 469.656 22.875 470.969 22.125C471.844 21.625 473 21.25 474.438 21C475.875 20.75 477.469 20.625 479.219 20.625C480.969 20.5625 482.781 20.625 484.656 20.8125C486.531 20.9375 488.312 21.125 490 21.375C491.75 21.5625 493.312 21.8125 494.688 22.125C496.125 22.4375 497.219 22.7188 497.969 22.9688C498.844 23.2812 499.781 23.3125 500.781 23.0625C501.656 22.875 502.594 22.4688 503.594 21.8438C504.594 21.2188 505.625 20.0938 506.688 18.4688ZM512.219 74.625C512.844 73.6875 513.344 72.8125 513.719 72C514.094 71.1875 514.406 70.5 514.656 69.9375C514.906 69.25 515.094 68.625 515.219 68.0625C515.281 67.6875 515.312 66.5938 515.312 64.7812C515.312 62.9688 515.25 60.6875 515.125 57.9375C515.062 55.1875 514.969 52.0938 514.844 48.6562C514.781 45.2188 514.656 41.7188 514.469 38.1562C514.344 34.5938 514.188 31.125 514 27.75C513.875 24.375 513.75 21.3438 513.625 18.6562C513.5 15.9062 513.375 13.6562 513.25 11.9062C513.125 10.1563 513.031 9.15625 512.969 8.90625C512.844 8.53125 512.625 8.15625 512.312 7.78125C511.688 7.03125 510.625 6.3125 509.125 5.625C512.312 4.8125 514.75 4.15625 516.438 3.65625C517.438 3.40625 518.312 3.15625 519.062 2.90625C519.75 2.65625 520.438 2.40625 521.125 2.15625C521.688 1.90625 522.312 1.625 523 1.3125C523.688 0.9375 524.312 0.53125 524.875 0.09375C524.562 1.90625 524.312 3.65625 524.125 5.34375C523.938 7.03125 523.781 8.59375 523.656 10.0312C523.531 11.6563 523.469 13.2188 523.469 14.7188C523.156 17.7812 522.969 21.125 522.906 24.75C522.906 28.3125 522.938 31.9375 523 35.625C523.062 39.3125 523.188 42.9062 523.375 46.4062C523.562 49.9062 523.75 53.0938 523.938 55.9688C524.188 58.7812 524.406 61.1875 524.594 63.1875C524.844 65.125 525.031 66.375 525.156 66.9375C525.406 67.875 525.656 68.7812 525.906 69.6562C526.156 70.4062 526.438 71.1875 526.75 72C527.062 72.875 527.438 73.5625 527.875 74.0625H518.781C517.969 74.0625 517.188 74.0938 516.438 74.1562C515.75 74.2188 515.031 74.2812 514.281 74.3438C513.531 74.4062 512.844 74.5 512.219 74.625ZM555.625 56.9062C557.375 56.9062 559 56.7188 560.5 56.3438C561.75 56.0312 562.938 55.5312 564.062 54.8438C565.25 54.0938 566.031 53 566.406 51.5625C567.656 51.8125 568.719 52.0312 569.594 52.2188C570.469 52.3438 571.219 52.4688 571.844 52.5938C572.531 52.7812 573.125 52.9062 573.625 52.9688C574.125 53.0938 574.719 53.2188 575.406 53.3438C576.031 53.4688 576.781 53.625 577.656 53.8125C578.594 53.9375 579.688 54.125 580.938 54.375C580 54.25 579.031 54.3438 578.031 54.6562C577.094 54.9688 576.188 55.3125 575.312 55.6875C574.312 56.125 573.375 56.6562 572.5 57.2812C571.938 57.6562 571.281 58.2188 570.531 58.9688C569.844 59.7188 568.844 60.4375 567.531 61.125C566.219 61.8125 564.469 62.4062 562.281 62.9062C560.156 63.3438 557.406 63.5 554.031 63.375C549.969 63.25 546.562 62.5312 543.812 61.2188C541.062 59.8438 538.844 58.1875 537.156 56.25C535.469 54.25 534.25 52.0938 533.5 49.7812C532.75 47.4688 532.344 45.3125 532.281 43.3125C532.219 41.3125 532.812 39.2188 534.062 37.0312C535.312 34.8438 537.062 32.8438 539.312 31.0312C541.625 29.2188 544.406 27.75 547.656 26.625C550.906 25.4375 554.469 24.8438 558.344 24.8438C560.594 24.8438 562.656 25.125 564.531 25.6875C566.469 26.1875 568.219 26.875 569.781 27.75C571.406 28.625 572.812 29.625 574 30.75C575.188 31.8125 576.188 32.9062 577 34.0312C577.812 35.2188 578.5 36.4688 579.062 37.7812C579.562 38.9062 579.969 40.1875 580.281 41.625C580.594 43.0625 580.688 44.5312 580.562 46.0312C575.812 46.1562 571.969 46.25 569.031 46.3125C566.156 46.375 563.906 46.4062 562.281 46.4062H558.062H554.875C553.75 46.4062 552.281 46.4375 550.469 46.5C548.656 46.5625 546.438 46.6562 543.812 46.7812C544.125 49.2812 544.906 51.2188 546.156 52.5938C547.469 53.9062 548.844 54.9062 550.281 55.5938C551.906 56.3438 553.688 56.7812 555.625 56.9062ZM547.188 40.0312C549.188 40.1562 550.844 40.25 552.156 40.3125C553.531 40.375 554.656 40.4375 555.531 40.5C556.469 40.5625 557.219 40.5938 557.781 40.5938H560.125C561.688 40.5938 564.594 40.5 568.844 40.3125C568.656 37.5625 568.062 35.4688 567.062 34.0312C566.125 32.5938 565.125 31.5312 564.062 30.8438C562.812 30.0938 561.438 29.6562 559.938 29.5312C555.875 29.5938 552.844 30.4375 550.844 32.0625C548.906 33.6875 547.688 36.3438 547.188 40.0312ZM584.312 30.0938L601.562 30.2812C600.562 34.0938 599.812 37.3438 599.312 40.0312C598.875 42.7188 598.594 44.9688 598.469 46.7812C598.219 48.8438 598.156 50.5938 598.281 52.0312C598.469 53.3438 598.781 54.75 599.219 56.25C599.594 57.5 600.156 58.9375 600.906 60.5625C601.656 62.1875 602.656 63.8125 603.906 65.4375C603.156 65.1875 602.344 65 601.469 64.875C600.594 64.75 599.781 64.6562 599.031 64.5938C598.156 64.5312 597.281 64.5312 596.406 64.5938C595.531 64.6562 594.562 64.75 593.5 64.875C592.625 65 591.562 65.1562 590.312 65.3438C589.062 65.5312 587.75 65.7812 586.375 66.0938C587.312 63.2812 588.031 60.8438 588.531 58.7812C589.094 56.7188 589.5 55 589.75 53.625C590 52 590.156 50.6875 590.219 49.6875C590.219 48.4375 590.219 47.0312 590.219 45.4688C590.219 43.8438 590.219 42.2812 590.219 40.7812C590.219 39.2812 590.188 37.9688 590.125 36.8438C590.062 35.6562 589.938 34.9062 589.75 34.5938L588.812 33.6562C588.438 33.3438 587.875 32.9062 587.125 32.3438C586.438 31.7188 585.5 30.9688 584.312 30.0938ZM590.969 15.6562C592.281 14.9688 593.594 14.7812 594.906 15.0938C596.281 15.4062 597.344 16 598.094 16.875C598.844 17.75 599.094 18.7812 598.844 19.9688C598.656 21.1562 597.656 22.3125 595.844 23.4375C594.031 24.5 592.438 24.875 591.062 24.5625C589.688 24.25 588.719 23.5938 588.156 22.5938C587.594 21.5938 587.5 20.4375 587.875 19.125C588.25 17.75 589.281 16.5938 590.969 15.6562ZM651.531 32.25C651.344 31 651.188 29.9688 651.062 29.1562C650.938 28.2812 650.812 27.5938 650.688 27.0938C650.562 26.4688 650.469 26 650.406 25.6875C650.281 25.375 650.125 25.0312 649.938 24.6562C649.812 24.3438 649.594 23.9688 649.281 23.5312C649.031 23.0938 648.719 22.5938 648.344 22.0312C649.156 22.2812 649.969 22.4375 650.781 22.5C651.656 22.5625 652.469 22.625 653.219 22.6875C654.031 22.75 654.875 22.75 655.75 22.6875C656.625 22.6875 657.625 22.6562 658.75 22.5938C659.75 22.5312 660.938 22.5 662.312 22.5C663.75 22.4375 665.375 22.3438 667.188 22.2188C666.125 22.4688 665.219 22.9062 664.469 23.5312C663.781 24.0938 663.188 24.7188 662.688 25.4062C662.125 26.1562 661.656 26.9688 661.281 27.8438C660.969 28.6562 660.781 30.2188 660.719 32.5312C660.656 34.7812 660.656 37.4688 660.719 40.5938C660.781 43.6562 660.844 46.9688 660.906 50.5312C661.031 54.0938 661.094 57.5 661.094 60.75C661.156 64 661.156 66.9688 661.094 69.6562C661.031 72.2812 660.875 74.2188 660.625 75.4688C659.75 79.4062 658.125 82.5938 655.75 85.0312C653.375 87.5312 650.25 88.875 646.375 89.0625C641.688 89.25 637.969 88.8125 635.219 87.75C632.531 86.6875 630.438 85.375 628.938 83.8125C627.438 82.3125 626.312 80.7812 625.562 79.2188C624.812 77.6562 624.031 76.4688 623.219 75.6562C622.469 74.9688 621.719 74.3125 620.969 73.6875C620.281 73.1875 619.562 72.6875 618.812 72.1875C618.125 71.6875 617.438 71.375 616.75 71.25C618.562 71.3125 620.188 71.3438 621.625 71.3438C623.062 71.3438 624.281 71.3438 625.281 71.3438C626.406 71.3438 627.406 71.3125 628.281 71.25H631.281H639.812C638.562 71.625 637.625 72.0312 637 72.4688C636.375 72.9688 635.938 73.4688 635.688 73.9688C635.438 74.5312 635.312 75.0938 635.312 75.6562C635.562 77.1562 636.375 78.25 637.75 78.9375C639.125 79.625 641 80.0312 643.375 80.1562C645.688 80.2812 647.281 80.2188 648.156 79.9688C649.031 79.7812 649.719 79.4062 650.219 78.8438C651.219 77.3438 652.062 75.4062 652.75 73.0312C653.25 71.0312 653.594 68.4375 653.781 65.25C654.031 62 653.75 58.0312 652.938 53.3438C650.938 56.0938 648.625 58.1562 646 59.5312C643.375 60.9062 640.875 61.9062 638.5 62.5312C635.688 63.2188 632.844 63.5625 629.969 63.5625C622.406 63.25 616.75 61.5 613 58.3125C609.25 55.125 607.531 50.8438 607.844 45.4688C608.031 42.7812 608.844 40.0938 610.281 37.4062C611.781 34.7188 613.719 32.3125 616.094 30.1875C618.531 28.0625 621.312 26.375 624.438 25.125C627.562 23.875 630.812 23.3438 634.188 23.5312C636.75 23.7812 639.156 24.25 641.406 24.9375C643.344 25.5625 645.25 26.4375 647.125 27.5625C649.062 28.6875 650.531 30.25 651.531 32.25ZM621.719 41.625C621.344 44.0625 621.5 46.3438 622.188 48.4688C622.938 50.5938 623.969 52.4375 625.281 54C626.594 55.5 628.062 56.6875 629.688 57.5625C631.312 58.375 632.844 58.75 634.281 58.6875C637.281 58.625 639.875 57.2812 642.062 54.6562C644.25 51.9688 645.562 47.9688 646 42.6562C646.188 40.0312 645.844 37.7812 644.969 35.9062C644.156 33.9688 643.125 32.4062 641.875 31.2188C640.625 30.0312 639.312 29.1875 637.938 28.6875C636.562 28.1875 635.469 27.9688 634.656 28.0312C633.531 28.1562 632.281 28.5 630.906 29.0625C629.594 29.5625 628.312 30.3438 627.062 31.4062C625.812 32.4062 624.688 33.75 623.688 35.4375C622.75 37.125 622.094 39.1875 621.719 41.625ZM667.562 0.9375C669 1.1875 670.312 1.375 671.5 1.5C672.688 1.5625 673.688 1.625 674.5 1.6875C675.438 1.75 676.25 1.78125 676.938 1.78125C677.875 1.71875 678.969 1.625 680.219 1.5C681.281 1.375 682.562 1.21875 684.062 1.03125C685.625 0.84375 687.406 0.59375 689.406 0.28125C688.469 0.78125 687.688 1.28125 687.062 1.78125C686.438 2.21875 685.938 2.6875 685.562 3.1875C685.125 3.75 684.781 4.28125 684.531 4.78125C684.219 5.59375 683.875 7.28125 683.5 9.84375C683.125 12.0312 682.656 15.2812 682.094 19.5938C681.594 23.9062 680.938 29.75 680.125 37.125C682.375 34.875 684.5 33.1875 686.5 32.0625C688.562 30.875 690.375 30.0312 691.938 29.5312C693.75 28.9688 695.438 28.6875 697 28.6875C698.938 28.875 700.906 29.5 702.906 30.5625C704.969 31.5625 706.875 32.75 708.625 34.125C710.438 35.5 712 36.9688 713.312 38.5312C714.688 40.0938 715.656 41.4688 716.219 42.6562C716.594 43.4688 716.781 44.5312 716.781 45.8438C716.781 47.0938 716.656 48.4688 716.406 49.9688C716.156 51.4688 715.812 53 715.375 54.5625C714.938 56.125 714.5 57.5938 714.062 58.9688C713.688 60.3438 713.344 61.5625 713.031 62.625C712.719 63.625 712.531 64.3438 712.469 64.7812C712.344 65.7188 712.406 66.625 712.656 67.5C712.844 68.25 713.219 69.0625 713.781 69.9375C714.344 70.75 715.188 71.4375 716.312 72C715.438 71.875 714.5 71.7812 713.5 71.7188C712.562 71.5938 711.656 71.5 710.781 71.4375C709.781 71.375 708.781 71.3438 707.781 71.3438H704.406C703.344 71.3438 702.125 71.375 700.75 71.4375C699.375 71.4375 697.875 71.4688 696.25 71.5312C697.125 71.2188 697.875 70.8125 698.5 70.3125C699.125 69.75 699.656 69.2188 700.094 68.7188C700.594 68.1562 701.031 67.5625 701.406 66.9375C701.656 66.4375 701.969 65.5 702.344 64.125C702.719 62.6875 703.062 61.0625 703.375 59.25C703.688 57.375 703.906 55.4062 704.031 53.3438C704.219 51.2812 704.25 49.3125 704.125 47.4375C704.062 45.5 703.781 43.7812 703.281 42.2812C702.844 40.7812 702.156 39.6875 701.219 39C698.406 36.875 695.844 35.8438 693.531 35.9062C691.281 35.9062 689.125 36.8125 687.062 38.625C686.312 39.3125 685.594 40 684.906 40.6875C684.281 41.3125 683.594 42.0625 682.844 42.9375C682.094 43.75 681.406 44.5938 680.781 45.4688C680.781 46.4062 680.812 47.4375 680.875 48.5625C680.938 49.6875 681 50.7812 681.062 51.8438C681.125 53.0312 681.219 54.2188 681.344 55.4062C681.469 57.2188 681.656 59 681.906 60.75C682.094 62.25 682.344 63.9062 682.656 65.7188C682.969 67.4688 683.375 69.0625 683.875 70.5C683.062 70.375 682.219 70.3438 681.344 70.4062C680.469 70.4062 679.625 70.4062 678.812 70.4062C677.875 70.4688 676.969 70.5 676.094 70.5C675.281 70.5625 674.438 70.6562 673.562 70.7812C672.812 70.9062 672 71.0312 671.125 71.1562C670.25 71.2188 669.406 71.3438 668.594 71.5312C669.344 70.0938 669.969 68.6875 670.469 67.3125C670.969 65.875 671.375 64.625 671.688 63.5625C672.062 62.3125 672.375 61.0938 672.625 59.9062C672.812 58.9688 672.938 57.1875 673 54.5625C673.125 51.875 673.219 48.8125 673.281 45.375C673.344 41.875 673.375 38.1875 673.375 34.3125C673.375 30.4375 673.344 26.75 673.281 23.25C673.219 19.75 673.094 16.6875 672.906 14.0625C672.781 11.4375 672.625 9.625 672.438 8.625C672.188 7.625 671.844 6.625 671.406 5.625C671.031 4.75 670.531 3.90625 669.906 3.09375C669.281 2.21875 668.5 1.5 667.562 0.9375Z" fill="black"/>
</svg>
