<svg width="250" height="75" viewBox="0 0 250 75" fill="none" xmlns="http://www.w3.org/2000/svg">
<path d="M0.09375 5.4375C2.28125 5.6875 4.125 5.875 5.625 6C7.125 6.0625 8.3125 6.125 9.1875 6.1875C10.25 6.25 11.0938 6.28125 11.7188 6.28125C12.7812 6.28125 14 6.25 15.375 6.1875C16.5625 6.125 17.9375 6.03125 19.5 5.90625C21.125 5.71875 22.875 5.4375 24.75 5.0625C23.875 6 23.1562 6.90625 22.5938 7.78125C22.0312 8.59375 21.5938 9.34375 21.2812 10.0312C20.9062 10.7812 20.5938 11.4688 20.3438 12.0938C20.0938 12.9062 19.8125 14.1562 19.5 15.8438C19.1875 17.2812 18.8438 19.3125 18.4688 21.9375C18.1562 24.5625 17.75 28 17.25 32.25C19.375 32.3125 21.2188 32.3438 22.7812 32.3438C24.3438 32.2812 25.6562 32.25 26.7188 32.25H29.8125C30.6875 32.1875 31.6875 32.125 32.8125 32.0625C34.6875 32 37.5312 31.8125 41.3438 31.5C41.6562 28.625 41.8125 26.1562 41.8125 24.0938C41.875 21.9688 41.8438 20.1875 41.7188 18.75C41.5938 17.125 41.4062 15.75 41.1562 14.625C40.9688 14 40.6875 13.25 40.3125 12.375C40 11.625 39.5625 10.7188 39 9.65625C38.5 8.53125 37.8125 7.1875 36.9375 5.625C38.5625 5.875 40 6.0625 41.25 6.1875C42.5625 6.25 43.6562 6.3125 44.5312 6.375C45.5312 6.4375 46.375 6.46875 47.0625 6.46875C47.75 6.46875 48.6562 6.4375 49.7812 6.375C50.7188 6.3125 51.875 6.28125 53.25 6.28125C54.625 6.21875 56.3125 6.125 58.3125 6C57.8125 6.875 57.375 7.78125 57 8.71875C56.625 9.65625 56.3125 10.5 56.0625 11.25C55.8125 12.125 55.5625 13 55.3125 13.875C55 15.1875 54.7188 17.0938 54.4688 19.5938C54.2812 22.0938 54.0938 24.875 53.9062 27.9375C53.7812 31 53.6562 34.1875 53.5312 37.5C53.4688 40.8125 53.4062 43.9375 53.3438 46.875C53.3438 49.8125 53.375 52.4375 53.4375 54.75C53.5 57 53.625 58.5938 53.8125 59.5312C54 60.6562 54.3125 61.8125 54.75 63C55.125 64.0625 55.625 65.2188 56.25 66.4688C56.875 67.6562 57.6875 68.7812 58.6875 69.8438L36.0938 71.5312C37.0312 70.6562 37.7812 69.8125 38.3438 69C38.9062 68.125 39.3438 67.375 39.6562 66.75C39.9688 66.0625 40.1875 65.4062 40.3125 64.7812C40.375 64.0312 40.4688 62.7188 40.5938 60.8438C40.7188 59.2812 40.8438 57.0625 40.9688 54.1875C41.0938 51.3125 41.2188 47.5 41.3438 42.75C40.4688 42.75 39.4062 42.7812 38.1562 42.8438C36.9688 42.8438 35.8438 42.875 34.7812 42.9375C33.5312 43 32.2188 43.0312 30.8438 43.0312C29.4688 43.0938 28.0312 43.1562 26.5312 43.2188C25.2812 43.3438 23.875 43.4688 22.3125 43.5938C20.8125 43.6562 19.3125 43.75 17.8125 43.875C17.6875 46.5 17.6875 48.8125 17.8125 50.8125C17.9375 52.75 18.125 54.4062 18.375 55.7812C18.625 57.4062 18.9375 58.8125 19.3125 60C19.6875 61.125 20.0938 62.25 20.5312 63.375C20.9062 64.375 21.3438 65.4375 21.8438 66.5625C22.4062 67.6875 22.9688 68.6875 23.5312 69.5625C22.3438 69.4375 21.25 69.3438 20.25 69.2812C19.25 69.1562 18.375 69.0312 17.625 68.9062C16.75 68.8438 15.9062 68.7812 15.0938 68.7188C14.2812 68.7188 13.3125 68.6875 12.1875 68.625C11.1875 68.5625 9.9375 68.5312 8.4375 68.5312C6.9375 68.4688 5.1875 68.4375 3.1875 68.4375C4.375 67.25 5.3125 66.0938 6 64.9688C6.75 63.7812 7.28125 62.7188 7.59375 61.7812C7.96875 60.6562 8.21875 59.625 8.34375 58.6875C8.40625 57.875 8.4375 56.3438 8.4375 54.0938C8.5 51.8438 8.5 49.2812 8.4375 46.4062C8.4375 43.4688 8.40625 40.4062 8.34375 37.2188C8.28125 33.9688 8.1875 30.9375 8.0625 28.125C8 25.3125 7.90625 22.9062 7.78125 20.9062C7.71875 18.8438 7.65625 17.5625 7.59375 17.0625C7.28125 15.9375 6.8125 14.7188 6.1875 13.4062C5.625 12.3438 4.875 11.125 3.9375 9.75C3 8.3125 1.71875 6.875 0.09375 5.4375ZM68.0625 34.0312C68.375 33.6562 68.5625 32.9688 68.625 31.9688C68.75 30.9062 69 29.7188 69.375 28.4062C69.8125 27.0938 70.5312 25.7188 71.5312 24.2812C72.5312 22.8438 74.1562 21.5 76.4062 20.25C78.5938 19 80.7188 18.25 82.7812 18C84.8438 17.75 86.8125 17.8438 88.6875 18.2812C90.5625 18.7188 92.3125 19.4062 93.9375 20.3438C95.625 21.2812 97.1562 22.3125 98.5312 23.4375C99.4688 24.1875 100.219 25.2812 100.781 26.7188C101.344 28.0938 101.781 29.6562 102.094 31.4062C102.406 33.1562 102.625 35 102.75 36.9375C102.938 38.8125 103.062 40.6562 103.125 42.4688C103.188 44.2188 103.219 45.8438 103.219 47.3438C103.281 48.7812 103.406 49.9688 103.594 50.9062C103.844 52.2812 104.281 53.4688 104.906 54.4688C105.531 55.4062 106.219 56.2188 106.969 56.9062C107.719 57.5312 108.469 58.0312 109.219 58.4062C109.969 58.7812 110.625 59.0625 111.188 59.25C111.562 59.4375 111.906 59.5625 112.219 59.625C112.844 59.875 113.281 59.875 113.531 59.625C113.156 60.5 112.812 61.25 112.5 61.875C112.188 62.5 111.938 63.0312 111.75 63.4688C111.5 63.9688 111.281 64.375 111.094 64.6875C110.906 65.0625 110.688 65.4062 110.438 65.7188C110.25 66.0312 110 66.375 109.688 66.75C109.375 67.125 109.062 67.5312 108.75 67.9688C107.938 67.6562 107.156 67.2812 106.406 66.8438C105.719 66.4062 105.094 66 104.531 65.625C103.844 65.1875 103.219 64.75 102.656 64.3125C102.094 63.875 101.562 63.375 101.062 62.8125C100.625 62.3125 100.156 61.7812 99.6562 61.2188C99.2188 60.6562 98.8438 60.0312 98.5312 59.3438C98.1562 60.1562 97.25 61.3125 95.8125 62.8125C94.4375 64.3125 92.625 65.6875 90.375 66.9375C88.125 68.125 85.5 68.9688 82.5 69.4688C79.5625 69.9688 76.3125 69.625 72.75 68.4375C71.1875 67.9375 69.7188 67.2188 68.3438 66.2812C66.9688 65.2812 65.7812 64.0938 64.7812 62.7188C63.8438 61.3438 63.1562 59.7812 62.7188 58.0312C62.3438 56.2188 62.375 54.2188 62.8125 52.0312C63.25 49.8438 64.0312 48 65.1562 46.5C66.2812 45 67.625 43.7812 69.1875 42.8438C70.75 41.9062 72.5 41.1875 74.4375 40.6875C76.375 40.1875 78.375 39.8438 80.4375 39.6562C82.0625 39.5938 83.6875 39.6875 85.3125 39.9375C86.6875 40.1875 88.125 40.6562 89.625 41.3438C91.125 41.9688 92.4062 42.9375 93.4688 44.25C93.4062 40.9375 93.2812 38.3125 93.0938 36.375C92.9688 34.375 92.8438 32.8438 92.7188 31.7812C92.4688 30.5312 92.25 29.6562 92.0625 29.1562C91.75 28.7188 91.4062 28.2188 91.0312 27.6562C90.7188 27.0938 90.3125 26.5938 89.8125 26.1562C89.3125 25.6562 88.6875 25.25 87.9375 24.9375C87.1875 24.625 86.3125 24.5 85.3125 24.5625C84.25 24.625 83.4062 24.9062 82.7812 25.4062C82.1562 25.9062 81.6562 26.5 81.2812 27.1875C80.9688 27.8125 80.7812 28.5 80.7188 29.25C80.6562 30 80.6875 30.6562 80.8125 31.2188C80.9375 31.5938 81.125 32 81.375 32.4375C81.625 32.8125 81.9688 33.2188 82.4062 33.6562C82.8438 34.0938 83.4375 34.4688 84.1875 34.7812C82.75 34.9688 81.4688 35.125 80.3438 35.25C79.2188 35.3125 78.25 35.4062 77.4375 35.5312C76.5 35.6562 75.6875 35.75 75 35.8125C74.3125 35.875 73.5 36 72.5625 36.1875C71.75 36.3125 70.75 36.4688 69.5625 36.6562C68.375 36.8438 67 37.0938 65.4375 37.4062C65.8125 36.9688 66.1562 36.5625 66.4688 36.1875C66.7812 35.75 67.0625 35.375 67.3125 35.0625C67.5625 34.6875 67.8125 34.3438 68.0625 34.0312ZM82.125 45.1875C81 45.25 79.875 45.5312 78.75 46.0312C77.625 46.4688 76.625 47.125 75.75 48C74.875 48.8125 74.125 49.7812 73.5 50.9062C72.9375 51.9688 72.6562 53.1562 72.6562 54.4688C72.6562 55.7812 72.9688 56.9375 73.5938 57.9375C74.2812 58.875 75.1562 59.6562 76.2188 60.2812C77.3438 60.9062 78.5312 61.2812 79.7812 61.4062C81.0938 61.5312 82.375 61.4062 83.625 61.0312C84.8125 60.5938 85.9375 59.9062 87 58.9688C88.0625 57.9688 88.9688 56.9062 89.7188 55.7812C90.4688 54.5938 91 53.4375 91.3125 52.3125C91.625 51.125 91.6562 50.1562 91.4062 49.4062C90.9062 47.7812 89.7812 46.6562 88.0312 46.0312C86.2812 45.3438 84.3125 45.0625 82.125 45.1875ZM111.656 17.7188C114.531 17.9688 117.062 18.1562 119.25 18.2812C121.5 18.3438 123.375 18.4375 124.875 18.5625C126.625 18.6875 128.156 18.7812 129.469 18.8438C130.844 18.9062 132.594 18.9062 134.719 18.8438C136.531 18.8438 138.844 18.8125 141.656 18.75C144.531 18.625 148.031 18.4375 152.156 18.1875L151.406 31.2188C149.594 33.0312 147.969 34.7188 146.531 36.2812C145.156 37.8438 143.938 39.1875 142.875 40.3125C141.688 41.625 140.625 42.8125 139.688 43.875C138.75 45 137.688 46.3438 136.5 47.9062C135.438 49.2812 134.156 50.9688 132.656 52.9688C131.156 54.9062 129.438 57.1875 127.5 59.8125C130.938 59.625 133.75 59.4375 135.938 59.25C138.125 59 139.844 58.7812 141.094 58.5938C142.594 58.3438 143.688 58.1562 144.375 58.0312C145 57.7812 145.719 57.25 146.531 56.4375C147.219 55.75 148.062 54.7188 149.062 53.3438C150.062 51.9688 151.188 50.0938 152.438 47.7188C152.438 49.6562 152.438 51.3125 152.438 52.6875C152.5 54 152.531 55.0938 152.531 55.9688V58.5V60.6562C152.531 61.3438 152.531 62.1875 152.531 63.1875C152.594 64.1875 152.656 65.3125 152.719 66.5625C150.281 66.25 148.062 66.0312 146.062 65.9062C144.062 65.7188 142.344 65.5938 140.906 65.5312C139.219 65.4688 137.688 65.4688 136.312 65.5312C134.938 65.6562 133.219 65.7812 131.156 65.9062C129.406 66.0312 127.25 66.1562 124.688 66.2812C122.125 66.4062 119.094 66.5625 115.594 66.75L113.531 56.8125C114.656 56.3125 116 55.3438 117.562 53.9062C119.125 52.4688 120.625 51 122.062 49.5C123.688 47.75 125.406 45.8438 127.219 43.7812C128.969 41.7188 130.688 39.6562 132.375 37.5938C133.812 35.8438 135.312 34.0312 136.875 32.1562C138.5 30.2812 139.906 28.625 141.094 27.1875C137.719 27.3125 134.938 27.5625 132.75 27.9375C130.562 28.25 128.844 28.5625 127.594 28.875C126.094 29.25 124.969 29.6875 124.219 30.1875C123.531 30.75 122.688 31.5938 121.688 32.7188C120.812 33.6562 119.75 34.9375 118.5 36.5625C117.25 38.125 115.812 40.1562 114.188 42.6562C114.188 40.5938 114.156 38.75 114.094 37.125C114.031 35.4375 113.969 34.0312 113.906 32.9062C113.781 31.5938 113.688 30.4375 113.625 29.4375C113.5 28.4375 113.344 27.3438 113.156 26.1562C113.031 25.0938 112.812 23.875 112.5 22.5C112.25 21.0625 111.969 19.4688 111.656 17.7188ZM156 30.0938L173.25 30.2812C172.25 34.0938 171.5 37.3438 171 40.0312C170.562 42.7188 170.281 44.9688 170.156 46.7812C169.906 48.8438 169.844 50.5938 169.969 52.0312C170.156 53.3438 170.469 54.75 170.906 56.25C171.281 57.5 171.844 58.9375 172.594 60.5625C173.344 62.1875 174.344 63.8125 175.594 65.4375C174.844 65.1875 174.031 65 173.156 64.875C172.281 64.75 171.469 64.6562 170.719 64.5938C169.844 64.5312 168.969 64.5312 168.094 64.5938C167.219 64.6562 166.25 64.75 165.188 64.875C164.312 65 163.25 65.1562 162 65.3438C160.75 65.5312 159.438 65.7812 158.062 66.0938C159 63.2812 159.719 60.8438 160.219 58.7812C160.781 56.7188 161.188 55 161.438 53.625C161.688 52 161.844 50.6875 161.906 49.6875C161.906 48.4375 161.906 47.0312 161.906 45.4688C161.906 43.8438 161.906 42.2812 161.906 40.7812C161.906 39.2812 161.875 37.9688 161.812 36.8438C161.75 35.6562 161.625 34.9062 161.438 34.5938L160.5 33.6562C160.125 33.3438 159.562 32.9062 158.812 32.3438C158.125 31.7188 157.188 30.9688 156 30.0938ZM162.656 15.6562C163.969 14.9688 165.281 14.7812 166.594 15.0938C167.969 15.4062 169.031 16 169.781 16.875C170.531 17.75 170.781 18.7812 170.531 19.9688C170.344 21.1562 169.344 22.3125 167.531 23.4375C165.719 24.5 164.125 24.875 162.75 24.5625C161.375 24.25 160.406 23.5938 159.844 22.5938C159.281 21.5938 159.188 20.4375 159.562 19.125C159.938 17.75 160.969 16.5938 162.656 15.6562ZM203.344 56.9062C205.094 56.9062 206.719 56.7188 208.219 56.3438C209.469 56.0312 210.656 55.5312 211.781 54.8438C212.969 54.0938 213.75 53 214.125 51.5625C215.375 51.8125 216.438 52.0312 217.312 52.2188C218.188 52.3438 218.938 52.4688 219.562 52.5938C220.25 52.7812 220.844 52.9062 221.344 52.9688C221.844 53.0938 222.438 53.2188 223.125 53.3438C223.75 53.4688 224.5 53.625 225.375 53.8125C226.312 53.9375 227.406 54.125 228.656 54.375C227.719 54.25 226.75 54.3438 225.75 54.6562C224.812 54.9688 223.906 55.3125 223.031 55.6875C222.031 56.125 221.094 56.6562 220.219 57.2812C219.656 57.6562 219 58.2188 218.25 58.9688C217.562 59.7188 216.562 60.4375 215.25 61.125C213.938 61.8125 212.188 62.4062 210 62.9062C207.875 63.3438 205.125 63.5 201.75 63.375C197.688 63.25 194.281 62.5312 191.531 61.2188C188.781 59.8438 186.562 58.1875 184.875 56.25C183.188 54.25 181.969 52.0938 181.219 49.7812C180.469 47.4688 180.062 45.3125 180 43.3125C179.938 41.3125 180.531 39.2188 181.781 37.0312C183.031 34.8438 184.781 32.8438 187.031 31.0312C189.344 29.2188 192.125 27.75 195.375 26.625C198.625 25.4375 202.188 24.8438 206.062 24.8438C208.312 24.8438 210.375 25.125 212.25 25.6875C214.188 26.1875 215.938 26.875 217.5 27.75C219.125 28.625 220.531 29.625 221.719 30.75C222.906 31.8125 223.906 32.9062 224.719 34.0312C225.531 35.2188 226.219 36.4688 226.781 37.7812C227.281 38.9062 227.688 40.1875 228 41.625C228.312 43.0625 228.406 44.5312 228.281 46.0312C223.531 46.1562 219.688 46.25 216.75 46.3125C213.875 46.375 211.625 46.4062 210 46.4062H205.781H202.594C201.469 46.4062 200 46.4375 198.188 46.5C196.375 46.5625 194.156 46.6562 191.531 46.7812C191.844 49.2812 192.625 51.2188 193.875 52.5938C195.188 53.9062 196.562 54.9062 198 55.5938C199.625 56.3438 201.406 56.7812 203.344 56.9062ZM194.906 40.0312C196.906 40.1562 198.562 40.25 199.875 40.3125C201.25 40.375 202.375 40.4375 203.25 40.5C204.188 40.5625 204.938 40.5938 205.5 40.5938H207.844C209.406 40.5938 212.312 40.5 216.562 40.3125C216.375 37.5625 215.781 35.4688 214.781 34.0312C213.844 32.5938 212.844 31.5312 211.781 30.8438C210.531 30.0938 209.156 29.6562 207.656 29.5312C203.594 29.5938 200.562 30.4375 198.562 32.0625C196.625 33.6875 195.406 36.3438 194.906 40.0312ZM234.188 74.625C234.812 73.6875 235.312 72.8125 235.688 72C236.062 71.1875 236.375 70.5 236.625 69.9375C236.875 69.25 237.062 68.625 237.188 68.0625C237.25 67.6875 237.281 66.5938 237.281 64.7812C237.281 62.9688 237.219 60.6875 237.094 57.9375C237.031 55.1875 236.938 52.0938 236.812 48.6562C236.75 45.2188 236.625 41.7188 236.438 38.1562C236.312 34.5938 236.156 31.125 235.969 27.75C235.844 24.375 235.719 21.3438 235.594 18.6562C235.469 15.9062 235.344 13.6562 235.219 11.9062C235.094 10.1563 235 9.15625 234.938 8.90625C234.812 8.53125 234.594 8.15625 234.281 7.78125C233.656 7.03125 232.594 6.3125 231.094 5.625C234.281 4.8125 236.719 4.15625 238.406 3.65625C239.406 3.40625 240.281 3.15625 241.031 2.90625C241.719 2.65625 242.406 2.40625 243.094 2.15625C243.656 1.90625 244.281 1.625 244.969 1.3125C245.656 0.9375 246.281 0.53125 246.844 0.09375C246.531 1.90625 246.281 3.65625 246.094 5.34375C245.906 7.03125 245.75 8.59375 245.625 10.0312C245.5 11.6563 245.438 13.2188 245.438 14.7188C245.125 17.7812 244.938 21.125 244.875 24.75C244.875 28.3125 244.906 31.9375 244.969 35.625C245.031 39.3125 245.156 42.9062 245.344 46.4062C245.531 49.9062 245.719 53.0938 245.906 55.9688C246.156 58.7812 246.375 61.1875 246.562 63.1875C246.812 65.125 247 66.375 247.125 66.9375C247.375 67.875 247.625 68.7812 247.875 69.6562C248.125 70.4062 248.406 71.1875 248.719 72C249.031 72.875 249.406 73.5625 249.844 74.0625H240.75C239.938 74.0625 239.156 74.0938 238.406 74.1562C237.719 74.2188 237 74.2812 236.25 74.3438C235.5 74.4062 234.812 74.5 234.188 74.625Z" fill="black"/>
</svg>
