<svg width="288" height="75" viewBox="0 0 288 75" fill="none" xmlns="http://www.w3.org/2000/svg">
<path d="M28.0625 4.21875C30.875 4.59375 33.25 4.78125 35.1875 4.78125C36.25 4.78125 37.2188 4.75 38.0938 4.6875C38.9688 4.625 40.0625 4.53125 41.375 4.40625C42.5 4.28125 43.9062 4.15625 45.5938 4.03125C47.2812 3.90625 49.25 3.6875 51.5 3.375C50.6875 4 50.0625 4.71875 49.625 5.53125C49.1875 6.34375 48.8438 7.125 48.5938 7.875C48.3438 8.75 48.1562 9.65625 48.0312 10.5938C47.9688 11.1562 47.9375 12.3125 47.9375 14.0625C48 15.8125 48.0312 17.9375 48.0312 20.4375C48.0938 22.9375 48.0938 25.7188 48.0312 28.7812C48.0312 31.8438 47.9688 34.9688 47.8438 38.1562C47.7188 41.2812 47.5312 44.4062 47.2812 47.5312C47.0312 50.5938 46.6562 53.4375 46.1562 56.0625C45.7188 58.625 45.125 60.875 44.375 62.8125C43.6875 64.6875 42.8438 66 41.8438 66.75C39.7812 68.3125 37.5312 69.5938 35.0938 70.5938C32.6562 71.5312 30.25 72.1562 27.875 72.4688C25.5 72.7812 23.25 72.7812 21.125 72.4688C19.0625 72.2188 17.3125 71.5938 15.875 70.5938C14.9375 69.9062 14.0625 68.9375 13.25 67.6875C12.4375 66.4375 11.6875 65.0625 11 63.5625C10.375 62 9.78125 60.4062 9.21875 58.7812C8.71875 57.0938 8.28125 55.5625 7.90625 54.1875C7.46875 52.75 7.125 51.5 6.875 50.4375C6.5625 49.3125 6.34375 48.5625 6.21875 48.1875C5.96875 47.625 5.5625 47.0625 5 46.5C4.4375 45.9375 3.84375 45.4375 3.21875 45C2.59375 44.5625 2.0625 44.25 1.625 44.0625C1.125 43.8125 0.84375 43.75 0.78125 43.875C0.78125 44 1.28125 44.0312 2.28125 43.9688C3.21875 43.8438 4.375 43.7188 5.75 43.5938C7.125 43.4688 8.5625 43.375 10.0625 43.3125C11.5625 43.1875 12.8125 43.1562 13.8125 43.2188C14.625 43.2188 15.6875 43.25 17 43.3125C18.125 43.375 19.5625 43.4375 21.3125 43.5C23.0625 43.5 25.2188 43.5625 27.7812 43.6875C26.1562 44.1875 24.8438 44.75 23.8438 45.375C22.9062 45.9375 22.1875 46.4688 21.6875 46.9688C21.0625 47.5938 20.625 48.2188 20.375 48.8438C20.1875 49.4062 20.0312 50.5625 19.9062 52.3125C19.8438 54 19.9688 55.75 20.2812 57.5625C20.5938 59.375 21.1875 61.0312 22.0625 62.5312C22.9375 64.0312 24.3125 64.875 26.1875 65.0625C28.1875 65.25 29.8125 64.9062 31.0625 64.0312C32.375 63.0938 33.4062 61.8438 34.1562 60.2812C34.9062 58.7188 35.4688 56.9688 35.8438 55.0312C36.2188 53.0938 36.5312 51.1875 36.7812 49.3125C36.9688 48.0625 37.0312 46.3125 36.9688 44.0625C36.9062 41.8125 36.75 39.375 36.5 36.75C36.25 34.125 35.9375 31.4062 35.5625 28.5938C35.25 25.7812 34.9375 23.1875 34.625 20.8125C34.3125 18.4375 34 16.4062 33.6875 14.7188C33.4375 13.0312 33.2812 11.9687 33.2188 11.5312C32.9688 10.7188 32.625 9.875 32.1875 9C31.8125 8.3125 31.2812 7.53125 30.5938 6.65625C29.9688 5.78125 29.125 4.96875 28.0625 4.21875ZM54.7812 28.875C56.4062 29.1875 57.8125 29.4375 59 29.625C60.25 29.75 61.3125 29.875 62.1875 30C63.1875 30.125 64.0625 30.2188 64.8125 30.2812C65.5625 30.3438 66.4375 30.4062 67.4375 30.4688C69.125 30.5312 71.5 30.5312 74.5625 30.4688C72.75 30.3438 71.3125 30.8125 70.25 31.875C69.25 32.875 68.5 34.0312 68 35.3438C67.375 36.9062 67.0312 38.7188 66.9688 40.7812C66.8438 43.5312 66.9062 46.0312 67.1562 48.2812C67.4688 50.4688 68 52.3438 68.75 53.9062C69.5625 55.4062 70.625 56.5312 71.9375 57.2812C73.25 57.9688 74.9375 58.1562 77 57.8438C79.0625 57.5312 80.625 56.8125 81.6875 55.6875C82.8125 54.5 83.625 53.0625 84.125 51.375C84.625 49.625 84.9062 47.6562 84.9688 45.4688C85.0938 43.2812 85.1875 41 85.25 38.625C85.25 36.25 85.2188 34.5625 85.1562 33.5625C85.1562 32.5 85.125 31.8125 85.0625 31.5C85 31.1875 84.9062 31.0625 84.7812 31.125C84.6562 31.125 84.5 30.9688 84.3125 30.6562C84.1875 30.4062 84 30.1562 83.75 29.9062C83.5625 29.6562 83.3125 29.375 83 29.0625C82.6875 28.6875 82.3438 28.3125 81.9688 27.9375C83.5938 28 85.0312 28.0625 86.2812 28.125C87.5938 28.125 88.6875 28.1562 89.5625 28.2188C90.5625 28.2812 91.4375 28.3438 92.1875 28.4062C92.875 28.4688 93.7812 28.5625 94.9062 28.6875C95.8438 28.8125 97.0625 28.9375 98.5625 29.0625C100.062 29.1875 101.844 29.375 103.906 29.625C102.469 29.9375 101.312 30.4062 100.438 31.0312C99.5625 31.6562 98.875 32.2812 98.375 32.9062C97.8125 33.5938 97.4062 34.3438 97.1562 35.1562C96.9688 36.2188 96.9688 37.8438 97.1562 40.0312C97.2812 41.9688 97.5938 44.625 98.0938 48C98.5938 51.375 99.375 55.8125 100.438 61.3125L93.0312 65.7188L91.5312 53.25C89.7188 56.3125 87.7812 58.6875 85.7188 60.375C83.7188 62 81.8438 63.1875 80.0938 63.9375C78.0312 64.8125 76.0312 65.3125 74.0938 65.4375C71.5312 65.4375 69.3125 65.2812 67.4375 64.9688C65.625 64.5938 64.0625 64.125 62.75 63.5625C61.4375 63 60.375 62.375 59.5625 61.6875C58.8125 60.9375 58.25 60.1875 57.875 59.4375C57 57.875 56.5312 55.875 56.4688 53.4375C56.4062 50.9375 56.5 48.4688 56.75 46.0312C57 43.5312 57.2812 41.25 57.5938 39.1875C57.9062 37.125 58 35.7188 57.875 34.9688C57.75 34.4062 57.5625 33.7812 57.3125 33.0938C57.0625 32.5312 56.75 31.9062 56.375 31.2188C56 30.4688 55.4688 29.6875 54.7812 28.875ZM107.469 74.625C108.094 73.6875 108.594 72.8125 108.969 72C109.344 71.1875 109.656 70.5 109.906 69.9375C110.156 69.25 110.344 68.625 110.469 68.0625C110.531 67.6875 110.562 66.5938 110.562 64.7812C110.562 62.9688 110.5 60.6875 110.375 57.9375C110.312 55.1875 110.219 52.0938 110.094 48.6562C110.031 45.2188 109.906 41.7188 109.719 38.1562C109.594 34.5938 109.438 31.125 109.25 27.75C109.125 24.375 109 21.3438 108.875 18.6562C108.75 15.9062 108.625 13.6562 108.5 11.9062C108.375 10.1563 108.281 9.15625 108.219 8.90625C108.094 8.53125 107.875 8.15625 107.562 7.78125C106.938 7.03125 105.875 6.3125 104.375 5.625C107.562 4.8125 110 4.15625 111.688 3.65625C112.688 3.40625 113.562 3.15625 114.312 2.90625C115 2.65625 115.688 2.40625 116.375 2.15625C116.938 1.90625 117.562 1.625 118.25 1.3125C118.938 0.9375 119.562 0.53125 120.125 0.09375C119.812 1.90625 119.562 3.65625 119.375 5.34375C119.188 7.03125 119.031 8.59375 118.906 10.0312C118.781 11.6563 118.719 13.2188 118.719 14.7188C118.406 17.7812 118.219 21.125 118.156 24.75C118.156 28.3125 118.188 31.9375 118.25 35.625C118.312 39.3125 118.438 42.9062 118.625 46.4062C118.812 49.9062 119 53.0938 119.188 55.9688C119.438 58.7812 119.656 61.1875 119.844 63.1875C120.094 65.125 120.281 66.375 120.406 66.9375C120.656 67.875 120.906 68.7812 121.156 69.6562C121.406 70.4062 121.688 71.1875 122 72C122.312 72.875 122.688 73.5625 123.125 74.0625H114.031C113.219 74.0625 112.438 74.0938 111.688 74.1562C111 74.2188 110.281 74.2812 109.531 74.3438C108.781 74.4062 108.094 74.5 107.469 74.625ZM126.5 30.0938L143.75 30.2812C142.75 34.0938 142 37.3438 141.5 40.0312C141.062 42.7188 140.781 44.9688 140.656 46.7812C140.406 48.8438 140.344 50.5938 140.469 52.0312C140.656 53.3438 140.969 54.75 141.406 56.25C141.781 57.5 142.344 58.9375 143.094 60.5625C143.844 62.1875 144.844 63.8125 146.094 65.4375C145.344 65.1875 144.531 65 143.656 64.875C142.781 64.75 141.969 64.6562 141.219 64.5938C140.344 64.5312 139.469 64.5312 138.594 64.5938C137.719 64.6562 136.75 64.75 135.688 64.875C134.812 65 133.75 65.1562 132.5 65.3438C131.25 65.5312 129.938 65.7812 128.562 66.0938C129.5 63.2812 130.219 60.8438 130.719 58.7812C131.281 56.7188 131.688 55 131.938 53.625C132.188 52 132.344 50.6875 132.406 49.6875C132.406 48.4375 132.406 47.0312 132.406 45.4688C132.406 43.8438 132.406 42.2812 132.406 40.7812C132.406 39.2812 132.375 37.9688 132.312 36.8438C132.25 35.6562 132.125 34.9062 131.938 34.5938L131 33.6562C130.625 33.3438 130.062 32.9062 129.312 32.3438C128.625 31.7188 127.688 30.9688 126.5 30.0938ZM133.156 15.6562C134.469 14.9688 135.781 14.7812 137.094 15.0938C138.469 15.4062 139.531 16 140.281 16.875C141.031 17.75 141.281 18.7812 141.031 19.9688C140.844 21.1562 139.844 22.3125 138.031 23.4375C136.219 24.5 134.625 24.875 133.25 24.5625C131.875 24.25 130.906 23.5938 130.344 22.5938C129.781 21.5938 129.688 20.4375 130.062 19.125C130.438 17.75 131.469 16.5938 133.156 15.6562ZM173.844 56.9062C175.594 56.9062 177.219 56.7188 178.719 56.3438C179.969 56.0312 181.156 55.5312 182.281 54.8438C183.469 54.0938 184.25 53 184.625 51.5625C185.875 51.8125 186.938 52.0312 187.812 52.2188C188.688 52.3438 189.438 52.4688 190.062 52.5938C190.75 52.7812 191.344 52.9062 191.844 52.9688C192.344 53.0938 192.938 53.2188 193.625 53.3438C194.25 53.4688 195 53.625 195.875 53.8125C196.812 53.9375 197.906 54.125 199.156 54.375C198.219 54.25 197.25 54.3438 196.25 54.6562C195.312 54.9688 194.406 55.3125 193.531 55.6875C192.531 56.125 191.594 56.6562 190.719 57.2812C190.156 57.6562 189.5 58.2188 188.75 58.9688C188.062 59.7188 187.062 60.4375 185.75 61.125C184.438 61.8125 182.688 62.4062 180.5 62.9062C178.375 63.3438 175.625 63.5 172.25 63.375C168.188 63.25 164.781 62.5312 162.031 61.2188C159.281 59.8438 157.062 58.1875 155.375 56.25C153.688 54.25 152.469 52.0938 151.719 49.7812C150.969 47.4688 150.562 45.3125 150.5 43.3125C150.438 41.3125 151.031 39.2188 152.281 37.0312C153.531 34.8438 155.281 32.8438 157.531 31.0312C159.844 29.2188 162.625 27.75 165.875 26.625C169.125 25.4375 172.688 24.8438 176.562 24.8438C178.812 24.8438 180.875 25.125 182.75 25.6875C184.688 26.1875 186.438 26.875 188 27.75C189.625 28.625 191.031 29.625 192.219 30.75C193.406 31.8125 194.406 32.9062 195.219 34.0312C196.031 35.2188 196.719 36.4688 197.281 37.7812C197.781 38.9062 198.188 40.1875 198.5 41.625C198.812 43.0625 198.906 44.5312 198.781 46.0312C194.031 46.1562 190.188 46.25 187.25 46.3125C184.375 46.375 182.125 46.4062 180.5 46.4062H176.281H173.094C171.969 46.4062 170.5 46.4375 168.688 46.5C166.875 46.5625 164.656 46.6562 162.031 46.7812C162.344 49.2812 163.125 51.2188 164.375 52.5938C165.688 53.9062 167.062 54.9062 168.5 55.5938C170.125 56.3438 171.906 56.7812 173.844 56.9062ZM165.406 40.0312C167.406 40.1562 169.062 40.25 170.375 40.3125C171.75 40.375 172.875 40.4375 173.75 40.5C174.688 40.5625 175.438 40.5938 176 40.5938H178.344C179.906 40.5938 182.812 40.5 187.062 40.3125C186.875 37.5625 186.281 35.4688 185.281 34.0312C184.344 32.5938 183.344 31.5312 182.281 30.8438C181.031 30.0938 179.656 29.6562 178.156 29.5312C174.094 29.5938 171.062 30.4375 169.062 32.0625C167.125 33.6875 165.906 36.3438 165.406 40.0312ZM201.406 12.9375C203.281 13.125 204.844 13.2812 206.094 13.4062C207.406 13.5312 208.469 13.625 209.281 13.6875C210.219 13.75 210.969 13.7812 211.531 13.7812C212.094 13.8438 212.844 13.8438 213.781 13.7812C214.594 13.7188 215.656 13.6562 216.969 13.5938C218.281 13.4688 219.938 13.2812 221.938 13.0312C221.5 13.6562 221.156 14.2188 220.906 14.7188C220.656 15.1562 220.438 15.5625 220.25 15.9375L219.688 17.0625C219.562 17.4375 219.438 17.8125 219.312 18.1875C219.188 18.5 219.062 18.875 218.938 19.3125C218.875 19.75 218.812 20.2188 218.75 20.7188H233.188L231.875 28.3125L218.656 27.5625C218.344 30.75 218.125 33.2188 218 34.9688C217.875 36.7188 217.75 38 217.625 38.8125L217.438 40.5C217.25 42.875 217.062 45.4688 216.875 48.2812C216.688 51.0312 216.625 53.5938 216.688 55.9688C216.75 58.3438 216.969 60.3438 217.344 61.9688C217.719 63.5312 218.375 64.3125 219.312 64.3125C220.25 64.3125 221.125 64.0625 221.938 63.5625C222.75 63.0625 223.438 62.4688 224 61.7812C224.625 61.0938 225.094 60.4062 225.406 59.7188C225.719 58.9688 225.875 58.4062 225.875 58.0312C225.875 57.6562 225.781 57.2188 225.594 56.7188C225.281 55.7812 224.719 54.5938 223.906 53.1562C225.719 53.5938 227.312 54.0312 228.688 54.4688C229.375 54.7188 230 54.9688 230.562 55.2188C231.188 55.4688 231.906 55.75 232.719 56.0625C233.406 56.375 234.281 56.75 235.344 57.1875C236.406 57.625 237.656 58.1562 239.094 58.7812C237.719 59.0312 236.719 59.4375 236.094 60C235.719 60.25 235.438 60.5312 235.25 60.8438C234.812 61.5312 234.312 62.4688 233.75 63.6562C233.188 64.7812 232.344 65.9062 231.219 67.0312C230.094 68.1562 228.562 69.1562 226.625 70.0312C224.75 70.9062 222.219 71.4062 219.031 71.5312C215.719 71.6562 213.188 71.0938 211.438 69.8438C209.75 68.5938 208.5 67.1562 207.688 65.5312C206.938 63.8438 206.5 62.1875 206.375 60.5625C206.25 58.9375 206.156 57.8438 206.094 57.2812C206.031 56.7188 206.031 55.3125 206.094 53.0625C206.156 50.8125 206.25 48.3438 206.375 45.6562C206.5 42.9062 206.625 40.2812 206.75 37.7812C206.875 35.2188 206.938 33.3438 206.938 32.1562C206.938 31.5312 206.969 30.875 207.031 30.1875C207.031 29.625 207.031 29.0312 207.031 28.4062C207.094 27.7188 207.125 27.0625 207.125 26.4375L193.531 26.3438L192.969 21L206.656 21.375C206.531 20.6875 206.375 20.0625 206.188 19.5C206.062 18.875 205.938 18.375 205.812 18C205.625 17.5625 205.438 17.1875 205.25 16.875C205 16.5625 204.719 16.2188 204.406 15.8438C204.094 15.5312 203.688 15.125 203.188 14.625C202.688 14.125 202.094 13.5625 201.406 12.9375ZM242.281 34.0312C242.594 33.6562 242.781 32.9688 242.844 31.9688C242.969 30.9062 243.219 29.7188 243.594 28.4062C244.031 27.0938 244.75 25.7188 245.75 24.2812C246.75 22.8438 248.375 21.5 250.625 20.25C252.812 19 254.938 18.25 257 18C259.062 17.75 261.031 17.8438 262.906 18.2812C264.781 18.7188 266.531 19.4062 268.156 20.3438C269.844 21.2812 271.375 22.3125 272.75 23.4375C273.688 24.1875 274.438 25.2812 275 26.7188C275.562 28.0938 276 29.6562 276.312 31.4062C276.625 33.1562 276.844 35 276.969 36.9375C277.156 38.8125 277.281 40.6562 277.344 42.4688C277.406 44.2188 277.438 45.8438 277.438 47.3438C277.5 48.7812 277.625 49.9688 277.812 50.9062C278.062 52.2812 278.5 53.4688 279.125 54.4688C279.75 55.4062 280.438 56.2188 281.188 56.9062C281.938 57.5312 282.688 58.0312 283.438 58.4062C284.188 58.7812 284.844 59.0625 285.406 59.25C285.781 59.4375 286.125 59.5625 286.438 59.625C287.062 59.875 287.5 59.875 287.75 59.625C287.375 60.5 287.031 61.25 286.719 61.875C286.406 62.5 286.156 63.0312 285.969 63.4688C285.719 63.9688 285.5 64.375 285.312 64.6875C285.125 65.0625 284.906 65.4062 284.656 65.7188C284.469 66.0312 284.219 66.375 283.906 66.75C283.594 67.125 283.281 67.5312 282.969 67.9688C282.156 67.6562 281.375 67.2812 280.625 66.8438C279.938 66.4062 279.312 66 278.75 65.625C278.062 65.1875 277.438 64.75 276.875 64.3125C276.312 63.875 275.781 63.375 275.281 62.8125C274.844 62.3125 274.375 61.7812 273.875 61.2188C273.438 60.6562 273.062 60.0312 272.75 59.3438C272.375 60.1562 271.469 61.3125 270.031 62.8125C268.656 64.3125 266.844 65.6875 264.594 66.9375C262.344 68.125 259.719 68.9688 256.719 69.4688C253.781 69.9688 250.531 69.625 246.969 68.4375C245.406 67.9375 243.938 67.2188 242.562 66.2812C241.188 65.2812 240 64.0938 239 62.7188C238.062 61.3438 237.375 59.7812 236.938 58.0312C236.562 56.2188 236.594 54.2188 237.031 52.0312C237.469 49.8438 238.25 48 239.375 46.5C240.5 45 241.844 43.7812 243.406 42.8438C244.969 41.9062 246.719 41.1875 248.656 40.6875C250.594 40.1875 252.594 39.8438 254.656 39.6562C256.281 39.5938 257.906 39.6875 259.531 39.9375C260.906 40.1875 262.344 40.6562 263.844 41.3438C265.344 41.9688 266.625 42.9375 267.688 44.25C267.625 40.9375 267.5 38.3125 267.312 36.375C267.188 34.375 267.062 32.8438 266.938 31.7812C266.688 30.5312 266.469 29.6562 266.281 29.1562C265.969 28.7188 265.625 28.2188 265.25 27.6562C264.938 27.0938 264.531 26.5938 264.031 26.1562C263.531 25.6562 262.906 25.25 262.156 24.9375C261.406 24.625 260.531 24.5 259.531 24.5625C258.469 24.625 257.625 24.9062 257 25.4062C256.375 25.9062 255.875 26.5 255.5 27.1875C255.188 27.8125 255 28.5 254.938 29.25C254.875 30 254.906 30.6562 255.031 31.2188C255.156 31.5938 255.344 32 255.594 32.4375C255.844 32.8125 256.188 33.2188 256.625 33.6562C257.062 34.0938 257.656 34.4688 258.406 34.7812C256.969 34.9688 255.688 35.125 254.562 35.25C253.438 35.3125 252.469 35.4062 251.656 35.5312C250.719 35.6562 249.906 35.75 249.219 35.8125C248.531 35.875 247.719 36 246.781 36.1875C245.969 36.3125 244.969 36.4688 243.781 36.6562C242.594 36.8438 241.219 37.0938 239.656 37.4062C240.031 36.9688 240.375 36.5625 240.688 36.1875C241 35.75 241.281 35.375 241.531 35.0625C241.781 34.6875 242.031 34.3438 242.281 34.0312ZM256.344 45.1875C255.219 45.25 254.094 45.5312 252.969 46.0312C251.844 46.4688 250.844 47.125 249.969 48C249.094 48.8125 248.344 49.7812 247.719 50.9062C247.156 51.9688 246.875 53.1562 246.875 54.4688C246.875 55.7812 247.188 56.9375 247.812 57.9375C248.5 58.875 249.375 59.6562 250.438 60.2812C251.562 60.9062 252.75 61.2812 254 61.4062C255.312 61.5312 256.594 61.4062 257.844 61.0312C259.031 60.5938 260.156 59.9062 261.219 58.9688C262.281 57.9688 263.188 56.9062 263.938 55.7812C264.688 54.5938 265.219 53.4375 265.531 52.3125C265.844 51.125 265.875 50.1562 265.625 49.4062C265.125 47.7812 264 46.6562 262.25 46.0312C260.5 45.3438 258.531 45.0625 256.344 45.1875Z" fill="black"/>
</svg>
