<svg width="649" height="72" viewBox="0 0 649 72" fill="none" xmlns="http://www.w3.org/2000/svg">
<path d="M0.875 1.03125C2.6875 1.34375 4.28125 1.5625 5.65625 1.6875C7.09375 1.8125 8.28125 1.90625 9.21875 1.96875C10.3438 2.03125 11.3125 2.0625 12.125 2.0625C12.9375 2.0625 14.0938 2 15.5938 1.875C16.8438 1.75 18.4688 1.59375 20.4688 1.40625C22.5312 1.21875 25.0625 0.90625 28.0625 0.46875C27.1875 0.71875 26.375 1.4375 25.625 2.625C24.9375 3.75 24.3125 4.96875 23.75 6.28125C23.0625 7.84375 22.4688 9.5625 21.9688 11.4375C21.5312 13.125 20.9688 15.4375 20.2812 18.375C19.6562 21.3125 19.0312 24.5 18.4062 27.9375C17.8438 31.375 17.4062 34.875 17.0938 38.4375C16.7812 41.9375 16.7188 45.1562 16.9062 48.0938C17.1562 51.0312 17.75 53.4688 18.6875 55.4062C19.625 57.2812 21.0625 58.2812 23 58.4062C25.9375 58.6562 28.375 58.6875 30.3125 58.5C32.3125 58.25 33.9375 57.9062 35.1875 57.4688C36.4375 57.0312 37.4062 56.5312 38.0938 55.9688C38.7812 55.3438 39.3125 54.75 39.6875 54.1875C40.6875 52.75 41.7188 50.9062 42.7812 48.6562C43.8438 46.4062 44.7812 44.25 45.5938 42.1875C46.4688 40.125 47.1875 38.375 47.75 36.9375C48.3125 35.5 48.5938 34.8125 48.5938 34.875C48.5938 35 48.5625 35.7188 48.5 37.0312C48.5 38.2812 48.4688 39.8125 48.4062 41.625C48.4062 43.375 48.375 45.2188 48.3125 47.1562C48.3125 49.0938 48.2812 50.75 48.2188 52.125C48.1562 53.25 48.0938 54.5 48.0312 55.875C47.9688 57.0625 47.9062 58.4688 47.8438 60.0938C47.8438 61.7188 47.7812 63.5 47.6562 65.4375C45.0312 65.25 42.5312 65.125 40.1562 65.0625C37.7812 65 35.6875 64.9688 33.875 64.9688C31.75 64.9688 29.7812 65 27.9688 65.0625C26.0312 65.125 23.7812 65.2188 21.2188 65.3438C19.0312 65.4688 16.3125 65.625 13.0625 65.8125C9.8125 65.9375 6.0625 66.125 1.8125 66.375C2.3125 65.5 2.71875 64.6875 3.03125 63.9375C3.40625 63.1875 3.6875 62.5625 3.875 62.0625C4.125 61.4375 4.28125 60.9062 4.34375 60.4688C4.71875 58.4688 5.03125 55.9375 5.28125 52.875C5.53125 49.75 5.71875 46.4375 5.84375 42.9375C6.03125 39.4375 6.125 35.875 6.125 32.25C6.1875 28.5625 6.1875 25.1562 6.125 22.0312C6.0625 18.9062 5.9375 16.1875 5.75 13.875C5.625 11.5625 5.4375 9.96875 5.1875 9.09375C4.875 8.09375 4.5 7.09375 4.0625 6.09375C3.6875 5.21875 3.21875 4.34375 2.65625 3.46875C2.15625 2.53125 1.5625 1.71875 0.875 1.03125ZM60.875 31.0312C61.1875 30.6562 61.375 29.9688 61.4375 28.9688C61.5625 27.9062 61.8125 26.7188 62.1875 25.4062C62.625 24.0938 63.3438 22.7188 64.3438 21.2812C65.3438 19.8438 66.9688 18.5 69.2188 17.25C71.4062 16 73.5312 15.25 75.5938 15C77.6562 14.75 79.625 14.8438 81.5 15.2812C83.375 15.7188 85.125 16.4062 86.75 17.3438C88.4375 18.2812 89.9688 19.3125 91.3438 20.4375C92.2812 21.1875 93.0312 22.2812 93.5938 23.7188C94.1562 25.0938 94.5938 26.6562 94.9062 28.4062C95.2188 30.1562 95.4375 32 95.5625 33.9375C95.75 35.8125 95.875 37.6562 95.9375 39.4688C96 41.2188 96.0312 42.8438 96.0312 44.3438C96.0938 45.7812 96.2188 46.9688 96.4062 47.9062C96.6562 49.2812 97.0938 50.4688 97.7188 51.4688C98.3438 52.4062 99.0312 53.2188 99.7812 53.9062C100.531 54.5312 101.281 55.0312 102.031 55.4062C102.781 55.7812 103.438 56.0625 104 56.25C104.375 56.4375 104.719 56.5625 105.031 56.625C105.656 56.875 106.094 56.875 106.344 56.625C105.969 57.5 105.625 58.25 105.312 58.875C105 59.5 104.75 60.0312 104.562 60.4688C104.312 60.9688 104.094 61.375 103.906 61.6875C103.719 62.0625 103.5 62.4062 103.25 62.7188C103.062 63.0312 102.812 63.375 102.5 63.75C102.188 64.125 101.875 64.5312 101.562 64.9688C100.75 64.6562 99.9688 64.2812 99.2188 63.8438C98.5312 63.4062 97.9062 63 97.3438 62.625C96.6562 62.1875 96.0312 61.75 95.4688 61.3125C94.9062 60.875 94.375 60.375 93.875 59.8125C93.4375 59.3125 92.9688 58.7812 92.4688 58.2188C92.0312 57.6562 91.6562 57.0312 91.3438 56.3438C90.9688 57.1562 90.0625 58.3125 88.625 59.8125C87.25 61.3125 85.4375 62.6875 83.1875 63.9375C80.9375 65.125 78.3125 65.9688 75.3125 66.4688C72.375 66.9688 69.125 66.625 65.5625 65.4375C64 64.9375 62.5312 64.2188 61.1562 63.2812C59.7812 62.2812 58.5938 61.0938 57.5938 59.7188C56.6562 58.3438 55.9688 56.7812 55.5312 55.0312C55.1562 53.2188 55.1875 51.2188 55.625 49.0312C56.0625 46.8438 56.8438 45 57.9688 43.5C59.0938 42 60.4375 40.7812 62 39.8438C63.5625 38.9062 65.3125 38.1875 67.25 37.6875C69.1875 37.1875 71.1875 36.8438 73.25 36.6562C74.875 36.5938 76.5 36.6875 78.125 36.9375C79.5 37.1875 80.9375 37.6562 82.4375 38.3438C83.9375 38.9688 85.2188 39.9375 86.2812 41.25C86.2188 37.9375 86.0938 35.3125 85.9062 33.375C85.7812 31.375 85.6562 29.8438 85.5312 28.7812C85.2812 27.5312 85.0625 26.6562 84.875 26.1562C84.5625 25.7188 84.2188 25.2188 83.8438 24.6562C83.5312 24.0938 83.125 23.5938 82.625 23.1562C82.125 22.6562 81.5 22.25 80.75 21.9375C80 21.625 79.125 21.5 78.125 21.5625C77.0625 21.625 76.2188 21.9062 75.5938 22.4062C74.9688 22.9062 74.4688 23.5 74.0938 24.1875C73.7812 24.8125 73.5938 25.5 73.5312 26.25C73.4688 27 73.5 27.6562 73.625 28.2188C73.75 28.5938 73.9375 29 74.1875 29.4375C74.4375 29.8125 74.7812 30.2188 75.2188 30.6562C75.6562 31.0938 76.25 31.4688 77 31.7812C75.5625 31.9688 74.2812 32.125 73.1562 32.25C72.0312 32.3125 71.0625 32.4062 70.25 32.5312C69.3125 32.6562 68.5 32.75 67.8125 32.8125C67.125 32.875 66.3125 33 65.375 33.1875C64.5625 33.3125 63.5625 33.4688 62.375 33.6562C61.1875 33.8438 59.8125 34.0938 58.25 34.4062C58.625 33.9688 58.9688 33.5625 59.2812 33.1875C59.5938 32.75 59.875 32.375 60.125 32.0625C60.375 31.6875 60.625 31.3438 60.875 31.0312ZM74.9375 42.1875C73.8125 42.25 72.6875 42.5312 71.5625 43.0312C70.4375 43.4688 69.4375 44.125 68.5625 45C67.6875 45.8125 66.9375 46.7812 66.3125 47.9062C65.75 48.9688 65.4688 50.1562 65.4688 51.4688C65.4688 52.7812 65.7812 53.9375 66.4062 54.9375C67.0938 55.875 67.9688 56.6562 69.0312 57.2812C70.1562 57.9062 71.3438 58.2812 72.5938 58.4062C73.9062 58.5312 75.1875 58.4062 76.4375 58.0312C77.625 57.5938 78.75 56.9062 79.8125 55.9688C80.875 54.9688 81.7812 53.9062 82.5312 52.7812C83.2812 51.5938 83.8125 50.4375 84.125 49.3125C84.4375 48.125 84.4688 47.1562 84.2188 46.4062C83.7188 44.7812 82.5938 43.6562 80.8438 43.0312C79.0938 42.3438 77.125 42.0625 74.9375 42.1875ZM104.469 24.0938C105.656 24.1562 106.719 24.1875 107.656 24.1875C108.656 24.125 109.5 24.0625 110.188 24C111 23.9375 111.719 23.875 112.344 23.8125C113.281 23.6875 114.25 23.5312 115.25 23.3438C116.125 23.2188 117.031 23.0625 117.969 22.875C118.969 22.625 119.938 22.3438 120.875 22.0312C120.5 22.9688 120.188 23.7812 119.938 24.4688C119.688 25.1562 119.5 25.75 119.375 26.25C119.188 26.8125 119.094 27.2812 119.094 27.6562C119.031 28.0938 119 28.625 119 29.25C118.938 30.3125 118.938 32.0312 119 34.4062C122.25 31.5938 124.969 29.4062 127.156 27.8438C129.406 26.2812 131.188 25.0625 132.5 24.1875C134.062 23.1875 135.281 22.5312 136.156 22.2188C138.469 21.8438 140.5 22.375 142.25 23.8125C143 24.4375 143.719 25.2812 144.406 26.3438C145.094 27.3438 145.688 28.6875 146.188 30.375C146.688 32.0625 147.062 34.0938 147.312 36.4688C147.562 38.7812 147.594 41.5625 147.406 44.8125C146.094 44.9375 144.906 45.0625 143.844 45.1875C142.844 45.3125 142 45.4062 141.312 45.4688C140.5 45.5938 139.75 45.6562 139.062 45.6562L136.531 45.9375C135.656 46.0625 134.562 46.1875 133.25 46.3125C132 46.375 130.469 46.5 128.656 46.6875C131.281 44.5625 132.969 42.7188 133.719 41.1562C134.531 39.5312 134.875 38.1875 134.75 37.125C134.625 35.9375 134.062 34.9062 133.062 34.0312C131.875 33.3438 130.594 33.0938 129.219 33.2812C128.031 33.4062 126.656 33.9375 125.094 34.875C123.531 35.8125 121.875 37.5625 120.125 40.125C120.25 44.125 120.375 47.4375 120.5 50.0625C120.688 52.6875 120.844 54.8125 120.969 56.4375C121.156 58.3125 121.312 59.7812 121.438 60.8438C121.625 61.7812 122 62.7812 122.562 63.8438C123 64.7188 123.625 65.6875 124.438 66.75C125.25 67.8125 126.312 68.875 127.625 69.9375C124.875 69.8125 122.625 69.8125 120.875 69.9375C119.812 70 118.875 70.0625 118.062 70.125C117.188 70.25 116.25 70.375 115.25 70.5C114.375 70.625 113.344 70.75 112.156 70.875C111.031 71.0625 109.781 71.25 108.406 71.4375C108.906 70.75 109.312 69.9375 109.625 69C109.938 68.125 110.188 67.2812 110.375 66.4688C110.625 65.5312 110.812 64.5625 110.938 63.5625C111 62.6875 111.031 61.375 111.031 59.625C111.094 57.875 111.062 55.9062 110.938 53.7188C110.875 51.4688 110.781 49.1562 110.656 46.7812C110.531 44.3438 110.375 42.0625 110.188 39.9375C110 37.8125 109.781 35.9688 109.531 34.4062C109.344 32.7812 109.125 31.6562 108.875 31.0312C108.562 30.2812 108.188 29.5312 107.75 28.7812C107.375 28.0938 106.906 27.375 106.344 26.625C105.781 25.8125 105.156 24.9688 104.469 24.0938ZM151.344 27.0938L168.594 27.2812C167.594 31.0938 166.844 34.3438 166.344 37.0312C165.906 39.7188 165.625 41.9688 165.5 43.7812C165.25 45.8438 165.188 47.5938 165.312 49.0312C165.5 50.3438 165.812 51.75 166.25 53.25C166.625 54.5 167.188 55.9375 167.938 57.5625C168.688 59.1875 169.688 60.8125 170.938 62.4375C170.188 62.1875 169.375 62 168.5 61.875C167.625 61.75 166.812 61.6562 166.062 61.5938C165.188 61.5312 164.312 61.5312 163.438 61.5938C162.562 61.6562 161.594 61.75 160.531 61.875C159.656 62 158.594 62.1562 157.344 62.3438C156.094 62.5312 154.781 62.7812 153.406 63.0938C154.344 60.2812 155.062 57.8438 155.562 55.7812C156.125 53.7188 156.531 52 156.781 50.625C157.031 49 157.188 47.6875 157.25 46.6875C157.25 45.4375 157.25 44.0312 157.25 42.4688C157.25 40.8438 157.25 39.2812 157.25 37.7812C157.25 36.2812 157.219 34.9688 157.156 33.8438C157.094 32.6562 156.969 31.9062 156.781 31.5938L155.844 30.6562C155.469 30.3438 154.906 29.9062 154.156 29.3438C153.469 28.7188 152.531 27.9688 151.344 27.0938ZM158 12.6562C159.312 11.9688 160.625 11.7812 161.938 12.0938C163.312 12.4062 164.375 13 165.125 13.875C165.875 14.75 166.125 15.7812 165.875 16.9688C165.688 18.1562 164.688 19.3125 162.875 20.4375C161.062 21.5 159.469 21.875 158.094 21.5625C156.719 21.25 155.75 20.5938 155.188 19.5938C154.625 18.5938 154.531 17.4375 154.906 16.125C155.281 14.75 156.312 13.5938 158 12.6562ZM215.656 15.4688C215.094 16.8438 214.594 18.0938 214.156 19.2188C213.781 20.3438 213.438 21.3438 213.125 22.2188C212.812 23.2188 212.531 24.0938 212.281 24.8438C212.031 25.7188 211.75 26.7188 211.438 27.8438C211.125 28.8438 210.719 30.0938 210.219 31.5938C209.781 33.0312 209.25 34.75 208.625 36.75C208.125 33.75 207.219 31.375 205.906 29.625C204.594 27.8125 203.25 26.4062 201.875 25.4062C200.25 24.2812 198.5 23.4688 196.625 22.9688C193.25 22.4062 190.812 22.4688 189.312 23.1562C187.812 23.8438 186.812 24.7188 186.312 25.7812C186.062 26.2188 185.781 26.7812 185.469 27.4688C185.219 28.0938 185 28.75 184.812 29.4375C184.688 30.125 184.656 30.8125 184.719 31.5C184.781 32.1875 185.062 32.75 185.562 33.1875C185.875 33.5 186.688 33.9375 188 34.5C189.312 35 190.875 35.5938 192.688 36.2812C194.562 36.9062 196.531 37.5938 198.594 38.3438C200.719 39.0938 202.719 39.8438 204.594 40.5938C206.469 41.3438 208.094 42.0938 209.469 42.8438C210.844 43.5938 211.75 44.2812 212.188 44.9062C212.562 45.5312 212.969 46.375 213.406 47.4375C213.906 48.4375 214.25 49.5625 214.438 50.8125C214.688 52 214.75 53.25 214.625 54.5625C214.562 55.8125 214.219 57.0625 213.594 58.3125C212.969 59.5625 211.969 60.7188 210.594 61.7812C209.281 62.8438 207.5 63.7188 205.25 64.4062C202.625 65.2188 200.094 65.4375 197.656 65.0625C195.219 64.6875 192.969 64.125 190.906 63.375C188.906 62.625 187.156 61.9062 185.656 61.2188C184.156 60.4688 183.094 60.1562 182.469 60.2812C181.781 60.4062 181 60.75 180.125 61.3125C179.25 61.875 178.406 62.4688 177.594 63.0938C176.844 63.6562 176.188 64.1875 175.625 64.6875C175.062 65.125 174.781 65.2812 174.781 65.1562C174.781 65.0312 174.875 64.6562 175.062 64.0312C175.312 63.4062 175.562 62.6562 175.812 61.7812C176.125 60.8438 176.406 59.8438 176.656 58.7812C176.969 57.6562 177.188 56.5938 177.312 55.5938C177.438 54.7812 177.594 53.7812 177.781 52.5938C177.906 51.5312 178.062 50.25 178.25 48.75C178.5 47.1875 178.781 45.3125 179.094 43.125C179.406 44.75 179.844 46.1562 180.406 47.3438C181.031 48.5312 181.625 49.5625 182.188 50.4375C182.875 51.4375 183.531 52.2812 184.156 52.9688C185.094 53.8438 186.188 54.6562 187.438 55.4062C188.75 56.1562 190.062 56.8125 191.375 57.375C192.688 57.875 193.938 58.1875 195.125 58.3125C196.312 58.4375 197.312 58.3125 198.125 57.9375C198.938 57.5625 199.625 56.875 200.188 55.875C200.812 54.875 201.25 53.7812 201.5 52.5938C201.75 51.4062 201.844 50.2812 201.781 49.2188C201.719 48.0938 201.438 47.1875 200.938 46.5C200.562 46.0625 199.688 45.5 198.312 44.8125C197 44.125 195.406 43.375 193.531 42.5625C191.719 41.75 189.781 40.9062 187.719 40.0312C185.719 39.1562 183.812 38.2812 182 37.4062C180.25 36.4688 178.781 35.5938 177.594 34.7812C176.469 33.9062 175.844 33.125 175.719 32.4375C175.594 31.4375 175.5 30.3438 175.438 29.1562C175.375 27.9062 175.438 26.6875 175.625 25.5C175.875 24.25 176.312 23.0625 176.938 21.9375C177.625 20.8125 178.625 19.875 179.938 19.125C180.812 18.625 181.969 18.25 183.406 18C184.844 17.75 186.438 17.625 188.188 17.625C189.938 17.5625 191.75 17.625 193.625 17.8125C195.5 17.9375 197.281 18.125 198.969 18.375C200.719 18.5625 202.281 18.8125 203.656 19.125C205.094 19.4375 206.188 19.7188 206.938 19.9688C207.812 20.2812 208.75 20.3125 209.75 20.0625C210.625 19.875 211.562 19.4688 212.562 18.8438C213.562 18.2188 214.594 17.0938 215.656 15.4688ZM260.375 15.4688C259.812 16.8438 259.312 18.0938 258.875 19.2188C258.5 20.3438 258.156 21.3438 257.844 22.2188C257.531 23.2188 257.25 24.0938 257 24.8438C256.75 25.7188 256.469 26.7188 256.156 27.8438C255.844 28.8438 255.438 30.0938 254.938 31.5938C254.5 33.0312 253.969 34.75 253.344 36.75C252.844 33.75 251.938 31.375 250.625 29.625C249.312 27.8125 247.969 26.4062 246.594 25.4062C244.969 24.2812 243.219 23.4688 241.344 22.9688C237.969 22.4062 235.531 22.4688 234.031 23.1562C232.531 23.8438 231.531 24.7188 231.031 25.7812C230.781 26.2188 230.5 26.7812 230.188 27.4688C229.938 28.0938 229.719 28.75 229.531 29.4375C229.406 30.125 229.375 30.8125 229.438 31.5C229.5 32.1875 229.781 32.75 230.281 33.1875C230.594 33.5 231.406 33.9375 232.719 34.5C234.031 35 235.594 35.5938 237.406 36.2812C239.281 36.9062 241.25 37.5938 243.312 38.3438C245.438 39.0938 247.438 39.8438 249.312 40.5938C251.188 41.3438 252.812 42.0938 254.188 42.8438C255.562 43.5938 256.469 44.2812 256.906 44.9062C257.281 45.5312 257.688 46.375 258.125 47.4375C258.625 48.4375 258.969 49.5625 259.156 50.8125C259.406 52 259.469 53.25 259.344 54.5625C259.281 55.8125 258.938 57.0625 258.312 58.3125C257.688 59.5625 256.688 60.7188 255.312 61.7812C254 62.8438 252.219 63.7188 249.969 64.4062C247.344 65.2188 244.812 65.4375 242.375 65.0625C239.938 64.6875 237.688 64.125 235.625 63.375C233.625 62.625 231.875 61.9062 230.375 61.2188C228.875 60.4688 227.812 60.1562 227.188 60.2812C226.5 60.4062 225.719 60.75 224.844 61.3125C223.969 61.875 223.125 62.4688 222.312 63.0938C221.562 63.6562 220.906 64.1875 220.344 64.6875C219.781 65.125 219.5 65.2812 219.5 65.1562C219.5 65.0312 219.594 64.6562 219.781 64.0312C220.031 63.4062 220.281 62.6562 220.531 61.7812C220.844 60.8438 221.125 59.8438 221.375 58.7812C221.688 57.6562 221.906 56.5938 222.031 55.5938C222.156 54.7812 222.312 53.7812 222.5 52.5938C222.625 51.5312 222.781 50.25 222.969 48.75C223.219 47.1875 223.5 45.3125 223.812 43.125C224.125 44.75 224.562 46.1562 225.125 47.3438C225.75 48.5312 226.344 49.5625 226.906 50.4375C227.594 51.4375 228.25 52.2812 228.875 52.9688C229.812 53.8438 230.906 54.6562 232.156 55.4062C233.469 56.1562 234.781 56.8125 236.094 57.375C237.406 57.875 238.656 58.1875 239.844 58.3125C241.031 58.4375 242.031 58.3125 242.844 57.9375C243.656 57.5625 244.344 56.875 244.906 55.875C245.531 54.875 245.969 53.7812 246.219 52.5938C246.469 51.4062 246.562 50.2812 246.5 49.2188C246.438 48.0938 246.156 47.1875 245.656 46.5C245.281 46.0625 244.406 45.5 243.031 44.8125C241.719 44.125 240.125 43.375 238.25 42.5625C236.438 41.75 234.5 40.9062 232.438 40.0312C230.438 39.1562 228.531 38.2812 226.719 37.4062C224.969 36.4688 223.5 35.5938 222.312 34.7812C221.188 33.9062 220.562 33.125 220.438 32.4375C220.312 31.4375 220.219 30.3438 220.156 29.1562C220.094 27.9062 220.156 26.6875 220.344 25.5C220.594 24.25 221.031 23.0625 221.656 21.9375C222.344 20.8125 223.344 19.875 224.656 19.125C225.531 18.625 226.688 18.25 228.125 18C229.562 17.75 231.156 17.625 232.906 17.625C234.656 17.5625 236.469 17.625 238.344 17.8125C240.219 17.9375 242 18.125 243.688 18.375C245.438 18.5625 247 18.8125 248.375 19.125C249.812 19.4375 250.906 19.7188 251.656 19.9688C252.531 20.2812 253.469 20.3125 254.469 20.0625C255.344 19.875 256.281 19.4688 257.281 18.8438C258.281 18.2188 259.312 17.0938 260.375 15.4688ZM270.781 31.0312C271.094 30.6562 271.281 29.9688 271.344 28.9688C271.469 27.9062 271.719 26.7188 272.094 25.4062C272.531 24.0938 273.25 22.7188 274.25 21.2812C275.25 19.8438 276.875 18.5 279.125 17.25C281.312 16 283.438 15.25 285.5 15C287.562 14.75 289.531 14.8438 291.406 15.2812C293.281 15.7188 295.031 16.4062 296.656 17.3438C298.344 18.2812 299.875 19.3125 301.25 20.4375C302.188 21.1875 302.938 22.2812 303.5 23.7188C304.062 25.0938 304.5 26.6562 304.812 28.4062C305.125 30.1562 305.344 32 305.469 33.9375C305.656 35.8125 305.781 37.6562 305.844 39.4688C305.906 41.2188 305.938 42.8438 305.938 44.3438C306 45.7812 306.125 46.9688 306.312 47.9062C306.562 49.2812 307 50.4688 307.625 51.4688C308.25 52.4062 308.938 53.2188 309.688 53.9062C310.438 54.5312 311.188 55.0312 311.938 55.4062C312.688 55.7812 313.344 56.0625 313.906 56.25C314.281 56.4375 314.625 56.5625 314.938 56.625C315.562 56.875 316 56.875 316.25 56.625C315.875 57.5 315.531 58.25 315.219 58.875C314.906 59.5 314.656 60.0312 314.469 60.4688C314.219 60.9688 314 61.375 313.812 61.6875C313.625 62.0625 313.406 62.4062 313.156 62.7188C312.969 63.0312 312.719 63.375 312.406 63.75C312.094 64.125 311.781 64.5312 311.469 64.9688C310.656 64.6562 309.875 64.2812 309.125 63.8438C308.438 63.4062 307.812 63 307.25 62.625C306.562 62.1875 305.938 61.75 305.375 61.3125C304.812 60.875 304.281 60.375 303.781 59.8125C303.344 59.3125 302.875 58.7812 302.375 58.2188C301.938 57.6562 301.562 57.0312 301.25 56.3438C300.875 57.1562 299.969 58.3125 298.531 59.8125C297.156 61.3125 295.344 62.6875 293.094 63.9375C290.844 65.125 288.219 65.9688 285.219 66.4688C282.281 66.9688 279.031 66.625 275.469 65.4375C273.906 64.9375 272.438 64.2188 271.062 63.2812C269.688 62.2812 268.5 61.0938 267.5 59.7188C266.562 58.3438 265.875 56.7812 265.438 55.0312C265.062 53.2188 265.094 51.2188 265.531 49.0312C265.969 46.8438 266.75 45 267.875 43.5C269 42 270.344 40.7812 271.906 39.8438C273.469 38.9062 275.219 38.1875 277.156 37.6875C279.094 37.1875 281.094 36.8438 283.156 36.6562C284.781 36.5938 286.406 36.6875 288.031 36.9375C289.406 37.1875 290.844 37.6562 292.344 38.3438C293.844 38.9688 295.125 39.9375 296.188 41.25C296.125 37.9375 296 35.3125 295.812 33.375C295.688 31.375 295.562 29.8438 295.438 28.7812C295.188 27.5312 294.969 26.6562 294.781 26.1562C294.469 25.7188 294.125 25.2188 293.75 24.6562C293.438 24.0938 293.031 23.5938 292.531 23.1562C292.031 22.6562 291.406 22.25 290.656 21.9375C289.906 21.625 289.031 21.5 288.031 21.5625C286.969 21.625 286.125 21.9062 285.5 22.4062C284.875 22.9062 284.375 23.5 284 24.1875C283.688 24.8125 283.5 25.5 283.438 26.25C283.375 27 283.406 27.6562 283.531 28.2188C283.656 28.5938 283.844 29 284.094 29.4375C284.344 29.8125 284.688 30.2188 285.125 30.6562C285.562 31.0938 286.156 31.4688 286.906 31.7812C285.469 31.9688 284.188 32.125 283.062 32.25C281.938 32.3125 280.969 32.4062 280.156 32.5312C279.219 32.6562 278.406 32.75 277.719 32.8125C277.031 32.875 276.219 33 275.281 33.1875C274.469 33.3125 273.469 33.4688 272.281 33.6562C271.094 33.8438 269.719 34.0938 268.156 34.4062C268.531 33.9688 268.875 33.5625 269.188 33.1875C269.5 32.75 269.781 32.375 270.031 32.0625C270.281 31.6875 270.531 31.3438 270.781 31.0312ZM284.844 42.1875C283.719 42.25 282.594 42.5312 281.469 43.0312C280.344 43.4688 279.344 44.125 278.469 45C277.594 45.8125 276.844 46.7812 276.219 47.9062C275.656 48.9688 275.375 50.1562 275.375 51.4688C275.375 52.7812 275.688 53.9375 276.312 54.9375C277 55.875 277.875 56.6562 278.938 57.2812C280.062 57.9062 281.25 58.2812 282.5 58.4062C283.812 58.5312 285.094 58.4062 286.344 58.0312C287.531 57.5938 288.656 56.9062 289.719 55.9688C290.781 54.9688 291.688 53.9062 292.438 52.7812C293.188 51.5938 293.719 50.4375 294.031 49.3125C294.344 48.125 294.375 47.1562 294.125 46.4062C293.625 44.7812 292.5 43.6562 290.75 43.0312C289 42.3438 287.031 42.0625 284.844 42.1875ZM405.406 0.375C404.531 2.375 403.75 4.125 403.062 5.625C402.375 7.125 401.781 8.40625 401.281 9.46875C400.719 10.6562 400.25 11.7188 399.875 12.6562C399.562 13.3438 399.156 14.2812 398.656 15.4688C398.156 16.5312 397.531 17.9375 396.781 19.6875C396.094 21.375 395.188 23.5625 394.062 26.25C393.5 23.9375 392.812 21.9062 392 20.1562C391.188 18.4062 390.312 16.875 389.375 15.5625C388.438 14.25 387.438 13.1875 386.375 12.375C385.375 11.5 384.375 10.7812 383.375 10.2188C381.062 8.96875 378.625 8.28125 376.062 8.15625C372.688 8.34375 370.031 8.90625 368.094 9.84375C366.219 10.7188 364.844 11.75 363.969 12.9375C363.094 14.0625 362.625 15.25 362.562 16.5C362.5 17.6875 362.656 18.6875 363.031 19.5C363.344 20.25 364.438 21.125 366.312 22.125C368.25 23.125 370.562 24.2812 373.25 25.5938C376 26.8438 378.938 28.2812 382.062 29.9062C385.188 31.4688 388.062 33.2188 390.688 35.1562C393.375 37.0312 395.625 39.0938 397.438 41.3438C399.312 43.5312 400.344 45.875 400.531 48.375C400.719 51.5625 400.688 54.4375 400.438 57C400.188 59.5625 399.312 61.75 397.812 63.5625C396.312 65.375 393.969 66.8125 390.781 67.875C387.656 68.9375 383.312 69.5938 377.75 69.8438C372 70.0938 367.281 69.7812 363.594 68.9062C359.906 68.0312 356.906 66.8438 354.594 65.3438C352.344 63.8438 350.656 62.1875 349.531 60.375C348.469 58.5625 347.688 56.8438 347.188 55.2188C346.688 53.5312 346.344 52.0938 346.156 50.9062C345.969 49.6562 345.656 48.9062 345.219 48.6562C344.719 48.3438 344.219 48.0625 343.719 47.8125C343.281 47.5625 342.812 47.3438 342.312 47.1562C341.812 46.9062 341.312 46.6875 340.812 46.5L368.094 42.0938C366.531 43.3438 365.312 44.5 364.438 45.5625C363.625 46.625 363 47.5625 362.562 48.375C362.062 49.3125 361.719 50.1875 361.531 51C361.406 51.875 361.688 52.9688 362.375 54.2812C363.062 55.5938 364 56.875 365.188 58.125C366.438 59.3125 367.875 60.3125 369.5 61.125C371.125 61.9375 372.812 62.2812 374.562 62.1562C376.75 61.9688 378.531 61.4375 379.906 60.5625C381.281 59.625 382.312 58.4688 383 57.0938C383.75 55.7188 384.188 54.2188 384.312 52.5938C384.438 50.9688 384.281 49.375 383.844 47.8125C383.469 46.1875 382.844 44.6875 381.969 43.3125C381.094 41.875 380.062 40.6875 378.875 39.75C377.812 39 376.156 38.2812 373.906 37.5938C371.719 36.9062 369.25 36.1562 366.5 35.3438C363.812 34.5312 361.031 33.5938 358.156 32.5312C355.344 31.4688 352.781 30.1562 350.469 28.5938C348.219 27.0312 346.406 25.1875 345.031 23.0625C343.719 20.9375 343.219 18.375 343.531 15.375C343.781 12.8125 344.594 10.6875 345.969 9C347.406 7.25 349.188 5.875 351.312 4.875C353.5 3.8125 355.906 3.03125 358.531 2.53125C361.219 2.03125 363.938 1.75 366.688 1.6875C369.5 1.5625 372.25 1.59375 374.938 1.78125C377.688 1.96875 380.156 2.1875 382.344 2.4375C384.531 2.6875 386.375 2.9375 387.875 3.1875C389.438 3.375 390.406 3.5 390.781 3.5625C392.406 3.6875 394.031 3.65625 395.656 3.46875C397.094 3.34375 398.656 3.0625 400.344 2.625C402.094 2.125 403.781 1.375 405.406 0.375ZM430.531 27C432.156 27 433.844 27.3125 435.594 27.9375C437.344 28.5 439.031 29.25 440.656 30.1875C442.281 31.0625 443.75 32.0312 445.062 33.0938C446.438 34.0938 447.562 35.0625 448.438 36C450 37.6875 451.062 39.9688 451.625 42.8438C452.25 45.6562 452.375 48.5625 452 51.5625C451.625 54.5 450.75 57.2812 449.375 59.9062C448 62.5312 446.094 64.4688 443.656 65.7188C441.906 66.5938 440.188 67.2812 438.5 67.7812C436.812 68.2812 435.188 68.6562 433.625 68.9062C432.062 69.1562 430.594 69.2812 429.219 69.2812C427.844 69.2812 426.656 69.25 425.656 69.1875C423.781 69.0625 421.812 68.4062 419.75 67.2188C417.75 66.0312 415.844 64.5625 414.031 62.8125C412.281 61.0625 410.781 59.1562 409.531 57.0938C408.281 54.9688 407.531 52.9688 407.281 51.0938C406.906 48.5312 406.844 45.8438 407.094 43.0312C407.344 40.2188 408.25 37.625 409.812 35.25C411.438 32.875 413.875 30.9062 417.125 29.3438C420.438 27.7812 424.906 27 430.531 27ZM427.438 63.375C428.125 63.5 429.062 63.3438 430.25 62.9062C431.438 62.4062 432.594 61.625 433.719 60.5625C434.906 59.5 435.938 58.1562 436.812 56.5312C437.75 54.8438 438.312 52.8125 438.5 50.4375C438.688 48.125 438.688 46 438.5 44.0625C438.375 42.125 438.094 40.4375 437.656 39C437.219 37.5 436.719 36.2812 436.156 35.3438C435.594 34.4062 435 33.75 434.375 33.375C433.312 32.8125 432.031 32.375 430.531 32.0625C429.031 31.6875 427.75 31.75 426.688 32.25C426.188 32.5 425.562 33.0312 424.812 33.8438C424.062 34.6562 423.312 35.6875 422.562 36.9375C421.812 38.125 421.125 39.5 420.5 41.0625C419.938 42.625 419.531 44.25 419.281 45.9375C419.031 47.625 418.969 49.4375 419.094 51.375C419.281 53.3125 419.688 55.1562 420.312 56.9062C420.938 58.5938 421.812 60.0625 422.938 61.3125C424.125 62.5 425.625 63.1875 427.438 63.375ZM463.531 31.0312C463.844 30.6562 464.031 29.9688 464.094 28.9688C464.219 27.9062 464.469 26.7188 464.844 25.4062C465.281 24.0938 466 22.7188 467 21.2812C468 19.8438 469.625 18.5 471.875 17.25C474.062 16 476.188 15.25 478.25 15C480.312 14.75 482.281 14.8438 484.156 15.2812C486.031 15.7188 487.781 16.4062 489.406 17.3438C491.094 18.2812 492.625 19.3125 494 20.4375C494.938 21.1875 495.688 22.2812 496.25 23.7188C496.812 25.0938 497.25 26.6562 497.562 28.4062C497.875 30.1562 498.094 32 498.219 33.9375C498.406 35.8125 498.531 37.6562 498.594 39.4688C498.656 41.2188 498.688 42.8438 498.688 44.3438C498.75 45.7812 498.875 46.9688 499.062 47.9062C499.312 49.2812 499.75 50.4688 500.375 51.4688C501 52.4062 501.688 53.2188 502.438 53.9062C503.188 54.5312 503.938 55.0312 504.688 55.4062C505.438 55.7812 506.094 56.0625 506.656 56.25C507.031 56.4375 507.375 56.5625 507.688 56.625C508.312 56.875 508.75 56.875 509 56.625C508.625 57.5 508.281 58.25 507.969 58.875C507.656 59.5 507.406 60.0312 507.219 60.4688C506.969 60.9688 506.75 61.375 506.562 61.6875C506.375 62.0625 506.156 62.4062 505.906 62.7188C505.719 63.0312 505.469 63.375 505.156 63.75C504.844 64.125 504.531 64.5312 504.219 64.9688C503.406 64.6562 502.625 64.2812 501.875 63.8438C501.188 63.4062 500.562 63 500 62.625C499.312 62.1875 498.688 61.75 498.125 61.3125C497.562 60.875 497.031 60.375 496.531 59.8125C496.094 59.3125 495.625 58.7812 495.125 58.2188C494.688 57.6562 494.312 57.0312 494 56.3438C493.625 57.1562 492.719 58.3125 491.281 59.8125C489.906 61.3125 488.094 62.6875 485.844 63.9375C483.594 65.125 480.969 65.9688 477.969 66.4688C475.031 66.9688 471.781 66.625 468.219 65.4375C466.656 64.9375 465.188 64.2188 463.812 63.2812C462.438 62.2812 461.25 61.0938 460.25 59.7188C459.312 58.3438 458.625 56.7812 458.188 55.0312C457.812 53.2188 457.844 51.2188 458.281 49.0312C458.719 46.8438 459.5 45 460.625 43.5C461.75 42 463.094 40.7812 464.656 39.8438C466.219 38.9062 467.969 38.1875 469.906 37.6875C471.844 37.1875 473.844 36.8438 475.906 36.6562C477.531 36.5938 479.156 36.6875 480.781 36.9375C482.156 37.1875 483.594 37.6562 485.094 38.3438C486.594 38.9688 487.875 39.9375 488.938 41.25C488.875 37.9375 488.75 35.3125 488.562 33.375C488.438 31.375 488.312 29.8438 488.188 28.7812C487.938 27.5312 487.719 26.6562 487.531 26.1562C487.219 25.7188 486.875 25.2188 486.5 24.6562C486.188 24.0938 485.781 23.5938 485.281 23.1562C484.781 22.6562 484.156 22.25 483.406 21.9375C482.656 21.625 481.781 21.5 480.781 21.5625C479.719 21.625 478.875 21.9062 478.25 22.4062C477.625 22.9062 477.125 23.5 476.75 24.1875C476.438 24.8125 476.25 25.5 476.188 26.25C476.125 27 476.156 27.6562 476.281 28.2188C476.406 28.5938 476.594 29 476.844 29.4375C477.094 29.8125 477.438 30.2188 477.875 30.6562C478.312 31.0938 478.906 31.4688 479.656 31.7812C478.219 31.9688 476.938 32.125 475.812 32.25C474.688 32.3125 473.719 32.4062 472.906 32.5312C471.969 32.6562 471.156 32.75 470.469 32.8125C469.781 32.875 468.969 33 468.031 33.1875C467.219 33.3125 466.219 33.4688 465.031 33.6562C463.844 33.8438 462.469 34.0938 460.906 34.4062C461.281 33.9688 461.625 33.5625 461.938 33.1875C462.25 32.75 462.531 32.375 462.781 32.0625C463.031 31.6875 463.281 31.3438 463.531 31.0312ZM477.594 42.1875C476.469 42.25 475.344 42.5312 474.219 43.0312C473.094 43.4688 472.094 44.125 471.219 45C470.344 45.8125 469.594 46.7812 468.969 47.9062C468.406 48.9688 468.125 50.1562 468.125 51.4688C468.125 52.7812 468.438 53.9375 469.062 54.9375C469.75 55.875 470.625 56.6562 471.688 57.2812C472.812 57.9062 474 58.2812 475.25 58.4062C476.562 58.5312 477.844 58.4062 479.094 58.0312C480.281 57.5938 481.406 56.9062 482.469 55.9688C483.531 54.9688 484.438 53.9062 485.188 52.7812C485.938 51.5938 486.469 50.4375 486.781 49.3125C487.094 48.125 487.125 47.1562 486.875 46.4062C486.375 44.7812 485.25 43.6562 483.5 43.0312C481.75 42.3438 479.781 42.0625 477.594 42.1875ZM507.125 24.0938C508.312 24.1562 509.375 24.1875 510.312 24.1875C511.312 24.125 512.156 24.0625 512.844 24C513.656 23.9375 514.375 23.875 515 23.8125C515.938 23.6875 516.906 23.5312 517.906 23.3438C518.781 23.2188 519.688 23.0625 520.625 22.875C521.625 22.625 522.594 22.3438 523.531 22.0312C523.156 22.9688 522.844 23.7812 522.594 24.4688C522.344 25.1562 522.156 25.75 522.031 26.25C521.844 26.8125 521.75 27.2812 521.75 27.6562C521.688 28.0938 521.656 28.625 521.656 29.25C521.594 30.3125 521.594 32.0312 521.656 34.4062C524.906 31.5938 527.625 29.4062 529.812 27.8438C532.062 26.2812 533.844 25.0625 535.156 24.1875C536.719 23.1875 537.938 22.5312 538.812 22.2188C541.125 21.8438 543.156 22.375 544.906 23.8125C545.656 24.4375 546.375 25.2812 547.062 26.3438C547.75 27.3438 548.344 28.6875 548.844 30.375C549.344 32.0625 549.719 34.0938 549.969 36.4688C550.219 38.7812 550.25 41.5625 550.062 44.8125C548.75 44.9375 547.562 45.0625 546.5 45.1875C545.5 45.3125 544.656 45.4062 543.969 45.4688C543.156 45.5938 542.406 45.6562 541.719 45.6562L539.188 45.9375C538.312 46.0625 537.219 46.1875 535.906 46.3125C534.656 46.375 533.125 46.5 531.312 46.6875C533.938 44.5625 535.625 42.7188 536.375 41.1562C537.188 39.5312 537.531 38.1875 537.406 37.125C537.281 35.9375 536.719 34.9062 535.719 34.0312C534.531 33.3438 533.25 33.0938 531.875 33.2812C530.688 33.4062 529.312 33.9375 527.75 34.875C526.188 35.8125 524.531 37.5625 522.781 40.125C522.906 44.125 523.031 47.4375 523.156 50.0625C523.344 52.6875 523.5 54.8125 523.625 56.4375C523.812 58.3125 523.969 59.7812 524.094 60.8438C524.281 61.7812 524.656 62.7812 525.219 63.8438C525.656 64.7188 526.281 65.6875 527.094 66.75C527.906 67.8125 528.969 68.875 530.281 69.9375C527.531 69.8125 525.281 69.8125 523.531 69.9375C522.469 70 521.531 70.0625 520.719 70.125C519.844 70.25 518.906 70.375 517.906 70.5C517.031 70.625 516 70.75 514.812 70.875C513.688 71.0625 512.438 71.25 511.062 71.4375C511.562 70.75 511.969 69.9375 512.281 69C512.594 68.125 512.844 67.2812 513.031 66.4688C513.281 65.5312 513.469 64.5625 513.594 63.5625C513.656 62.6875 513.688 61.375 513.688 59.625C513.75 57.875 513.719 55.9062 513.594 53.7188C513.531 51.4688 513.438 49.1562 513.312 46.7812C513.188 44.3438 513.031 42.0625 512.844 39.9375C512.656 37.8125 512.438 35.9688 512.188 34.4062C512 32.7812 511.781 31.6562 511.531 31.0312C511.219 30.2812 510.844 29.5312 510.406 28.7812C510.031 28.0938 509.562 27.375 509 26.625C508.438 25.8125 507.812 24.9688 507.125 24.0938ZM578.375 53.9062C580.125 53.9062 581.75 53.7188 583.25 53.3438C584.5 53.0312 585.688 52.5312 586.812 51.8438C588 51.0938 588.781 50 589.156 48.5625C590.406 48.8125 591.469 49.0312 592.344 49.2188C593.219 49.3438 593.969 49.4688 594.594 49.5938C595.281 49.7812 595.875 49.9062 596.375 49.9688C596.875 50.0938 597.469 50.2188 598.156 50.3438C598.781 50.4688 599.531 50.625 600.406 50.8125C601.344 50.9375 602.438 51.125 603.688 51.375C602.75 51.25 601.781 51.3438 600.781 51.6562C599.844 51.9688 598.938 52.3125 598.062 52.6875C597.062 53.125 596.125 53.6562 595.25 54.2812C594.688 54.6562 594.031 55.2188 593.281 55.9688C592.594 56.7188 591.594 57.4375 590.281 58.125C588.969 58.8125 587.219 59.4062 585.031 59.9062C582.906 60.3438 580.156 60.5 576.781 60.375C572.719 60.25 569.312 59.5312 566.562 58.2188C563.812 56.8438 561.594 55.1875 559.906 53.25C558.219 51.25 557 49.0938 556.25 46.7812C555.5 44.4688 555.094 42.3125 555.031 40.3125C554.969 38.3125 555.562 36.2188 556.812 34.0312C558.062 31.8438 559.812 29.8438 562.062 28.0312C564.375 26.2188 567.156 24.75 570.406 23.625C573.656 22.4375 577.219 21.8438 581.094 21.8438C583.344 21.8438 585.406 22.125 587.281 22.6875C589.219 23.1875 590.969 23.875 592.531 24.75C594.156 25.625 595.562 26.625 596.75 27.75C597.938 28.8125 598.938 29.9062 599.75 31.0312C600.562 32.2188 601.25 33.4688 601.812 34.7812C602.312 35.9062 602.719 37.1875 603.031 38.625C603.344 40.0625 603.438 41.5312 603.312 43.0312C598.562 43.1562 594.719 43.25 591.781 43.3125C588.906 43.375 586.656 43.4062 585.031 43.4062H580.812H577.625C576.5 43.4062 575.031 43.4375 573.219 43.5C571.406 43.5625 569.188 43.6562 566.562 43.7812C566.875 46.2812 567.656 48.2188 568.906 49.5938C570.219 50.9062 571.594 51.9062 573.031 52.5938C574.656 53.3438 576.438 53.7812 578.375 53.9062ZM569.938 37.0312C571.938 37.1562 573.594 37.25 574.906 37.3125C576.281 37.375 577.406 37.4375 578.281 37.5C579.219 37.5625 579.969 37.5938 580.531 37.5938H582.875C584.438 37.5938 587.344 37.5 591.594 37.3125C591.406 34.5625 590.812 32.4688 589.812 31.0312C588.875 29.5938 587.875 28.5312 586.812 27.8438C585.562 27.0938 584.188 26.6562 582.688 26.5312C578.625 26.5938 575.594 27.4375 573.594 29.0625C571.656 30.6875 570.438 33.3438 569.938 37.0312ZM648.406 15.4688C647.844 16.8438 647.344 18.0938 646.906 19.2188C646.531 20.3438 646.188 21.3438 645.875 22.2188C645.562 23.2188 645.281 24.0938 645.031 24.8438C644.781 25.7188 644.5 26.7188 644.188 27.8438C643.875 28.8438 643.469 30.0938 642.969 31.5938C642.531 33.0312 642 34.75 641.375 36.75C640.875 33.75 639.969 31.375 638.656 29.625C637.344 27.8125 636 26.4062 634.625 25.4062C633 24.2812 631.25 23.4688 629.375 22.9688C626 22.4062 623.562 22.4688 622.062 23.1562C620.562 23.8438 619.562 24.7188 619.062 25.7812C618.812 26.2188 618.531 26.7812 618.219 27.4688C617.969 28.0938 617.75 28.75 617.562 29.4375C617.438 30.125 617.406 30.8125 617.469 31.5C617.531 32.1875 617.812 32.75 618.312 33.1875C618.625 33.5 619.438 33.9375 620.75 34.5C622.062 35 623.625 35.5938 625.438 36.2812C627.312 36.9062 629.281 37.5938 631.344 38.3438C633.469 39.0938 635.469 39.8438 637.344 40.5938C639.219 41.3438 640.844 42.0938 642.219 42.8438C643.594 43.5938 644.5 44.2812 644.938 44.9062C645.312 45.5312 645.719 46.375 646.156 47.4375C646.656 48.4375 647 49.5625 647.188 50.8125C647.438 52 647.5 53.25 647.375 54.5625C647.312 55.8125 646.969 57.0625 646.344 58.3125C645.719 59.5625 644.719 60.7188 643.344 61.7812C642.031 62.8438 640.25 63.7188 638 64.4062C635.375 65.2188 632.844 65.4375 630.406 65.0625C627.969 64.6875 625.719 64.125 623.656 63.375C621.656 62.625 619.906 61.9062 618.406 61.2188C616.906 60.4688 615.844 60.1562 615.219 60.2812C614.531 60.4062 613.75 60.75 612.875 61.3125C612 61.875 611.156 62.4688 610.344 63.0938C609.594 63.6562 608.938 64.1875 608.375 64.6875C607.812 65.125 607.531 65.2812 607.531 65.1562C607.531 65.0312 607.625 64.6562 607.812 64.0312C608.062 63.4062 608.312 62.6562 608.562 61.7812C608.875 60.8438 609.156 59.8438 609.406 58.7812C609.719 57.6562 609.938 56.5938 610.062 55.5938C610.188 54.7812 610.344 53.7812 610.531 52.5938C610.656 51.5312 610.812 50.25 611 48.75C611.25 47.1875 611.531 45.3125 611.844 43.125C612.156 44.75 612.594 46.1562 613.156 47.3438C613.781 48.5312 614.375 49.5625 614.938 50.4375C615.625 51.4375 616.281 52.2812 616.906 52.9688C617.844 53.8438 618.938 54.6562 620.188 55.4062C621.5 56.1562 622.812 56.8125 624.125 57.375C625.438 57.875 626.688 58.1875 627.875 58.3125C629.062 58.4375 630.062 58.3125 630.875 57.9375C631.688 57.5625 632.375 56.875 632.938 55.875C633.562 54.875 634 53.7812 634.25 52.5938C634.5 51.4062 634.594 50.2812 634.531 49.2188C634.469 48.0938 634.188 47.1875 633.688 46.5C633.312 46.0625 632.438 45.5 631.062 44.8125C629.75 44.125 628.156 43.375 626.281 42.5625C624.469 41.75 622.531 40.9062 620.469 40.0312C618.469 39.1562 616.562 38.2812 614.75 37.4062C613 36.4688 611.531 35.5938 610.344 34.7812C609.219 33.9062 608.594 33.125 608.469 32.4375C608.344 31.4375 608.25 30.3438 608.188 29.1562C608.125 27.9062 608.188 26.6875 608.375 25.5C608.625 24.25 609.062 23.0625 609.688 21.9375C610.375 20.8125 611.375 19.875 612.688 19.125C613.562 18.625 614.719 18.25 616.156 18C617.594 17.75 619.188 17.625 620.938 17.625C622.688 17.5625 624.5 17.625 626.375 17.8125C628.25 17.9375 630.031 18.125 631.719 18.375C633.469 18.5625 635.031 18.8125 636.406 19.125C637.844 19.4375 638.938 19.7188 639.688 19.9688C640.562 20.2812 641.5 20.3125 642.5 20.0625C643.375 19.875 644.312 19.4688 645.312 18.8438C646.312 18.2188 647.344 17.0938 648.406 15.4688Z" fill="black"/>
</svg>
