<svg width="605" height="75" viewBox="0 0 605 75" fill="none" xmlns="http://www.w3.org/2000/svg">
<path d="M0.875 4.03125C2.6875 4.34375 4.28125 4.5625 5.65625 4.6875C7.09375 4.8125 8.28125 4.90625 9.21875 4.96875C10.3438 5.03125 11.3125 5.0625 12.125 5.0625C12.9375 5.0625 14.0938 5 15.5938 4.875C16.8438 4.75 18.4688 4.59375 20.4688 4.40625C22.5312 4.21875 25.0625 3.90625 28.0625 3.46875C27.1875 3.71875 26.375 4.4375 25.625 5.625C24.9375 6.75 24.3125 7.96875 23.75 9.28125C23.0625 10.8437 22.4688 12.5625 21.9688 14.4375C21.5312 16.125 20.9688 18.4375 20.2812 21.375C19.6562 24.3125 19.0312 27.5 18.4062 30.9375C17.8438 34.375 17.4062 37.875 17.0938 41.4375C16.7812 44.9375 16.7188 48.1562 16.9062 51.0938C17.1562 54.0312 17.75 56.4688 18.6875 58.4062C19.625 60.2812 21.0625 61.2812 23 61.4062C25.9375 61.6562 28.375 61.6875 30.3125 61.5C32.3125 61.25 33.9375 60.9062 35.1875 60.4688C36.4375 60.0312 37.4062 59.5312 38.0938 58.9688C38.7812 58.3438 39.3125 57.75 39.6875 57.1875C40.6875 55.75 41.7188 53.9062 42.7812 51.6562C43.8438 49.4062 44.7812 47.25 45.5938 45.1875C46.4688 43.125 47.1875 41.375 47.75 39.9375C48.3125 38.5 48.5938 37.8125 48.5938 37.875C48.5938 38 48.5625 38.7188 48.5 40.0312C48.5 41.2812 48.4688 42.8125 48.4062 44.625C48.4062 46.375 48.375 48.2188 48.3125 50.1562C48.3125 52.0938 48.2812 53.75 48.2188 55.125C48.1562 56.25 48.0938 57.5 48.0312 58.875C47.9688 60.0625 47.9062 61.4688 47.8438 63.0938C47.8438 64.7188 47.7812 66.5 47.6562 68.4375C45.0312 68.25 42.5312 68.125 40.1562 68.0625C37.7812 68 35.6875 67.9688 33.875 67.9688C31.75 67.9688 29.7812 68 27.9688 68.0625C26.0312 68.125 23.7812 68.2188 21.2188 68.3438C19.0312 68.4688 16.3125 68.625 13.0625 68.8125C9.8125 68.9375 6.0625 69.125 1.8125 69.375C2.3125 68.5 2.71875 67.6875 3.03125 66.9375C3.40625 66.1875 3.6875 65.5625 3.875 65.0625C4.125 64.4375 4.28125 63.9062 4.34375 63.4688C4.71875 61.4688 5.03125 58.9375 5.28125 55.875C5.53125 52.75 5.71875 49.4375 5.84375 45.9375C6.03125 42.4375 6.125 38.875 6.125 35.25C6.1875 31.5625 6.1875 28.1562 6.125 25.0312C6.0625 21.9062 5.9375 19.1875 5.75 16.875C5.625 14.5625 5.4375 12.9688 5.1875 12.0938C4.875 11.0938 4.5 10.0937 4.0625 9.09375C3.6875 8.21875 3.21875 7.34375 2.65625 6.46875C2.15625 5.53125 1.5625 4.71875 0.875 4.03125ZM53.8438 30.0938L71.0938 30.2812C70.0938 34.0938 69.3438 37.3438 68.8438 40.0312C68.4062 42.7188 68.125 44.9688 68 46.7812C67.75 48.8438 67.6875 50.5938 67.8125 52.0312C68 53.3438 68.3125 54.75 68.75 56.25C69.125 57.5 69.6875 58.9375 70.4375 60.5625C71.1875 62.1875 72.1875 63.8125 73.4375 65.4375C72.6875 65.1875 71.875 65 71 64.875C70.125 64.75 69.3125 64.6562 68.5625 64.5938C67.6875 64.5312 66.8125 64.5312 65.9375 64.5938C65.0625 64.6562 64.0938 64.75 63.0312 64.875C62.1562 65 61.0938 65.1562 59.8438 65.3438C58.5938 65.5312 57.2812 65.7812 55.9062 66.0938C56.8438 63.2812 57.5625 60.8438 58.0625 58.7812C58.625 56.7188 59.0312 55 59.2812 53.625C59.5312 52 59.6875 50.6875 59.75 49.6875C59.75 48.4375 59.75 47.0312 59.75 45.4688C59.75 43.8438 59.75 42.2812 59.75 40.7812C59.75 39.2812 59.7188 37.9688 59.6562 36.8438C59.5938 35.6562 59.4688 34.9062 59.2812 34.5938L58.3438 33.6562C57.9688 33.3438 57.4062 32.9062 56.6562 32.3438C55.9688 31.7188 55.0312 30.9688 53.8438 30.0938ZM60.5 15.6562C61.8125 14.9688 63.125 14.7812 64.4375 15.0938C65.8125 15.4062 66.875 16 67.625 16.875C68.375 17.75 68.625 18.7812 68.375 19.9688C68.1875 21.1562 67.1875 22.3125 65.375 23.4375C63.5625 24.5 61.9688 24.875 60.5938 24.5625C59.2188 24.25 58.25 23.5938 57.6875 22.5938C57.125 21.5938 57.0312 20.4375 57.4062 19.125C57.7812 17.75 58.8125 16.5938 60.5 15.6562ZM78.9688 74.625C79.5938 73.6875 80.0938 72.8125 80.4688 72C80.8438 71.1875 81.1562 70.5 81.4062 69.9375C81.6562 69.25 81.8438 68.625 81.9688 68.0625C82.0312 67.6875 82.0625 66.5938 82.0625 64.7812C82.0625 62.9688 82 60.6875 81.875 57.9375C81.8125 55.1875 81.7188 52.0938 81.5938 48.6562C81.5312 45.2188 81.4062 41.7188 81.2188 38.1562C81.0938 34.5938 80.9375 31.125 80.75 27.75C80.625 24.375 80.5 21.3438 80.375 18.6562C80.25 15.9062 80.125 13.6562 80 11.9062C79.875 10.1563 79.7812 9.15625 79.7188 8.90625C79.5938 8.53125 79.375 8.15625 79.0625 7.78125C78.4375 7.03125 77.375 6.3125 75.875 5.625C79.0625 4.8125 81.5 4.15625 83.1875 3.65625C84.1875 3.40625 85.0625 3.15625 85.8125 2.90625C86.5 2.65625 87.1875 2.40625 87.875 2.15625C88.4375 1.90625 89.0625 1.625 89.75 1.3125C90.4375 0.9375 91.0625 0.53125 91.625 0.09375C91.3125 1.90625 91.0625 3.65625 90.875 5.34375C90.6875 7.03125 90.5312 8.59375 90.4062 10.0312C90.2812 11.6563 90.2188 13.2188 90.2188 14.7188C89.9062 17.7812 89.7188 21.125 89.6562 24.75C89.6562 28.3125 89.6875 31.9375 89.75 35.625C89.8125 39.3125 89.9375 42.9062 90.125 46.4062C90.3125 49.9062 90.5 53.0938 90.6875 55.9688C90.9375 58.7812 91.1562 61.1875 91.3438 63.1875C91.5938 65.125 91.7812 66.375 91.9062 66.9375C92.1562 67.875 92.4062 68.7812 92.6562 69.6562C92.9062 70.4062 93.1875 71.1875 93.5 72C93.8125 72.875 94.1875 73.5625 94.625 74.0625H85.5312C84.7188 74.0625 83.9375 74.0938 83.1875 74.1562C82.5 74.2188 81.7812 74.2812 81.0312 74.3438C80.2812 74.4062 79.5938 74.5 78.9688 74.625ZM98 30.0938L115.25 30.2812C114.25 34.0938 113.5 37.3438 113 40.0312C112.562 42.7188 112.281 44.9688 112.156 46.7812C111.906 48.8438 111.844 50.5938 111.969 52.0312C112.156 53.3438 112.469 54.75 112.906 56.25C113.281 57.5 113.844 58.9375 114.594 60.5625C115.344 62.1875 116.344 63.8125 117.594 65.4375C116.844 65.1875 116.031 65 115.156 64.875C114.281 64.75 113.469 64.6562 112.719 64.5938C111.844 64.5312 110.969 64.5312 110.094 64.5938C109.219 64.6562 108.25 64.75 107.188 64.875C106.312 65 105.25 65.1562 104 65.3438C102.75 65.5312 101.438 65.7812 100.062 66.0938C101 63.2812 101.719 60.8438 102.219 58.7812C102.781 56.7188 103.188 55 103.438 53.625C103.688 52 103.844 50.6875 103.906 49.6875C103.906 48.4375 103.906 47.0312 103.906 45.4688C103.906 43.8438 103.906 42.2812 103.906 40.7812C103.906 39.2812 103.875 37.9688 103.812 36.8438C103.75 35.6562 103.625 34.9062 103.438 34.5938L102.5 33.6562C102.125 33.3438 101.562 32.9062 100.812 32.3438C100.125 31.7188 99.1875 30.9688 98 30.0938ZM104.656 15.6562C105.969 14.9688 107.281 14.7812 108.594 15.0938C109.969 15.4062 111.031 16 111.781 16.875C112.531 17.75 112.781 18.7812 112.531 19.9688C112.344 21.1562 111.344 22.3125 109.531 23.4375C107.719 24.5 106.125 24.875 104.75 24.5625C103.375 24.25 102.406 23.5938 101.844 22.5938C101.281 21.5938 101.188 20.4375 101.562 19.125C101.938 17.75 102.969 16.5938 104.656 15.6562ZM119.844 12.9375C121.719 13.125 123.281 13.2812 124.531 13.4062C125.844 13.5312 126.906 13.625 127.719 13.6875C128.656 13.75 129.406 13.7812 129.969 13.7812C130.531 13.8438 131.281 13.8438 132.219 13.7812C133.031 13.7188 134.094 13.6562 135.406 13.5938C136.719 13.4688 138.375 13.2812 140.375 13.0312C139.938 13.6562 139.594 14.2188 139.344 14.7188C139.094 15.1562 138.875 15.5625 138.688 15.9375L138.125 17.0625C138 17.4375 137.875 17.8125 137.75 18.1875C137.625 18.5 137.5 18.875 137.375 19.3125C137.312 19.75 137.25 20.2188 137.188 20.7188H151.625L150.312 28.3125L137.094 27.5625C136.781 30.75 136.562 33.2188 136.438 34.9688C136.312 36.7188 136.188 38 136.062 38.8125L135.875 40.5C135.688 42.875 135.5 45.4688 135.312 48.2812C135.125 51.0312 135.062 53.5938 135.125 55.9688C135.188 58.3438 135.406 60.3438 135.781 61.9688C136.156 63.5312 136.812 64.3125 137.75 64.3125C138.688 64.3125 139.562 64.0625 140.375 63.5625C141.188 63.0625 141.875 62.4688 142.438 61.7812C143.062 61.0938 143.531 60.4062 143.844 59.7188C144.156 58.9688 144.312 58.4062 144.312 58.0312C144.312 57.6562 144.219 57.2188 144.031 56.7188C143.719 55.7812 143.156 54.5938 142.344 53.1562C144.156 53.5938 145.75 54.0312 147.125 54.4688C147.812 54.7188 148.438 54.9688 149 55.2188C149.625 55.4688 150.344 55.75 151.156 56.0625C151.844 56.375 152.719 56.75 153.781 57.1875C154.844 57.625 156.094 58.1562 157.531 58.7812C156.156 59.0312 155.156 59.4375 154.531 60C154.156 60.25 153.875 60.5312 153.688 60.8438C153.25 61.5312 152.75 62.4688 152.188 63.6562C151.625 64.7812 150.781 65.9062 149.656 67.0312C148.531 68.1562 147 69.1562 145.062 70.0312C143.188 70.9062 140.656 71.4062 137.469 71.5312C134.156 71.6562 131.625 71.0938 129.875 69.8438C128.188 68.5938 126.938 67.1562 126.125 65.5312C125.375 63.8438 124.938 62.1875 124.812 60.5625C124.688 58.9375 124.594 57.8438 124.531 57.2812C124.469 56.7188 124.469 55.3125 124.531 53.0625C124.594 50.8125 124.688 48.3438 124.812 45.6562C124.938 42.9062 125.062 40.2812 125.188 37.7812C125.312 35.2188 125.375 33.3438 125.375 32.1562C125.375 31.5312 125.406 30.875 125.469 30.1875C125.469 29.625 125.469 29.0312 125.469 28.4062C125.531 27.7188 125.562 27.0625 125.562 26.4375L111.969 26.3438L111.406 21L125.094 21.375C124.969 20.6875 124.812 20.0625 124.625 19.5C124.5 18.875 124.375 18.375 124.25 18C124.062 17.5625 123.875 17.1875 123.688 16.875C123.438 16.5625 123.156 16.2188 122.844 15.8438C122.531 15.5312 122.125 15.125 121.625 14.625C121.125 14.125 120.531 13.5625 119.844 12.9375ZM153.219 0.9375C154.656 1.1875 155.969 1.375 157.156 1.5C158.344 1.5625 159.344 1.625 160.156 1.6875C161.094 1.75 161.906 1.78125 162.594 1.78125C163.531 1.71875 164.625 1.625 165.875 1.5C166.938 1.375 168.219 1.21875 169.719 1.03125C171.281 0.84375 173.062 0.59375 175.062 0.28125C174.125 0.78125 173.344 1.28125 172.719 1.78125C172.094 2.21875 171.594 2.6875 171.219 3.1875C170.781 3.75 170.438 4.28125 170.188 4.78125C169.875 5.59375 169.531 7.28125 169.156 9.84375C168.781 12.0312 168.312 15.2812 167.75 19.5938C167.25 23.9062 166.594 29.75 165.781 37.125C168.031 34.875 170.156 33.1875 172.156 32.0625C174.219 30.875 176.031 30.0312 177.594 29.5312C179.406 28.9688 181.094 28.6875 182.656 28.6875C184.594 28.875 186.562 29.5 188.562 30.5625C190.625 31.5625 192.531 32.75 194.281 34.125C196.094 35.5 197.656 36.9688 198.969 38.5312C200.344 40.0938 201.312 41.4688 201.875 42.6562C202.25 43.4688 202.438 44.5312 202.438 45.8438C202.438 47.0938 202.312 48.4688 202.062 49.9688C201.812 51.4688 201.469 53 201.031 54.5625C200.594 56.125 200.156 57.5938 199.719 58.9688C199.344 60.3438 199 61.5625 198.688 62.625C198.375 63.625 198.188 64.3438 198.125 64.7812C198 65.7188 198.062 66.625 198.312 67.5C198.5 68.25 198.875 69.0625 199.438 69.9375C200 70.75 200.844 71.4375 201.969 72C201.094 71.875 200.156 71.7812 199.156 71.7188C198.219 71.5938 197.312 71.5 196.438 71.4375C195.438 71.375 194.438 71.3438 193.438 71.3438H190.062C189 71.3438 187.781 71.375 186.406 71.4375C185.031 71.4375 183.531 71.4688 181.906 71.5312C182.781 71.2188 183.531 70.8125 184.156 70.3125C184.781 69.75 185.312 69.2188 185.75 68.7188C186.25 68.1562 186.688 67.5625 187.062 66.9375C187.312 66.4375 187.625 65.5 188 64.125C188.375 62.6875 188.719 61.0625 189.031 59.25C189.344 57.375 189.562 55.4062 189.688 53.3438C189.875 51.2812 189.906 49.3125 189.781 47.4375C189.719 45.5 189.438 43.7812 188.938 42.2812C188.5 40.7812 187.812 39.6875 186.875 39C184.062 36.875 181.5 35.8438 179.188 35.9062C176.938 35.9062 174.781 36.8125 172.719 38.625C171.969 39.3125 171.25 40 170.562 40.6875C169.938 41.3125 169.25 42.0625 168.5 42.9375C167.75 43.75 167.062 44.5938 166.438 45.4688C166.438 46.4062 166.469 47.4375 166.531 48.5625C166.594 49.6875 166.656 50.7812 166.719 51.8438C166.781 53.0312 166.875 54.2188 167 55.4062C167.125 57.2188 167.312 59 167.562 60.75C167.75 62.25 168 63.9062 168.312 65.7188C168.625 67.4688 169.031 69.0625 169.531 70.5C168.719 70.375 167.875 70.3438 167 70.4062C166.125 70.4062 165.281 70.4062 164.469 70.4062C163.531 70.4688 162.625 70.5 161.75 70.5C160.938 70.5625 160.094 70.6562 159.219 70.7812C158.469 70.9062 157.656 71.0312 156.781 71.1562C155.906 71.2188 155.062 71.3438 154.25 71.5312C155 70.0938 155.625 68.6875 156.125 67.3125C156.625 65.875 157.031 64.625 157.344 63.5625C157.719 62.3125 158.031 61.0938 158.281 59.9062C158.469 58.9688 158.594 57.1875 158.656 54.5625C158.781 51.875 158.875 48.8125 158.938 45.375C159 41.875 159.031 38.1875 159.031 34.3125C159.031 30.4375 159 26.75 158.938 23.25C158.875 19.75 158.75 16.6875 158.562 14.0625C158.438 11.4375 158.281 9.625 158.094 8.625C157.844 7.625 157.5 6.625 157.062 5.625C156.688 4.75 156.188 3.90625 155.562 3.09375C154.938 2.21875 154.156 1.5 153.219 0.9375ZM264.875 2.71875C267.062 2.71875 269.031 3.09375 270.781 3.84375C272.594 4.53125 274.25 5.3125 275.75 6.1875C277.312 7.0625 278.781 7.875 280.156 8.625C281.531 9.3125 282.938 9.65625 284.375 9.65625C285.5 9.59375 286.781 9.4375 288.219 9.1875C289.469 8.9375 290.906 8.5625 292.531 8.0625C294.219 7.5 296.094 6.6875 298.156 5.625C296.094 7.625 294.406 9.3125 293.094 10.6875C291.844 12 290.875 13.0938 290.188 13.9688C289.375 14.9688 288.781 15.75 288.406 16.3125C288.031 17 287.469 18.0312 286.719 19.4062C286.031 20.6562 285.094 22.3438 283.906 24.4688C282.719 26.5312 281.219 29.25 279.406 32.625C279.406 28.3125 278.969 24.9688 278.094 22.5938C277.281 20.2188 276.375 18.4062 275.375 17.1562C274.188 15.7188 272.844 14.8125 271.344 14.4375C269.969 14.25 268.594 14.5 267.219 15.1875C265.844 15.8125 264.469 16.75 263.094 18C261.781 19.25 260.5 20.75 259.25 22.5C258.062 24.1875 256.969 25.9688 255.969 27.8438C255.031 29.7188 254.25 31.625 253.625 33.5625C253 35.4375 252.594 37.1875 252.406 38.8125C252.219 40.25 252.188 41.9375 252.312 43.875C252.438 45.75 252.719 47.6875 253.156 49.6875C253.594 51.625 254.156 53.5312 254.844 55.4062C255.531 57.2812 256.375 58.9688 257.375 60.4688C258.438 61.9062 259.625 63.0938 260.938 64.0312C262.25 64.9062 263.75 65.3125 265.438 65.25C267.312 65.125 269.156 64.5625 270.969 63.5625C272.531 62.75 274.125 61.5 275.75 59.8125C277.375 58.0625 278.781 55.5938 279.969 52.4062L293.844 54.9375C289.844 59.8125 285.938 63.4688 282.125 65.9062C278.375 68.3438 275 70.0625 272 71.0625C268.5 72.1875 265.188 72.7188 262.062 72.6562C258.125 72.2188 254.438 71.0312 251 69.0938C247.562 67.1562 244.594 64.8125 242.094 62.0625C239.656 59.25 237.75 56.1875 236.375 52.875C235 49.5625 234.406 46.3125 234.594 43.125C234.719 41 235.156 38.5312 235.906 35.7188C236.656 32.8438 237.656 29.9062 238.906 26.9062C240.219 23.9062 241.781 20.9688 243.594 18.0938C245.406 15.2188 247.406 12.6562 249.594 10.4062C251.781 8.09375 254.156 6.25 256.719 4.875C259.344 3.4375 262.062 2.71875 264.875 2.71875ZM301.812 34.0312C302.125 33.6562 302.312 32.9688 302.375 31.9688C302.5 30.9062 302.75 29.7188 303.125 28.4062C303.562 27.0938 304.281 25.7188 305.281 24.2812C306.281 22.8438 307.906 21.5 310.156 20.25C312.344 19 314.469 18.25 316.531 18C318.594 17.75 320.562 17.8438 322.438 18.2812C324.312 18.7188 326.062 19.4062 327.688 20.3438C329.375 21.2812 330.906 22.3125 332.281 23.4375C333.219 24.1875 333.969 25.2812 334.531 26.7188C335.094 28.0938 335.531 29.6562 335.844 31.4062C336.156 33.1562 336.375 35 336.5 36.9375C336.688 38.8125 336.812 40.6562 336.875 42.4688C336.938 44.2188 336.969 45.8438 336.969 47.3438C337.031 48.7812 337.156 49.9688 337.344 50.9062C337.594 52.2812 338.031 53.4688 338.656 54.4688C339.281 55.4062 339.969 56.2188 340.719 56.9062C341.469 57.5312 342.219 58.0312 342.969 58.4062C343.719 58.7812 344.375 59.0625 344.938 59.25C345.312 59.4375 345.656 59.5625 345.969 59.625C346.594 59.875 347.031 59.875 347.281 59.625C346.906 60.5 346.562 61.25 346.25 61.875C345.938 62.5 345.688 63.0312 345.5 63.4688C345.25 63.9688 345.031 64.375 344.844 64.6875C344.656 65.0625 344.438 65.4062 344.188 65.7188C344 66.0312 343.75 66.375 343.438 66.75C343.125 67.125 342.812 67.5312 342.5 67.9688C341.688 67.6562 340.906 67.2812 340.156 66.8438C339.469 66.4062 338.844 66 338.281 65.625C337.594 65.1875 336.969 64.75 336.406 64.3125C335.844 63.875 335.312 63.375 334.812 62.8125C334.375 62.3125 333.906 61.7812 333.406 61.2188C332.969 60.6562 332.594 60.0312 332.281 59.3438C331.906 60.1562 331 61.3125 329.562 62.8125C328.188 64.3125 326.375 65.6875 324.125 66.9375C321.875 68.125 319.25 68.9688 316.25 69.4688C313.312 69.9688 310.062 69.625 306.5 68.4375C304.938 67.9375 303.469 67.2188 302.094 66.2812C300.719 65.2812 299.531 64.0938 298.531 62.7188C297.594 61.3438 296.906 59.7812 296.469 58.0312C296.094 56.2188 296.125 54.2188 296.562 52.0312C297 49.8438 297.781 48 298.906 46.5C300.031 45 301.375 43.7812 302.938 42.8438C304.5 41.9062 306.25 41.1875 308.188 40.6875C310.125 40.1875 312.125 39.8438 314.188 39.6562C315.812 39.5938 317.438 39.6875 319.062 39.9375C320.438 40.1875 321.875 40.6562 323.375 41.3438C324.875 41.9688 326.156 42.9375 327.219 44.25C327.156 40.9375 327.031 38.3125 326.844 36.375C326.719 34.375 326.594 32.8438 326.469 31.7812C326.219 30.5312 326 29.6562 325.812 29.1562C325.5 28.7188 325.156 28.2188 324.781 27.6562C324.469 27.0938 324.062 26.5938 323.562 26.1562C323.062 25.6562 322.438 25.25 321.688 24.9375C320.938 24.625 320.062 24.5 319.062 24.5625C318 24.625 317.156 24.9062 316.531 25.4062C315.906 25.9062 315.406 26.5 315.031 27.1875C314.719 27.8125 314.531 28.5 314.469 29.25C314.406 30 314.438 30.6562 314.562 31.2188C314.688 31.5938 314.875 32 315.125 32.4375C315.375 32.8125 315.719 33.2188 316.156 33.6562C316.594 34.0938 317.188 34.4688 317.938 34.7812C316.5 34.9688 315.219 35.125 314.094 35.25C312.969 35.3125 312 35.4062 311.188 35.5312C310.25 35.6562 309.438 35.75 308.75 35.8125C308.062 35.875 307.25 36 306.312 36.1875C305.5 36.3125 304.5 36.4688 303.312 36.6562C302.125 36.8438 300.75 37.0938 299.188 37.4062C299.562 36.9688 299.906 36.5625 300.219 36.1875C300.531 35.75 300.812 35.375 301.062 35.0625C301.312 34.6875 301.562 34.3438 301.812 34.0312ZM315.875 45.1875C314.75 45.25 313.625 45.5312 312.5 46.0312C311.375 46.4688 310.375 47.125 309.5 48C308.625 48.8125 307.875 49.7812 307.25 50.9062C306.688 51.9688 306.406 53.1562 306.406 54.4688C306.406 55.7812 306.719 56.9375 307.344 57.9375C308.031 58.875 308.906 59.6562 309.969 60.2812C311.094 60.9062 312.281 61.2812 313.531 61.4062C314.844 61.5312 316.125 61.4062 317.375 61.0312C318.562 60.5938 319.688 59.9062 320.75 58.9688C321.812 57.9688 322.719 56.9062 323.469 55.7812C324.219 54.5938 324.75 53.4375 325.062 52.3125C325.375 51.125 325.406 50.1562 325.156 49.4062C324.656 47.7812 323.531 46.6562 321.781 46.0312C320.031 45.3438 318.062 45.0625 315.875 45.1875ZM345.406 27.0938C346.594 27.1562 347.656 27.1875 348.594 27.1875C349.594 27.125 350.438 27.0625 351.125 27C351.938 26.9375 352.656 26.875 353.281 26.8125C354.219 26.6875 355.188 26.5312 356.188 26.3438C357.062 26.2188 357.969 26.0625 358.906 25.875C359.906 25.625 360.875 25.3438 361.812 25.0312C361.438 25.9688 361.125 26.7812 360.875 27.4688C360.625 28.1562 360.438 28.75 360.312 29.25C360.125 29.8125 360.031 30.2812 360.031 30.6562C359.969 31.0938 359.938 31.625 359.938 32.25C359.875 33.3125 359.875 35.0312 359.938 37.4062C363.188 34.5938 365.906 32.4062 368.094 30.8438C370.344 29.2812 372.125 28.0625 373.438 27.1875C375 26.1875 376.219 25.5312 377.094 25.2188C379.406 24.8438 381.438 25.375 383.188 26.8125C383.938 27.4375 384.656 28.2812 385.344 29.3438C386.031 30.3438 386.625 31.6875 387.125 33.375C387.625 35.0625 388 37.0938 388.25 39.4688C388.5 41.7812 388.531 44.5625 388.344 47.8125C387.031 47.9375 385.844 48.0625 384.781 48.1875C383.781 48.3125 382.938 48.4062 382.25 48.4688C381.438 48.5938 380.688 48.6562 380 48.6562L377.469 48.9375C376.594 49.0625 375.5 49.1875 374.188 49.3125C372.938 49.375 371.406 49.5 369.594 49.6875C372.219 47.5625 373.906 45.7188 374.656 44.1562C375.469 42.5312 375.812 41.1875 375.688 40.125C375.562 38.9375 375 37.9062 374 37.0312C372.812 36.3438 371.531 36.0938 370.156 36.2812C368.969 36.4062 367.594 36.9375 366.031 37.875C364.469 38.8125 362.812 40.5625 361.062 43.125C361.188 47.125 361.312 50.4375 361.438 53.0625C361.625 55.6875 361.781 57.8125 361.906 59.4375C362.094 61.3125 362.25 62.7812 362.375 63.8438C362.562 64.7812 362.938 65.7812 363.5 66.8438C363.938 67.7188 364.562 68.6875 365.375 69.75C366.188 70.8125 367.25 71.875 368.562 72.9375C365.812 72.8125 363.562 72.8125 361.812 72.9375C360.75 73 359.812 73.0625 359 73.125C358.125 73.25 357.188 73.375 356.188 73.5C355.312 73.625 354.281 73.75 353.094 73.875C351.969 74.0625 350.719 74.25 349.344 74.4375C349.844 73.75 350.25 72.9375 350.562 72C350.875 71.125 351.125 70.2812 351.312 69.4688C351.562 68.5312 351.75 67.5625 351.875 66.5625C351.938 65.6875 351.969 64.375 351.969 62.625C352.031 60.875 352 58.9062 351.875 56.7188C351.812 54.4688 351.719 52.1562 351.594 49.7812C351.469 47.3438 351.312 45.0625 351.125 42.9375C350.938 40.8125 350.719 38.9688 350.469 37.4062C350.281 35.7812 350.062 34.6562 349.812 34.0312C349.5 33.2812 349.125 32.5312 348.688 31.7812C348.312 31.0938 347.844 30.375 347.281 29.625C346.719 28.8125 346.094 27.9688 345.406 27.0938ZM391.812 27.5625C393.25 27.4375 394.469 27.3125 395.469 27.1875C396.531 27.0625 397.406 26.9375 398.094 26.8125C398.906 26.6875 399.594 26.5625 400.156 26.4375C400.719 26.375 401.344 26.25 402.031 26.0625C402.656 25.9375 403.344 25.7812 404.094 25.5938C404.906 25.3438 405.781 25.0625 406.719 24.75L406.156 36.6562C407.531 34.4688 409.125 32.8125 410.938 31.6875C412.75 30.5 414.469 29.625 416.094 29.0625C418.031 28.375 419.969 27.9688 421.906 27.8438C423.906 27.9062 425.75 28.2188 427.438 28.7812C428.875 29.2812 430.312 30.0625 431.75 31.125C433.25 32.1875 434.406 33.75 435.219 35.8125C437.344 33.625 439.438 31.9375 441.5 30.75C443.625 29.5 445.5 28.5625 447.125 27.9375C449.062 27.25 450.875 26.8438 452.562 26.7188C454.812 26.6562 456.875 27.0312 458.75 27.8438C460.688 28.6562 462.375 29.6875 463.812 30.9375C465.25 32.125 466.406 33.4062 467.281 34.7812C468.156 36.0938 468.656 37.25 468.781 38.25C468.969 39.625 468.875 41.4062 468.5 43.5938C468.125 45.7188 467.688 47.9062 467.188 50.1562C466.688 52.3438 466.219 54.375 465.781 56.25C465.406 58.0625 465.25 59.3438 465.312 60.0938C465.5 60.7188 465.938 61.4688 466.625 62.3438C467.25 63.0938 468.156 64.0312 469.344 65.1562C470.594 66.2188 472.375 67.4688 474.688 68.9062C472.688 68.8438 470.906 68.7812 469.344 68.7188C467.844 68.6562 466.562 68.5625 465.5 68.4375C464.25 68.3125 463.156 68.2188 462.219 68.1562C461.469 68.1562 460.562 68.0938 459.5 67.9688C458.625 67.9062 457.469 67.8125 456.031 67.6875C454.656 67.5625 453.062 67.4375 451.25 67.3125C451.938 67.125 452.5 66.7812 452.938 66.2812C453.375 65.7188 453.75 65.1875 454.062 64.6875C454.375 64.0625 454.625 63.375 454.812 62.625C454.938 62 455.062 61 455.188 59.625C455.312 58.25 455.406 56.6875 455.469 54.9375C455.594 53.1875 455.656 51.3438 455.656 49.4062C455.719 47.4688 455.719 45.625 455.656 43.875C455.594 42.125 455.469 40.5312 455.281 39.0938C455.094 37.6562 454.844 36.5625 454.531 35.8125C454.281 35.25 453.844 34.8125 453.219 34.5C452.594 34.125 451.875 33.9062 451.062 33.8438C450.25 33.7188 449.438 33.75 448.625 33.9375C447.812 34.0625 447.094 34.3125 446.469 34.6875C445.906 35.125 445.156 35.7188 444.219 36.4688C443.406 37.1562 442.344 38.0938 441.031 39.2812C439.719 40.4688 438.062 41.9688 436.062 43.7812C435.875 47.7188 435.719 50.9062 435.594 53.3438C435.531 55.7188 435.469 57.5312 435.406 58.7812C435.344 60.2812 435.312 61.3125 435.312 61.875C435.25 62.375 435.281 62.8438 435.406 63.2812C435.531 64.2188 435.906 65.0938 436.531 65.9062C435.781 65.7188 434.969 65.5938 434.094 65.5312C433.281 65.4688 432.531 65.4062 431.844 65.3438C431.031 65.2812 430.219 65.25 429.406 65.25C428.719 65.25 427.969 65.2812 427.156 65.3438C426.469 65.4062 425.625 65.5 424.625 65.625C423.625 65.6875 422.531 65.7812 421.344 65.9062C421.844 65.5938 422.25 65.2188 422.562 64.7812C422.875 64.3438 423.125 63.9375 423.312 63.5625C423.562 63.125 423.75 62.7188 423.875 62.3438C423.938 61.9688 424.062 61.0625 424.25 59.625C424.438 58.125 424.562 56.375 424.625 54.375C424.688 52.375 424.688 50.2812 424.625 48.0938C424.562 45.8438 424.344 43.8125 423.969 42C423.594 40.125 423 38.5938 422.188 37.4062C421.438 36.2188 420.438 35.6875 419.188 35.8125C417.688 35.9375 416.156 36.3125 414.594 36.9375C413.281 37.4375 411.875 38.1875 410.375 39.1875C408.875 40.1875 407.469 41.5312 406.156 43.2188C405.906 47.9062 405.75 51.625 405.688 54.375C405.688 57.125 405.719 59.2188 405.781 60.6562C405.844 62.3438 405.906 63.5 405.969 64.125C406.031 64.5625 406.188 65 406.438 65.4375C406.625 65.8125 406.844 66.25 407.094 66.75C407.406 67.25 407.75 67.7188 408.125 68.1562L393.219 67.4062C393.719 67.1562 394.156 66.8438 394.531 66.4688C394.906 66.0312 395.219 65.5938 395.469 65.1562C395.719 64.6562 395.969 64.1562 396.219 63.6562C396.406 63.2188 396.562 62.1875 396.688 60.5625C396.875 58.9375 397.031 57.0312 397.156 54.8438C397.281 52.5938 397.375 50.25 397.438 47.8125C397.562 45.3125 397.625 43 397.625 40.875C397.688 38.6875 397.719 36.8438 397.719 35.3438C397.719 33.7812 397.688 32.8438 397.625 32.5312C397.438 31.9062 397.094 31.25 396.594 30.5625C396.156 30.0625 395.562 29.5312 394.812 28.9688C394.062 28.3438 393.062 27.875 391.812 27.5625ZM475.156 30.0938L492.406 30.2812C491.406 34.0938 490.656 37.3438 490.156 40.0312C489.719 42.7188 489.438 44.9688 489.312 46.7812C489.062 48.8438 489 50.5938 489.125 52.0312C489.312 53.3438 489.625 54.75 490.062 56.25C490.438 57.5 491 58.9375 491.75 60.5625C492.5 62.1875 493.5 63.8125 494.75 65.4375C494 65.1875 493.188 65 492.312 64.875C491.438 64.75 490.625 64.6562 489.875 64.5938C489 64.5312 488.125 64.5312 487.25 64.5938C486.375 64.6562 485.406 64.75 484.344 64.875C483.469 65 482.406 65.1562 481.156 65.3438C479.906 65.5312 478.594 65.7812 477.219 66.0938C478.156 63.2812 478.875 60.8438 479.375 58.7812C479.938 56.7188 480.344 55 480.594 53.625C480.844 52 481 50.6875 481.062 49.6875C481.062 48.4375 481.062 47.0312 481.062 45.4688C481.062 43.8438 481.062 42.2812 481.062 40.7812C481.062 39.2812 481.031 37.9688 480.969 36.8438C480.906 35.6562 480.781 34.9062 480.594 34.5938L479.656 33.6562C479.281 33.3438 478.719 32.9062 477.969 32.3438C477.281 31.7188 476.344 30.9688 475.156 30.0938ZM481.812 15.6562C483.125 14.9688 484.438 14.7812 485.75 15.0938C487.125 15.4062 488.188 16 488.938 16.875C489.688 17.75 489.938 18.7812 489.688 19.9688C489.5 21.1562 488.5 22.3125 486.688 23.4375C484.875 24.5 483.281 24.875 481.906 24.5625C480.531 24.25 479.562 23.5938 479 22.5938C478.438 21.5938 478.344 20.4375 478.719 19.125C479.094 17.75 480.125 16.5938 481.812 15.6562ZM501.031 61.6875C501.469 59.625 501.781 57.8125 501.969 56.25C502.219 54.625 502.406 53.2812 502.531 52.2188C502.656 50.9688 502.719 49.9062 502.719 49.0312C502.656 47.9688 502.594 46.7188 502.531 45.2812C502.531 43.7812 502.469 42.3125 502.344 40.875C502.281 39.375 502.188 38.0625 502.062 36.9375C501.938 35.75 501.781 34.9062 501.594 34.4062C501.344 33.9062 501 33.375 500.562 32.8125C499.688 31.75 498.406 30.7188 496.719 29.7188C498.156 29.4062 499.375 29.1562 500.375 28.9688C501.438 28.7188 502.312 28.5 503 28.3125C503.75 28.0625 504.406 27.8438 504.969 27.6562C505.469 27.4688 506.062 27.2812 506.75 27.0938C507.312 26.9688 508 26.8125 508.812 26.625C509.625 26.4375 510.562 26.2188 511.625 25.9688L511.344 34.5C513.344 32.125 515.375 30.3438 517.438 29.1562C519.5 27.9688 521.438 27.125 523.25 26.625C525.312 26 527.344 25.6875 529.344 25.6875C531.844 25.8125 534.156 26.2188 536.281 26.9062C538.469 27.5938 540.344 28.4062 541.906 29.3438C543.531 30.2188 544.844 31.1562 545.844 32.1562C546.844 33.1562 547.438 34.0312 547.625 34.7812C548.375 37.2188 548.562 39.4688 548.188 41.5312C547.812 43.5312 547.312 45.5 546.688 47.4375C546.125 49.3125 545.625 51.1875 545.188 53.0625C544.812 54.9375 544.969 56.9688 545.656 59.1562C545.906 59.7188 546.156 60.2812 546.406 60.8438C546.656 61.3438 546.969 61.8438 547.344 62.3438C547.719 62.8438 548.156 63.25 548.656 63.5625C547.969 63.5 547.281 63.4688 546.594 63.4688C545.906 63.4062 545.281 63.3438 544.719 63.2812C544.031 63.2188 543.406 63.1562 542.844 63.0938C542.219 63.0312 541.375 63 540.312 63C538.5 63 535.688 63.0938 531.875 63.2812C532.438 61.9688 532.875 60.875 533.188 60C533.562 59.0625 533.875 58.3125 534.125 57.75C534.375 57.0625 534.562 56.5312 534.688 56.1562C535.438 54.3438 535.875 52.2812 536 49.9688C536.188 47.6562 536.031 45.3125 535.531 42.9375C535.344 42.125 535.031 41.1562 534.594 40.0312C534.156 38.9062 533.562 37.8125 532.812 36.75C532.125 35.6875 531.281 34.7812 530.281 34.0312C529.344 33.2812 528.25 32.8438 527 32.7188C525.75 32.5938 524.344 32.9062 522.781 33.6562C521.281 34.4062 519.656 35.7812 517.906 37.7812C516.594 39.4688 515.562 41.5312 514.812 43.9688C514.125 46.0312 513.656 48.625 513.406 51.75C513.156 54.8125 513.531 58.4062 514.531 62.5312C513.656 62.4062 512.844 62.3438 512.094 62.3438C511.344 62.2812 510.719 62.2188 510.219 62.1562C509.594 62.0938 509.031 62.0312 508.531 61.9688C507.969 61.9688 507.344 61.9375 506.656 61.875C506.031 61.875 505.25 61.875 504.312 61.875C503.375 61.8125 502.281 61.75 501.031 61.6875ZM578.75 56.9062C580.5 56.9062 582.125 56.7188 583.625 56.3438C584.875 56.0312 586.062 55.5312 587.188 54.8438C588.375 54.0938 589.156 53 589.531 51.5625C590.781 51.8125 591.844 52.0312 592.719 52.2188C593.594 52.3438 594.344 52.4688 594.969 52.5938C595.656 52.7812 596.25 52.9062 596.75 52.9688C597.25 53.0938 597.844 53.2188 598.531 53.3438C599.156 53.4688 599.906 53.625 600.781 53.8125C601.719 53.9375 602.812 54.125 604.062 54.375C603.125 54.25 602.156 54.3438 601.156 54.6562C600.219 54.9688 599.312 55.3125 598.438 55.6875C597.438 56.125 596.5 56.6562 595.625 57.2812C595.062 57.6562 594.406 58.2188 593.656 58.9688C592.969 59.7188 591.969 60.4375 590.656 61.125C589.344 61.8125 587.594 62.4062 585.406 62.9062C583.281 63.3438 580.531 63.5 577.156 63.375C573.094 63.25 569.688 62.5312 566.938 61.2188C564.188 59.8438 561.969 58.1875 560.281 56.25C558.594 54.25 557.375 52.0938 556.625 49.7812C555.875 47.4688 555.469 45.3125 555.406 43.3125C555.344 41.3125 555.938 39.2188 557.188 37.0312C558.438 34.8438 560.188 32.8438 562.438 31.0312C564.75 29.2188 567.531 27.75 570.781 26.625C574.031 25.4375 577.594 24.8438 581.469 24.8438C583.719 24.8438 585.781 25.125 587.656 25.6875C589.594 26.1875 591.344 26.875 592.906 27.75C594.531 28.625 595.938 29.625 597.125 30.75C598.312 31.8125 599.312 32.9062 600.125 34.0312C600.938 35.2188 601.625 36.4688 602.188 37.7812C602.688 38.9062 603.094 40.1875 603.406 41.625C603.719 43.0625 603.812 44.5312 603.688 46.0312C598.938 46.1562 595.094 46.25 592.156 46.3125C589.281 46.375 587.031 46.4062 585.406 46.4062H581.188H578C576.875 46.4062 575.406 46.4375 573.594 46.5C571.781 46.5625 569.562 46.6562 566.938 46.7812C567.25 49.2812 568.031 51.2188 569.281 52.5938C570.594 53.9062 571.969 54.9062 573.406 55.5938C575.031 56.3438 576.812 56.7812 578.75 56.9062ZM570.312 40.0312C572.312 40.1562 573.969 40.25 575.281 40.3125C576.656 40.375 577.781 40.4375 578.656 40.5C579.594 40.5625 580.344 40.5938 580.906 40.5938H583.25C584.812 40.5938 587.719 40.5 591.969 40.3125C591.781 37.5625 591.188 35.4688 590.188 34.0312C589.25 32.5938 588.25 31.5312 587.188 30.8438C585.938 30.0938 584.562 29.6562 583.062 29.5312C579 29.5938 575.969 30.4375 573.969 32.0625C572.031 33.6875 570.812 36.3438 570.312 40.0312Z" fill="black"/>
</svg>
